G04 PROTEUS GERBER X2 FILE*
%TF.GenerationSoftware,Labcenter,Proteus,8.9-SP0-Build27865*%
%TF.CreationDate,2021-01-11T14:01:32+00:00*%
%TF.FileFunction,Soldermask,Top*%
%TF.FilePolarity,Negative*%
%TF.Part,Single*%
%TF.SameCoordinates,{9f0a7d81-3364-476e-981e-304885b4a122}*%
%FSLAX45Y45*%
%MOMM*%
G01*
%TA.AperFunction,Material*%
%ADD43C,1.270000*%
%ADD44C,1.524000*%
%ADD45C,4.318000*%
%TA.AperFunction,Material*%
%ADD46C,3.302000*%
%AMPPAD041*
4,1,36,
1.016000,-1.143000,
-1.016000,-1.143000,
-1.041970,-1.140470,
-1.065980,-1.133200,
-1.087580,-1.121650,
-1.106290,-1.106290,
-1.121650,-1.087570,
-1.133200,-1.065980,
-1.140470,-1.041970,
-1.143000,-1.016000,
-1.143000,1.016000,
-1.140470,1.041970,
-1.133200,1.065980,
-1.121650,1.087570,
-1.106290,1.106290,
-1.087580,1.121650,
-1.065980,1.133200,
-1.041970,1.140470,
-1.016000,1.143000,
1.016000,1.143000,
1.041970,1.140470,
1.065980,1.133200,
1.087580,1.121650,
1.106290,1.106290,
1.121650,1.087570,
1.133200,1.065980,
1.140470,1.041970,
1.143000,1.016000,
1.143000,-1.016000,
1.140470,-1.041970,
1.133200,-1.065980,
1.121650,-1.087570,
1.106290,-1.106290,
1.087580,-1.121650,
1.065980,-1.133200,
1.041970,-1.140470,
1.016000,-1.143000,
0*%
%TA.AperFunction,Material*%
%ADD47PPAD041*%
%AMPPAD042*
4,1,36,
-1.100000,0.627000,
1.100000,0.627000,
1.125970,0.624470,
1.149980,0.617200,
1.171580,0.605650,
1.190290,0.590290,
1.205650,0.571570,
1.217200,0.549980,
1.224470,0.525970,
1.227000,0.500000,
1.227000,-0.500000,
1.224470,-0.525970,
1.217200,-0.549980,
1.205650,-0.571570,
1.190290,-0.590290,
1.171580,-0.605650,
1.149980,-0.617200,
1.125970,-0.624470,
1.100000,-0.627000,
-1.100000,-0.627000,
-1.125970,-0.624470,
-1.149980,-0.617200,
-1.171580,-0.605650,
-1.190290,-0.590290,
-1.205650,-0.571570,
-1.217200,-0.549980,
-1.224470,-0.525970,
-1.227000,-0.500000,
-1.227000,0.500000,
-1.224470,0.525970,
-1.217200,0.549980,
-1.205650,0.571570,
-1.190290,0.590290,
-1.171580,0.605650,
-1.149980,0.617200,
-1.125970,0.624470,
-1.100000,0.627000,
0*%
%TA.AperFunction,Material*%
%ADD48PPAD042*%
%AMPPAD043*
4,1,36,
0.627000,1.100000,
0.627000,-1.100000,
0.624470,-1.125970,
0.617200,-1.149980,
0.605650,-1.171580,
0.590290,-1.190290,
0.571570,-1.205650,
0.549980,-1.217200,
0.525970,-1.224470,
0.500000,-1.227000,
-0.500000,-1.227000,
-0.525970,-1.224470,
-0.549980,-1.217200,
-0.571570,-1.205650,
-0.590290,-1.190290,
-0.605650,-1.171580,
-0.617200,-1.149980,
-0.624470,-1.125970,
-0.627000,-1.100000,
-0.627000,1.100000,
-0.624470,1.125970,
-0.617200,1.149980,
-0.605650,1.171580,
-0.590290,1.190290,
-0.571570,1.205650,
-0.549980,1.217200,
-0.525970,1.224470,
-0.500000,1.227000,
0.500000,1.227000,
0.525970,1.224470,
0.549980,1.217200,
0.571570,1.205650,
0.590290,1.190290,
0.605650,1.171580,
0.617200,1.149980,
0.624470,1.125970,
0.627000,1.100000,
0*%
%ADD49PPAD043*%
%AMPPAD044*
4,1,36,
3.048000,3.683000,
3.048000,-3.683000,
3.045470,-3.708970,
3.038200,-3.732980,
3.026650,-3.754580,
3.011290,-3.773290,
2.992570,-3.788650,
2.970980,-3.800200,
2.946970,-3.807470,
2.921000,-3.810000,
-2.921000,-3.810000,
-2.946970,-3.807470,
-2.970980,-3.800200,
-2.992570,-3.788650,
-3.011290,-3.773290,
-3.026650,-3.754580,
-3.038200,-3.732980,
-3.045470,-3.708970,
-3.048000,-3.683000,
-3.048000,3.683000,
-3.045470,3.708970,
-3.038200,3.732980,
-3.026650,3.754580,
-3.011290,3.773290,
-2.992570,3.788650,
-2.970980,3.800200,
-2.946970,3.807470,
-2.921000,3.810000,
2.921000,3.810000,
2.946970,3.807470,
2.970980,3.800200,
2.992570,3.788650,
3.011290,3.773290,
3.026650,3.754580,
3.038200,3.732980,
3.045470,3.708970,
3.048000,3.683000,
0*%
%ADD50PPAD044*%
%AMPPAD045*
4,1,4,
0.723900,0.469900,
0.723900,-0.469900,
-0.723900,-0.469900,
-0.723900,0.469900,
0.723900,0.469900,
0*%
%TA.AperFunction,Material*%
%ADD51PPAD045*%
%AMPPAD046*
4,1,4,
0.469900,-0.495300,
-0.469900,-0.495300,
-0.469900,0.495300,
0.469900,0.495300,
0.469900,-0.495300,
0*%
%ADD52PPAD046*%
%AMPPAD047*
4,1,36,
1.143000,1.016000,
1.143000,-1.016000,
1.140470,-1.041970,
1.133200,-1.065980,
1.121650,-1.087580,
1.106290,-1.106290,
1.087570,-1.121650,
1.065980,-1.133200,
1.041970,-1.140470,
1.016000,-1.143000,
-1.016000,-1.143000,
-1.041970,-1.140470,
-1.065980,-1.133200,
-1.087570,-1.121650,
-1.106290,-1.106290,
-1.121650,-1.087580,
-1.133200,-1.065980,
-1.140470,-1.041970,
-1.143000,-1.016000,
-1.143000,1.016000,
-1.140470,1.041970,
-1.133200,1.065980,
-1.121650,1.087580,
-1.106290,1.106290,
-1.087570,1.121650,
-1.065980,1.133200,
-1.041970,1.140470,
-1.016000,1.143000,
1.016000,1.143000,
1.041970,1.140470,
1.065980,1.133200,
1.087570,1.121650,
1.106290,1.106290,
1.121650,1.087580,
1.133200,1.065980,
1.140470,1.041970,
1.143000,1.016000,
0*%
%TA.AperFunction,Material*%
%ADD53PPAD047*%
%TA.AperFunction,Material*%
%ADD54C,2.794000*%
%AMPPAD049*
4,1,36,
0.762000,0.508000,
0.762000,-0.508000,
0.759470,-0.533970,
0.752200,-0.557980,
0.740650,-0.579580,
0.725290,-0.598290,
0.706570,-0.613650,
0.684980,-0.625200,
0.660970,-0.632470,
0.635000,-0.635000,
-0.635000,-0.635000,
-0.660970,-0.632470,
-0.684980,-0.625200,
-0.706570,-0.613650,
-0.725290,-0.598290,
-0.740650,-0.579580,
-0.752200,-0.557980,
-0.759470,-0.533970,
-0.762000,-0.508000,
-0.762000,0.508000,
-0.759470,0.533970,
-0.752200,0.557980,
-0.740650,0.579580,
-0.725290,0.598290,
-0.706570,0.613650,
-0.684980,0.625200,
-0.660970,0.632470,
-0.635000,0.635000,
0.635000,0.635000,
0.660970,0.632470,
0.684980,0.625200,
0.706570,0.613650,
0.725290,0.598290,
0.740650,0.579580,
0.752200,0.557980,
0.759470,0.533970,
0.762000,0.508000,
0*%
%TA.AperFunction,Material*%
%ADD55PPAD049*%
%AMPPAD050*
4,1,4,
1.054100,1.054100,
1.054100,-1.054100,
-1.054100,-1.054100,
-1.054100,1.054100,
1.054100,1.054100,
0*%
%ADD56PPAD050*%
%AMPPAD051*
4,1,4,
-0.469900,-0.304800,
-0.469900,0.304800,
0.469900,0.304800,
0.469900,-0.304800,
-0.469900,-0.304800,
0*%
%TA.AperFunction,Material*%
%ADD57PPAD051*%
%AMPPAD052*
4,1,4,
-0.469900,0.723900,
0.469900,0.723900,
0.469900,-0.723900,
-0.469900,-0.723900,
-0.469900,0.723900,
0*%
%TA.AperFunction,Material*%
%ADD58PPAD052*%
%AMPPAD053*
4,1,36,
-0.154940,-0.260000,
-0.154940,0.260000,
-0.154140,0.268180,
-0.151850,0.275740,
-0.148220,0.282540,
-0.143380,0.288440,
-0.137480,0.293280,
-0.130680,0.296910,
-0.123120,0.299200,
-0.114940,0.300000,
0.114940,0.300000,
0.123120,0.299200,
0.130680,0.296910,
0.137480,0.293280,
0.143380,0.288440,
0.148220,0.282540,
0.151850,0.275740,
0.154140,0.268180,
0.154940,0.260000,
0.154940,-0.260000,
0.154140,-0.268180,
0.151850,-0.275740,
0.148220,-0.282540,
0.143380,-0.288440,
0.137480,-0.293280,
0.130680,-0.296910,
0.123120,-0.299200,
0.114940,-0.300000,
-0.114940,-0.300000,
-0.123120,-0.299200,
-0.130680,-0.296910,
-0.137480,-0.293280,
-0.143380,-0.288440,
-0.148220,-0.282540,
-0.151850,-0.275740,
-0.154140,-0.268180,
-0.154940,-0.260000,
0*%
%TA.AperFunction,Material*%
%ADD59PPAD053*%
%AMPPAD054*
4,1,4,
-0.875030,-0.750000,
-0.875030,0.750000,
0.875030,0.750000,
0.875030,-0.750000,
-0.875030,-0.750000,
0*%
%ADD60PPAD054*%
%ADD61C,0.400000*%
%AMPPAD056*
4,1,36,
0.889000,0.508000,
0.889000,-0.508000,
0.886470,-0.533970,
0.879200,-0.557980,
0.867650,-0.579580,
0.852290,-0.598290,
0.833570,-0.613650,
0.811980,-0.625200,
0.787970,-0.632470,
0.762000,-0.635000,
-0.762000,-0.635000,
-0.787970,-0.632470,
-0.811980,-0.625200,
-0.833570,-0.613650,
-0.852290,-0.598290,
-0.867650,-0.579580,
-0.879200,-0.557980,
-0.886470,-0.533970,
-0.889000,-0.508000,
-0.889000,0.508000,
-0.886470,0.533970,
-0.879200,0.557980,
-0.867650,0.579580,
-0.852290,0.598290,
-0.833570,0.613650,
-0.811980,0.625200,
-0.787970,0.632470,
-0.762000,0.635000,
0.762000,0.635000,
0.787970,0.632470,
0.811980,0.625200,
0.833570,0.613650,
0.852290,0.598290,
0.867650,0.579580,
0.879200,0.557980,
0.886470,0.533970,
0.889000,0.508000,
0*%
%TA.AperFunction,Material*%
%ADD62PPAD056*%
%AMPPAD057*
4,1,4,
0.675000,0.200000,
0.675000,-0.200000,
-0.675000,-0.200000,
-0.675000,0.200000,
0.675000,0.200000,
0*%
%TA.AperFunction,Material*%
%ADD63PPAD057*%
%ADD64C,1.950000*%
%AMPPAD059*
4,1,4,
0.700000,0.800000,
0.700000,-0.800000,
-0.700000,-0.800000,
-0.700000,0.800000,
0.700000,0.800000,
0*%
%ADD65PPAD059*%
%AMPPAD060*
4,1,4,
0.800000,0.950000,
0.800000,-0.950000,
-0.800000,-0.950000,
-0.800000,0.950000,
0.800000,0.950000,
0*%
%ADD66PPAD060*%
%TA.AperFunction,Profile*%
%ADD36C,0.203200*%
%TA.AperFunction,Material*%
%ADD67C,0.025400*%
%TD.AperFunction*%
G36*
X+1375512Y+7108000D02*
X+1375512Y+7139000D01*
X+1293000Y+7139000D01*
X+1293000Y+7176000D01*
X+1375512Y+7176000D01*
X+1375512Y+7204000D01*
X+1293000Y+7204000D01*
X+1293000Y+7241000D01*
X+1375512Y+7241000D01*
X+1375512Y+7272000D01*
X+1564488Y+7272000D01*
X+1564488Y+7241000D01*
X+1647000Y+7241000D01*
X+1647000Y+7204000D01*
X+1564488Y+7204000D01*
X+1564488Y+7176000D01*
X+1647000Y+7176000D01*
X+1647000Y+7139000D01*
X+1564488Y+7139000D01*
X+1564488Y+7108000D01*
X+1375512Y+7108000D01*
G37*
G36*
X+1350000Y+7013000D02*
X+1350000Y+7087000D01*
X+1395000Y+7087000D01*
X+1395000Y+7013000D01*
X+1350000Y+7013000D01*
G37*
G36*
X+1350000Y+7293000D02*
X+1350000Y+7367000D01*
X+1395000Y+7367000D01*
X+1395000Y+7293000D01*
X+1350000Y+7293000D01*
G37*
G36*
X+1415000Y+7013000D02*
X+1415000Y+7087000D01*
X+1460000Y+7087000D01*
X+1460000Y+7013000D01*
X+1415000Y+7013000D01*
G37*
G36*
X+1480000Y+7013000D02*
X+1480000Y+7087000D01*
X+1525000Y+7087000D01*
X+1525000Y+7013000D01*
X+1480000Y+7013000D01*
G37*
G36*
X+1545000Y+7013000D02*
X+1545000Y+7087000D01*
X+1590000Y+7087000D01*
X+1590000Y+7013000D01*
X+1545000Y+7013000D01*
G37*
G36*
X+1415000Y+7293000D02*
X+1415000Y+7367000D01*
X+1460000Y+7367000D01*
X+1460000Y+7293000D01*
X+1415000Y+7293000D01*
G37*
G36*
X+1480000Y+7293000D02*
X+1480000Y+7367000D01*
X+1525000Y+7367000D01*
X+1525000Y+7293000D01*
X+1480000Y+7293000D01*
G37*
G36*
X+1545000Y+7293000D02*
X+1545000Y+7367000D01*
X+1590000Y+7367000D01*
X+1590000Y+7293000D01*
X+1545000Y+7293000D01*
G37*
D43*
X+1265783Y+3569295D03*
X+1760000Y+2450000D03*
X+1760000Y+840000D03*
X+1160000Y+1390000D03*
X+1160000Y+850000D03*
X+2360000Y+820000D03*
X+2360000Y+1390000D03*
X+3410000Y+3600000D03*
X+3980000Y+2420000D03*
X+3980000Y+820000D03*
X+3380000Y+820000D03*
X+3380000Y+1410000D03*
X+4580000Y+810000D03*
X+4580000Y+1390000D03*
X+5630000Y+3590000D03*
X+6170000Y+820000D03*
X+6170000Y+2390000D03*
X+5570000Y+1410000D03*
X+5570000Y+800000D03*
X+6770000Y+810000D03*
X+6770000Y+1410000D03*
X+7679296Y+3645021D03*
X+8200000Y+830000D03*
X+8200000Y+2410000D03*
X+7600000Y+1420000D03*
X+7600000Y+820000D03*
X+8800000Y+820000D03*
D44*
X+7920733Y+5145660D03*
X+3990000Y+6820000D03*
X+3985911Y+6327617D03*
X+9350440Y+2865674D03*
X+6635855Y+3843907D03*
X+4476559Y+3837206D03*
X+2340939Y+3832683D03*
D43*
X+8800000Y+3840000D03*
D44*
X+8381796Y+5867433D03*
D43*
X+8431756Y+4811915D03*
D44*
X+5143500Y+5588000D03*
X+5143500Y+4570000D03*
X+3619500Y+3556000D03*
D43*
X+9160000Y+1570000D03*
X+7053197Y+287109D03*
X+6989593Y+3613334D03*
X+6080000Y+4370000D03*
D44*
X+4727503Y+6034762D03*
X+4953000Y+4889500D03*
X+825500Y+4000500D03*
X+7388135Y+5782228D03*
X+7390660Y+4673503D03*
X+4626667Y+5110741D03*
X+4640000Y+4520000D03*
X+4000500Y+4000500D03*
X+2603500Y+4000500D03*
X+1460500Y+3556000D03*
X+7651826Y+6085007D03*
D43*
X+8885925Y+5090000D03*
D44*
X+4224748Y+6602565D03*
X+4160000Y+6060000D03*
X+5135961Y+6329372D03*
X+3764049Y+4992411D03*
X+2246124Y+5000249D03*
X+1293624Y+5004169D03*
X+1290000Y+4290000D03*
X+710000Y+3830000D03*
X+2954568Y+4122530D03*
X+2633149Y+4142129D03*
X+2637068Y+4679461D03*
X+2794000Y+3683000D03*
X+2794000Y+2540000D03*
D43*
X+5121363Y+5775053D03*
X+6636046Y+4217769D03*
X+6767350Y+3626333D03*
X+7003953Y+1120543D03*
X+9024591Y+955990D03*
D44*
X+9400000Y+4580000D03*
X+9401576Y+4924318D03*
X+9188866Y+6125501D03*
X+9176354Y+6694811D03*
X+7443994Y+6542489D03*
D43*
X+5151157Y+3597261D03*
X+7194733Y+3654649D03*
X+7170000Y+4020000D03*
X+7490000Y+5910000D03*
D45*
X+290000Y+7300000D03*
D46*
X+7724000Y+540000D03*
X+8232000Y+540000D03*
X+8740000Y+540000D03*
D47*
X+980000Y+7320000D03*
X+726000Y+7320000D03*
D48*
X+5420940Y+6796660D03*
X+5420940Y+6669660D03*
X+5420940Y+6542660D03*
X+5420940Y+6415660D03*
X+5420940Y+6288660D03*
X+5420940Y+6161660D03*
X+5420940Y+6034660D03*
X+5420940Y+5907660D03*
X+5420940Y+5780660D03*
X+5420940Y+5653660D03*
X+5420940Y+5526660D03*
X+5420940Y+5399660D03*
X+5420940Y+5272660D03*
X+5420940Y+5145660D03*
D49*
X+5699400Y+5047500D03*
X+5826400Y+5047500D03*
X+5953400Y+5047500D03*
X+6080400Y+5047500D03*
X+6207400Y+5047500D03*
X+6334400Y+5047500D03*
X+6461400Y+5047500D03*
X+6588400Y+5047500D03*
X+6715400Y+5047500D03*
X+6842400Y+5047500D03*
D48*
X+7120940Y+5145660D03*
X+7120940Y+5272660D03*
X+7120940Y+5399660D03*
X+7120940Y+5526660D03*
X+7120940Y+5653660D03*
X+7120940Y+5780660D03*
X+7120940Y+5907660D03*
X+7120940Y+6034660D03*
X+7120940Y+6161660D03*
X+7120940Y+6288660D03*
X+7120940Y+6415660D03*
X+7120940Y+6542660D03*
X+7120940Y+6669660D03*
X+7120940Y+6796660D03*
D50*
X+6247780Y+6105080D03*
D44*
X+6125860Y+6201600D03*
X+6232540Y+6201600D03*
X+6331600Y+6201600D03*
X+6334140Y+6100000D03*
X+6230000Y+6100000D03*
X+6125860Y+6094920D03*
X+6128400Y+5993320D03*
X+6230000Y+5995860D03*
X+6331600Y+5995860D03*
D46*
X+1250000Y+530000D03*
X+1758000Y+530000D03*
X+2266000Y+530000D03*
X+3460000Y+530000D03*
X+3968000Y+530000D03*
X+4476000Y+530000D03*
X+5660000Y+530000D03*
X+6168000Y+530000D03*
X+6676000Y+530000D03*
D51*
X+4950000Y+6690000D03*
X+4950000Y+6490000D03*
D52*
X+4700000Y+6690000D03*
X+4540000Y+6690000D03*
X+4700000Y+6490000D03*
X+4540000Y+6490000D03*
D45*
X+9770000Y+7300000D03*
D53*
X+9710000Y+6646000D03*
X+9710000Y+6392000D03*
X+9710000Y+6138000D03*
X+9710000Y+5884000D03*
D45*
X+290000Y+220000D03*
X+9770000Y+220000D03*
D54*
X+2360000Y+3030000D03*
X+1160000Y+3030000D03*
X+1760000Y+3230000D03*
X+2360000Y+1810000D03*
X+1160000Y+1810000D03*
X+4580000Y+3030000D03*
X+3380000Y+3030000D03*
X+3980000Y+3230000D03*
X+4580000Y+1810000D03*
X+3380000Y+1810000D03*
X+6770000Y+3030000D03*
X+5570000Y+3030000D03*
X+6170000Y+3230000D03*
X+6770000Y+1810000D03*
X+5570000Y+1810000D03*
X+8800000Y+3030000D03*
X+7600000Y+3030000D03*
X+8200000Y+3230000D03*
X+8800000Y+1810000D03*
X+7600000Y+1810000D03*
D53*
X+9710000Y+5536000D03*
X+9710000Y+5282000D03*
X+9710000Y+5028000D03*
X+9710000Y+4774000D03*
X+9710000Y+4520000D03*
X+9710000Y+4266000D03*
X+9710000Y+4012000D03*
X+9710000Y+3758000D03*
D47*
X+2940000Y+5530000D03*
X+3194000Y+5530000D03*
X+3448000Y+5530000D03*
X+3702000Y+5530000D03*
X+8610000Y+7430000D03*
X+8356000Y+7430000D03*
D53*
X+420000Y+5078000D03*
X+420000Y+4824000D03*
X+420000Y+4570000D03*
X+420000Y+4316000D03*
X+420000Y+4062000D03*
X+9710000Y+3416000D03*
X+9710000Y+3162000D03*
X+9710000Y+2908000D03*
X+9710000Y+2654000D03*
D55*
X+9240000Y+3390000D03*
X+9240000Y+3176640D03*
D47*
X+9190000Y+7430000D03*
X+8936000Y+7430000D03*
D53*
X+420000Y+1468000D03*
X+420000Y+1214000D03*
X+420000Y+960000D03*
X+420000Y+706000D03*
X+420000Y+2588000D03*
X+420000Y+2334000D03*
X+420000Y+2080000D03*
X+420000Y+1826000D03*
X+420000Y+3704000D03*
X+420000Y+3450000D03*
X+420000Y+3196000D03*
X+420000Y+2942000D03*
D47*
X+2940000Y+7390000D03*
X+3194000Y+7390000D03*
X+3448000Y+7390000D03*
X+3702000Y+7390000D03*
D53*
X+9710000Y+1210000D03*
X+9710000Y+956000D03*
X+9710000Y+702000D03*
X+9710000Y+2342000D03*
X+9710000Y+2088000D03*
X+9710000Y+1834000D03*
X+9710000Y+1580000D03*
D56*
X+3780000Y+3850000D03*
X+4230000Y+3850000D03*
X+5960000Y+3850000D03*
X+6410000Y+3850000D03*
X+7960000Y+3850000D03*
X+8410000Y+3850000D03*
X+1570000Y+3830000D03*
X+2020000Y+3830000D03*
D57*
X+3210000Y+3945000D03*
X+3210000Y+3755000D03*
X+3440000Y+3850000D03*
X+5370000Y+3945000D03*
X+5370000Y+3755000D03*
X+5600000Y+3850000D03*
X+7400000Y+3945000D03*
X+7400000Y+3755000D03*
X+7630000Y+3850000D03*
X+1030000Y+3925000D03*
X+1030000Y+3735000D03*
X+1260000Y+3830000D03*
D58*
X+3010000Y+4330000D03*
X+3210000Y+4330000D03*
X+5160000Y+4330000D03*
X+5360000Y+4330000D03*
X+7200000Y+4360000D03*
X+7400000Y+4360000D03*
X+830000Y+4230000D03*
X+1030000Y+4230000D03*
D47*
X+8000000Y+7430000D03*
X+7746000Y+7430000D03*
D59*
X+1372000Y+7050000D03*
X+1437488Y+7050000D03*
X+1502512Y+7050000D03*
X+1568000Y+7050000D03*
X+1568000Y+7330000D03*
X+1502512Y+7330000D03*
X+1437488Y+7330000D03*
X+1372000Y+7330000D03*
D60*
X+1470000Y+7190000D03*
D61*
X+1407000Y+7190000D03*
X+1470000Y+7240000D03*
X+1470000Y+7140000D03*
X+1533000Y+7190000D03*
D62*
X+920000Y+6820000D03*
X+920000Y+6505040D03*
D58*
X+1960000Y+6750000D03*
X+2160000Y+6750000D03*
D62*
X+2170000Y+7050000D03*
X+2170000Y+7364960D03*
X+1940000Y+7050000D03*
X+1940000Y+7364960D03*
X+1160000Y+6820000D03*
X+1160000Y+6505040D03*
D47*
X+4700000Y+7420000D03*
X+4954000Y+7420000D03*
D53*
X+230000Y+5920000D03*
X+230000Y+5666000D03*
D63*
X+490000Y+6750000D03*
X+490000Y+6685000D03*
X+490000Y+6620000D03*
X+490000Y+6555000D03*
X+490000Y+6490000D03*
D64*
X+222000Y+6950000D03*
X+222000Y+6290000D03*
D65*
X+468000Y+6940000D03*
D66*
X+222000Y+6740000D03*
X+222000Y+6500000D03*
D65*
X+468000Y+6300000D03*
D36*
X+35420Y-8200D02*
X+10035420Y-8200D01*
X+10035420Y+7611800D01*
X+35420Y+7611800D01*
X+35420Y-8200D01*
D67*
X+1375512Y+7108000D02*
X+1375512Y+7139000D01*
X+1293000Y+7139000D01*
X+1293000Y+7176000D01*
X+1375512Y+7176000D01*
X+1375512Y+7204000D01*
X+1293000Y+7204000D01*
X+1293000Y+7241000D01*
X+1375512Y+7241000D01*
X+1375512Y+7272000D01*
X+1564488Y+7272000D01*
X+1564488Y+7241000D01*
X+1647000Y+7241000D01*
X+1647000Y+7204000D01*
X+1564488Y+7204000D01*
X+1564488Y+7176000D01*
X+1647000Y+7176000D01*
X+1647000Y+7139000D01*
X+1564488Y+7139000D01*
X+1564488Y+7108000D01*
X+1375512Y+7108000D01*
X+1350000Y+7013000D02*
X+1395000Y+7013000D01*
X+1395000Y+7087000D01*
X+1350000Y+7087000D01*
X+1350000Y+7013000D01*
X+1350000Y+7293000D02*
X+1395000Y+7293000D01*
X+1395000Y+7367000D01*
X+1350000Y+7367000D01*
X+1350000Y+7293000D01*
X+1415000Y+7013000D02*
X+1460000Y+7013000D01*
X+1460000Y+7087000D01*
X+1415000Y+7087000D01*
X+1415000Y+7013000D01*
X+1480000Y+7013000D02*
X+1525000Y+7013000D01*
X+1525000Y+7087000D01*
X+1480000Y+7087000D01*
X+1480000Y+7013000D01*
X+1545000Y+7013000D02*
X+1590000Y+7013000D01*
X+1590000Y+7087000D01*
X+1545000Y+7087000D01*
X+1545000Y+7013000D01*
X+1415000Y+7293000D02*
X+1460000Y+7293000D01*
X+1460000Y+7367000D01*
X+1415000Y+7367000D01*
X+1415000Y+7293000D01*
X+1480000Y+7293000D02*
X+1525000Y+7293000D01*
X+1525000Y+7367000D01*
X+1480000Y+7367000D01*
X+1480000Y+7293000D01*
X+1545000Y+7293000D02*
X+1590000Y+7293000D01*
X+1590000Y+7367000D01*
X+1545000Y+7367000D01*
X+1545000Y+7293000D01*
M02*
