G04 PROTEUS GERBER X2 FILE*
%TF.GenerationSoftware,Labcenter,Proteus,8.9-SP0-Build27865*%
%TF.CreationDate,2021-01-11T14:01:32+00:00*%
%TF.FileFunction,Legend,Top*%
%TF.FilePolarity,Positive*%
%TF.Part,Single*%
%TF.SameCoordinates,{9f0a7d81-3364-476e-981e-304885b4a122}*%
%FSLAX45Y45*%
%MOMM*%
G01*
%TA.AperFunction,Profile*%
%ADD36C,0.203200*%
%TA.AperFunction,Material*%
%ADD37C,0.203200*%
%ADD38C,0.200000*%
%ADD39C,0.250000*%
%ADD40C,0.127000*%
%ADD41C,0.100000*%
%TD.AperFunction*%
D36*
X+35420Y-8200D02*
X+10035420Y-8200D01*
X+10035420Y+7611800D01*
X+35420Y+7611800D01*
X+35420Y-8200D01*
D37*
X+7470000Y+1048000D02*
X+7470000Y+32000D01*
X+8994000Y+1048000D02*
X+8994000Y+32000D01*
X+7470000Y+32000D02*
X+8994000Y+32000D01*
X+8994000Y+1048000D02*
X+7470000Y+1048000D01*
X+8016530Y+1107480D02*
X+8016530Y+1092240D01*
X+8032405Y+1077000D01*
X+8095905Y+1077000D01*
X+8111780Y+1092240D01*
X+8111780Y+1168440D01*
X+8175280Y+1137960D02*
X+8207030Y+1168440D01*
X+8207030Y+1077000D01*
X+8286405Y+1153200D02*
X+8302280Y+1168440D01*
X+8349905Y+1168440D01*
X+8365780Y+1153200D01*
X+8365780Y+1137960D01*
X+8349905Y+1122720D01*
X+8365780Y+1107480D01*
X+8365780Y+1092240D01*
X+8349905Y+1077000D01*
X+8302280Y+1077000D01*
X+8286405Y+1092240D01*
X+8318155Y+1122720D02*
X+8349905Y+1122720D01*
X+2340000Y+7090000D02*
X+2340000Y+7010000D01*
X+2380000Y+7050000D02*
X+2300000Y+7050000D01*
X+599000Y+7193000D02*
X+1107000Y+7193000D01*
X+1107000Y+7447000D01*
X+599000Y+7447000D01*
X+599000Y+7193000D01*
X+595520Y+7084740D02*
X+595520Y+7069500D01*
X+611395Y+7054260D01*
X+674895Y+7054260D01*
X+690770Y+7069500D01*
X+690770Y+7145700D01*
X+738395Y+7130460D02*
X+754270Y+7145700D01*
X+801895Y+7145700D01*
X+817770Y+7130460D01*
X+817770Y+7115220D01*
X+801895Y+7099980D01*
X+754270Y+7099980D01*
X+738395Y+7084740D01*
X+738395Y+7054260D01*
X+817770Y+7054260D01*
X+9900000Y+3776000D02*
X+9900000Y+3696000D01*
X+5316800Y+4937300D02*
X+7236800Y+4937300D01*
X+7236800Y+7557300D01*
X+5316800Y+7557300D01*
X+5316800Y+4937300D01*
X+5316800Y+6997300D02*
X+7236800Y+6997300D01*
X+5656800Y+6997300D02*
X+5656800Y+7407300D01*
X+6036800Y+7407300D01*
X+6036800Y+7087300D01*
X+6396800Y+7087300D01*
X+6396800Y+7397300D01*
X+6746800Y+7397300D01*
X+5431521Y+6927300D02*
X+5431367Y+6931004D01*
X+5430118Y+6938414D01*
X+5427504Y+6945824D01*
X+5423233Y+6953234D01*
X+5416701Y+6960555D01*
X+5409291Y+6965954D01*
X+5401881Y+6969401D01*
X+5394471Y+6971358D01*
X+5387061Y+6972020D01*
X+5386800Y+6972021D01*
X+5342079Y+6927300D02*
X+5342233Y+6931004D01*
X+5343482Y+6938414D01*
X+5346096Y+6945824D01*
X+5350367Y+6953234D01*
X+5356899Y+6960555D01*
X+5364309Y+6965954D01*
X+5371719Y+6969401D01*
X+5379129Y+6971358D01*
X+5386539Y+6972020D01*
X+5386800Y+6972021D01*
X+5342079Y+6927300D02*
X+5342233Y+6923596D01*
X+5343482Y+6916186D01*
X+5346096Y+6908776D01*
X+5350367Y+6901366D01*
X+5356899Y+6894045D01*
X+5364309Y+6888646D01*
X+5371719Y+6885199D01*
X+5379129Y+6883242D01*
X+5386539Y+6882580D01*
X+5386800Y+6882579D01*
X+5431521Y+6927300D02*
X+5431367Y+6923596D01*
X+5430118Y+6916186D01*
X+5427504Y+6908776D01*
X+5423233Y+6901366D01*
X+5416701Y+6894045D01*
X+5409291Y+6888646D01*
X+5401881Y+6885199D01*
X+5394471Y+6883242D01*
X+5387061Y+6882580D01*
X+5386800Y+6882579D01*
X+6749800Y+7229380D02*
X+6749800Y+7153180D01*
X+6765675Y+7137940D01*
X+6829175Y+7137940D01*
X+6845050Y+7153180D01*
X+6845050Y+7229380D01*
X+6908550Y+7183660D02*
X+6892675Y+7198900D01*
X+6892675Y+7214140D01*
X+6908550Y+7229380D01*
X+6956175Y+7229380D01*
X+6972050Y+7214140D01*
X+6972050Y+7198900D01*
X+6956175Y+7183660D01*
X+6908550Y+7183660D01*
X+6892675Y+7168420D01*
X+6892675Y+7153180D01*
X+6908550Y+7137940D01*
X+6956175Y+7137940D01*
X+6972050Y+7153180D01*
X+6972050Y+7168420D01*
X+6956175Y+7183660D01*
X+996000Y+1038000D02*
X+996000Y+22000D01*
X+2520000Y+1038000D02*
X+2520000Y+22000D01*
X+996000Y+22000D02*
X+2520000Y+22000D01*
X+2520000Y+1038000D02*
X+996000Y+1038000D01*
X+1631000Y+1109120D02*
X+1631000Y+1093880D01*
X+1646875Y+1078640D01*
X+1710375Y+1078640D01*
X+1726250Y+1093880D01*
X+1726250Y+1170080D01*
X+1853250Y+1109120D02*
X+1758000Y+1109120D01*
X+1821500Y+1170080D01*
X+1821500Y+1078640D01*
X+3206000Y+1038000D02*
X+3206000Y+22000D01*
X+4730000Y+1038000D02*
X+4730000Y+22000D01*
X+3206000Y+22000D02*
X+4730000Y+22000D01*
X+4730000Y+1038000D02*
X+3206000Y+1038000D01*
X+3841000Y+1109120D02*
X+3841000Y+1093880D01*
X+3856875Y+1078640D01*
X+3920375Y+1078640D01*
X+3936250Y+1093880D01*
X+3936250Y+1170080D01*
X+4063250Y+1170080D02*
X+3983875Y+1170080D01*
X+3983875Y+1139600D01*
X+4047375Y+1139600D01*
X+4063250Y+1124360D01*
X+4063250Y+1093880D01*
X+4047375Y+1078640D01*
X+3999750Y+1078640D01*
X+3983875Y+1093880D01*
X+5406000Y+1038000D02*
X+5406000Y+22000D01*
X+6930000Y+1038000D02*
X+6930000Y+22000D01*
X+5406000Y+22000D02*
X+6930000Y+22000D01*
X+6930000Y+1038000D02*
X+5406000Y+1038000D01*
X+5977500Y+1109120D02*
X+5977500Y+1093880D01*
X+5993375Y+1078640D01*
X+6056875Y+1078640D01*
X+6072750Y+1093880D01*
X+6072750Y+1170080D01*
X+6136250Y+1139600D02*
X+6168000Y+1170080D01*
X+6168000Y+1078640D01*
X+6231500Y+1093880D02*
X+6231500Y+1154840D01*
X+6247375Y+1170080D01*
X+6310875Y+1170080D01*
X+6326750Y+1154840D01*
X+6326750Y+1093880D01*
X+6310875Y+1078640D01*
X+6247375Y+1078640D01*
X+6231500Y+1093880D01*
X+6231500Y+1078640D02*
X+6326750Y+1170080D01*
D38*
X+4880000Y+6605000D02*
X+4880000Y+6575000D01*
X+5020000Y+6605000D02*
X+5020000Y+6575000D01*
D37*
X+5151920Y+6399500D02*
X+5060480Y+6399500D01*
X+5060480Y+6478875D01*
X+5075720Y+6494750D01*
X+5090960Y+6494750D01*
X+5106200Y+6478875D01*
X+5106200Y+6399500D01*
X+5106200Y+6478875D02*
X+5121440Y+6494750D01*
X+5151920Y+6494750D01*
X+5090960Y+6558250D02*
X+5060480Y+6590000D01*
X+5151920Y+6590000D01*
X+5136680Y+6653500D02*
X+5075720Y+6653500D01*
X+5060480Y+6669375D01*
X+5060480Y+6732875D01*
X+5075720Y+6748750D01*
X+5136680Y+6748750D01*
X+5151920Y+6732875D01*
X+5151920Y+6669375D01*
X+5136680Y+6653500D01*
X+5151920Y+6653500D02*
X+5060480Y+6748750D01*
D38*
X+4620000Y+6650000D02*
X+4620000Y+6730000D01*
D37*
X+4318250Y+6653320D02*
X+4302375Y+6638080D01*
X+4254750Y+6638080D01*
X+4223000Y+6668560D01*
X+4223000Y+6699040D01*
X+4254750Y+6729520D01*
X+4302375Y+6729520D01*
X+4318250Y+6714280D01*
X+4365875Y+6714280D02*
X+4381750Y+6729520D01*
X+4429375Y+6729520D01*
X+4445250Y+6714280D01*
X+4445250Y+6699040D01*
X+4429375Y+6683800D01*
X+4445250Y+6668560D01*
X+4445250Y+6653320D01*
X+4429375Y+6638080D01*
X+4381750Y+6638080D01*
X+4365875Y+6653320D01*
X+4397625Y+6683800D02*
X+4429375Y+6683800D01*
D38*
X+4620000Y+6450000D02*
X+4620000Y+6530000D01*
D37*
X+4308250Y+6463320D02*
X+4292375Y+6448080D01*
X+4244750Y+6448080D01*
X+4213000Y+6478560D01*
X+4213000Y+6509040D01*
X+4244750Y+6539520D01*
X+4292375Y+6539520D01*
X+4308250Y+6524280D01*
X+4435250Y+6539520D02*
X+4355875Y+6539520D01*
X+4355875Y+6509040D01*
X+4419375Y+6509040D01*
X+4435250Y+6493800D01*
X+4435250Y+6463320D01*
X+4419375Y+6448080D01*
X+4371750Y+6448080D01*
X+4355875Y+6463320D01*
X+9583000Y+5757000D02*
X+9837000Y+5757000D01*
X+9837000Y+6773000D01*
X+9583000Y+6773000D01*
X+9583000Y+5757000D01*
X+9938600Y+6074500D02*
X+9953840Y+6074500D01*
X+9969080Y+6090375D01*
X+9969080Y+6153875D01*
X+9953840Y+6169750D01*
X+9877640Y+6169750D01*
X+9908120Y+6233250D02*
X+9877640Y+6265000D01*
X+9969080Y+6265000D01*
X+9877640Y+6423750D02*
X+9877640Y+6344375D01*
X+9908120Y+6344375D01*
X+9908120Y+6407875D01*
X+9923360Y+6423750D01*
X+9953840Y+6423750D01*
X+9969080Y+6407875D01*
X+9969080Y+6360250D01*
X+9953840Y+6344375D01*
X+951000Y+1230000D02*
X+2591000Y+1230000D01*
X+2591000Y+3480000D01*
X+951000Y+3480000D01*
X+951000Y+1230000D01*
X+2723080Y+2164500D02*
X+2631640Y+2164500D01*
X+2631640Y+2243875D01*
X+2646880Y+2259750D01*
X+2662120Y+2259750D01*
X+2677360Y+2243875D01*
X+2677360Y+2164500D01*
X+2677360Y+2243875D02*
X+2692600Y+2259750D01*
X+2723080Y+2259750D01*
X+2631640Y+2291500D02*
X+2723080Y+2291500D01*
X+2723080Y+2386750D01*
X+2662120Y+2450250D02*
X+2631640Y+2482000D01*
X+2723080Y+2482000D01*
X+3171000Y+1230000D02*
X+4811000Y+1230000D01*
X+4811000Y+3480000D01*
X+3171000Y+3480000D01*
X+3171000Y+1230000D01*
X+4943080Y+2164500D02*
X+4851640Y+2164500D01*
X+4851640Y+2243875D01*
X+4866880Y+2259750D01*
X+4882120Y+2259750D01*
X+4897360Y+2243875D01*
X+4897360Y+2164500D01*
X+4897360Y+2243875D02*
X+4912600Y+2259750D01*
X+4943080Y+2259750D01*
X+4851640Y+2291500D02*
X+4943080Y+2291500D01*
X+4943080Y+2386750D01*
X+4866880Y+2434375D02*
X+4851640Y+2450250D01*
X+4851640Y+2497875D01*
X+4866880Y+2513750D01*
X+4882120Y+2513750D01*
X+4897360Y+2497875D01*
X+4897360Y+2450250D01*
X+4912600Y+2434375D01*
X+4943080Y+2434375D01*
X+4943080Y+2513750D01*
X+5361000Y+1230000D02*
X+7001000Y+1230000D01*
X+7001000Y+3480000D01*
X+5361000Y+3480000D01*
X+5361000Y+1230000D01*
X+7133080Y+2164500D02*
X+7041640Y+2164500D01*
X+7041640Y+2243875D01*
X+7056880Y+2259750D01*
X+7072120Y+2259750D01*
X+7087360Y+2243875D01*
X+7087360Y+2164500D01*
X+7087360Y+2243875D02*
X+7102600Y+2259750D01*
X+7133080Y+2259750D01*
X+7041640Y+2291500D02*
X+7133080Y+2291500D01*
X+7133080Y+2386750D01*
X+7056880Y+2434375D02*
X+7041640Y+2450250D01*
X+7041640Y+2497875D01*
X+7056880Y+2513750D01*
X+7072120Y+2513750D01*
X+7087360Y+2497875D01*
X+7102600Y+2513750D01*
X+7117840Y+2513750D01*
X+7133080Y+2497875D01*
X+7133080Y+2450250D01*
X+7117840Y+2434375D01*
X+7087360Y+2466125D02*
X+7087360Y+2497875D01*
X+7391000Y+1230000D02*
X+9031000Y+1230000D01*
X+9031000Y+3480000D01*
X+7391000Y+3480000D01*
X+7391000Y+1230000D01*
X+9163080Y+2164500D02*
X+9071640Y+2164500D01*
X+9071640Y+2243875D01*
X+9086880Y+2259750D01*
X+9102120Y+2259750D01*
X+9117360Y+2243875D01*
X+9117360Y+2164500D01*
X+9117360Y+2243875D02*
X+9132600Y+2259750D01*
X+9163080Y+2259750D01*
X+9071640Y+2291500D02*
X+9163080Y+2291500D01*
X+9163080Y+2386750D01*
X+9132600Y+2513750D02*
X+9132600Y+2418500D01*
X+9071640Y+2482000D01*
X+9163080Y+2482000D01*
X+9583000Y+3631000D02*
X+9837000Y+3631000D01*
X+9837000Y+5663000D01*
X+9583000Y+5663000D01*
X+9583000Y+3631000D01*
X+9938600Y+4456500D02*
X+9953840Y+4456500D01*
X+9969080Y+4472375D01*
X+9969080Y+4535875D01*
X+9953840Y+4551750D01*
X+9877640Y+4551750D01*
X+9908120Y+4615250D02*
X+9877640Y+4647000D01*
X+9969080Y+4647000D01*
X+9938600Y+4805750D02*
X+9938600Y+4710500D01*
X+9877640Y+4774000D01*
X+9969080Y+4774000D01*
X+9920000Y+5556000D02*
X+9920000Y+5476000D01*
X+9960000Y+5516000D02*
X+9880000Y+5516000D01*
X+2813000Y+5403000D02*
X+3829000Y+5403000D01*
X+3829000Y+5657000D01*
X+2813000Y+5657000D01*
X+2813000Y+5403000D01*
X+3884000Y+5498120D02*
X+3884000Y+5482880D01*
X+3899875Y+5467640D01*
X+3963375Y+5467640D01*
X+3979250Y+5482880D01*
X+3979250Y+5559080D01*
X+4026875Y+5559080D02*
X+4106250Y+5559080D01*
X+4106250Y+5543840D01*
X+4026875Y+5467640D01*
X+9920000Y+6616000D02*
X+9920000Y+6536000D01*
X+9960000Y+6576000D02*
X+9880000Y+6576000D01*
X+700000Y+7570000D02*
X+700000Y+7490000D01*
X+740000Y+7530000D02*
X+660000Y+7530000D01*
X+8229000Y+7303000D02*
X+8737000Y+7303000D01*
X+8737000Y+7557000D01*
X+8229000Y+7557000D01*
X+8229000Y+7303000D01*
X+8178200Y+7178540D02*
X+8178200Y+7254740D01*
X+8225825Y+7254740D01*
X+8235350Y+7242040D01*
X+8235350Y+7229340D01*
X+8225825Y+7216640D01*
X+8235350Y+7203940D01*
X+8235350Y+7191240D01*
X+8225825Y+7178540D01*
X+8178200Y+7178540D01*
X+8178200Y+7216640D02*
X+8225825Y+7216640D01*
X+8254400Y+7254740D02*
X+8254400Y+7191240D01*
X+8263925Y+7178540D01*
X+8302025Y+7178540D01*
X+8311550Y+7191240D01*
X+8311550Y+7254740D01*
X+8330600Y+7254740D02*
X+8387750Y+7254740D01*
X+8359175Y+7254740D02*
X+8359175Y+7178540D01*
X+8406800Y+7254740D02*
X+8463950Y+7254740D01*
X+8435375Y+7254740D02*
X+8435375Y+7178540D01*
X+8483000Y+7229340D02*
X+8502050Y+7254740D01*
X+8521100Y+7254740D01*
X+8540150Y+7229340D01*
X+8540150Y+7203940D01*
X+8521100Y+7178540D01*
X+8502050Y+7178540D01*
X+8483000Y+7203940D01*
X+8483000Y+7229340D01*
X+8559200Y+7178540D02*
X+8559200Y+7254740D01*
X+8616350Y+7178540D01*
X+8616350Y+7254740D01*
X+8644925Y+7216640D02*
X+8692550Y+7216640D01*
X+8730650Y+7229340D02*
X+8749700Y+7254740D01*
X+8749700Y+7178540D01*
X+293000Y+3935000D02*
X+547000Y+3935000D01*
X+547000Y+5205000D01*
X+293000Y+5205000D01*
X+293000Y+3935000D01*
X+648600Y+4443000D02*
X+663840Y+4443000D01*
X+679080Y+4458875D01*
X+679080Y+4522375D01*
X+663840Y+4538250D01*
X+587640Y+4538250D01*
X+602880Y+4665250D02*
X+587640Y+4649375D01*
X+587640Y+4601750D01*
X+602880Y+4585875D01*
X+663840Y+4585875D01*
X+679080Y+4601750D01*
X+679080Y+4649375D01*
X+663840Y+4665250D01*
X+648600Y+4665250D01*
X+633360Y+4649375D01*
X+633360Y+4585875D01*
X+9583000Y+2527000D02*
X+9837000Y+2527000D01*
X+9837000Y+3543000D01*
X+9583000Y+3543000D01*
X+9583000Y+2527000D01*
X+9877640Y+2908000D02*
X+9953840Y+2908000D01*
X+9969080Y+2923875D01*
X+9969080Y+2987375D01*
X+9953840Y+3003250D01*
X+9877640Y+3003250D01*
X+9892880Y+3050875D02*
X+9877640Y+3066750D01*
X+9877640Y+3114375D01*
X+9892880Y+3130250D01*
X+9908120Y+3130250D01*
X+9923360Y+3114375D01*
X+9938600Y+3130250D01*
X+9953840Y+3130250D01*
X+9969080Y+3114375D01*
X+9969080Y+3066750D01*
X+9953840Y+3050875D01*
X+9923360Y+3082625D02*
X+9923360Y+3114375D01*
X+9298420Y+3316340D02*
X+9298420Y+3247760D01*
X+9176500Y+3316340D02*
X+9176500Y+3245220D01*
X+9430500Y+3092820D02*
X+9339060Y+3092820D01*
X+9339060Y+3172195D01*
X+9354300Y+3188070D01*
X+9369540Y+3188070D01*
X+9384780Y+3172195D01*
X+9384780Y+3092820D01*
X+9384780Y+3172195D02*
X+9400020Y+3188070D01*
X+9430500Y+3188070D01*
X+9354300Y+3235695D02*
X+9339060Y+3251570D01*
X+9339060Y+3299195D01*
X+9354300Y+3315070D01*
X+9369540Y+3315070D01*
X+9384780Y+3299195D01*
X+9384780Y+3251570D01*
X+9400020Y+3235695D01*
X+9430500Y+3235695D01*
X+9430500Y+3315070D01*
X+9339060Y+3442070D02*
X+9339060Y+3362695D01*
X+9369540Y+3362695D01*
X+9369540Y+3426195D01*
X+9384780Y+3442070D01*
X+9415260Y+3442070D01*
X+9430500Y+3426195D01*
X+9430500Y+3378570D01*
X+9415260Y+3362695D01*
X+8809000Y+7303000D02*
X+9317000Y+7303000D01*
X+9317000Y+7557000D01*
X+8809000Y+7557000D01*
X+8809000Y+7303000D01*
X+8838200Y+7178540D02*
X+8838200Y+7254740D01*
X+8885825Y+7254740D01*
X+8895350Y+7242040D01*
X+8895350Y+7229340D01*
X+8885825Y+7216640D01*
X+8895350Y+7203940D01*
X+8895350Y+7191240D01*
X+8885825Y+7178540D01*
X+8838200Y+7178540D01*
X+8838200Y+7216640D02*
X+8885825Y+7216640D01*
X+8914400Y+7254740D02*
X+8914400Y+7191240D01*
X+8923925Y+7178540D01*
X+8962025Y+7178540D01*
X+8971550Y+7191240D01*
X+8971550Y+7254740D01*
X+8990600Y+7254740D02*
X+9047750Y+7254740D01*
X+9019175Y+7254740D02*
X+9019175Y+7178540D01*
X+9066800Y+7254740D02*
X+9123950Y+7254740D01*
X+9095375Y+7254740D02*
X+9095375Y+7178540D01*
X+9143000Y+7229340D02*
X+9162050Y+7254740D01*
X+9181100Y+7254740D01*
X+9200150Y+7229340D01*
X+9200150Y+7203940D01*
X+9181100Y+7178540D01*
X+9162050Y+7178540D01*
X+9143000Y+7203940D01*
X+9143000Y+7229340D01*
X+9219200Y+7178540D02*
X+9219200Y+7254740D01*
X+9276350Y+7178540D01*
X+9276350Y+7254740D01*
X+9304925Y+7216640D02*
X+9352550Y+7216640D01*
X+9381125Y+7242040D02*
X+9390650Y+7254740D01*
X+9419225Y+7254740D01*
X+9428750Y+7242040D01*
X+9428750Y+7229340D01*
X+9419225Y+7216640D01*
X+9390650Y+7216640D01*
X+9381125Y+7203940D01*
X+9381125Y+7178540D01*
X+9428750Y+7178540D01*
X+293000Y+579000D02*
X+547000Y+579000D01*
X+547000Y+1595000D01*
X+293000Y+1595000D01*
X+293000Y+579000D01*
X+648600Y+896500D02*
X+663840Y+896500D01*
X+679080Y+912375D01*
X+679080Y+975875D01*
X+663840Y+991750D01*
X+587640Y+991750D01*
X+618120Y+1055250D02*
X+587640Y+1087000D01*
X+679080Y+1087000D01*
X+618120Y+1182250D02*
X+587640Y+1214000D01*
X+679080Y+1214000D01*
X+293000Y+1699000D02*
X+547000Y+1699000D01*
X+547000Y+2715000D01*
X+293000Y+2715000D01*
X+293000Y+1699000D01*
X+648600Y+2016500D02*
X+663840Y+2016500D01*
X+679080Y+2032375D01*
X+679080Y+2095875D01*
X+663840Y+2111750D01*
X+587640Y+2111750D01*
X+618120Y+2175250D02*
X+587640Y+2207000D01*
X+679080Y+2207000D01*
X+602880Y+2286375D02*
X+587640Y+2302250D01*
X+587640Y+2349875D01*
X+602880Y+2365750D01*
X+618120Y+2365750D01*
X+633360Y+2349875D01*
X+633360Y+2302250D01*
X+648600Y+2286375D01*
X+679080Y+2286375D01*
X+679080Y+2365750D01*
X+293000Y+2815000D02*
X+547000Y+2815000D01*
X+547000Y+3831000D01*
X+293000Y+3831000D01*
X+293000Y+2815000D01*
X+648600Y+3132500D02*
X+663840Y+3132500D01*
X+679080Y+3148375D01*
X+679080Y+3211875D01*
X+663840Y+3227750D01*
X+587640Y+3227750D01*
X+618120Y+3291250D02*
X+587640Y+3323000D01*
X+679080Y+3323000D01*
X+602880Y+3481750D02*
X+587640Y+3465875D01*
X+587640Y+3418250D01*
X+602880Y+3402375D01*
X+663840Y+3402375D01*
X+679080Y+3418250D01*
X+679080Y+3465875D01*
X+663840Y+3481750D01*
X+648600Y+3481750D01*
X+633360Y+3465875D01*
X+633360Y+3402375D01*
X+2813000Y+7263000D02*
X+3829000Y+7263000D01*
X+3829000Y+7517000D01*
X+2813000Y+7517000D01*
X+2813000Y+7263000D01*
X+3140500Y+7128120D02*
X+3140500Y+7112880D01*
X+3156375Y+7097640D01*
X+3219875Y+7097640D01*
X+3235750Y+7112880D01*
X+3235750Y+7189080D01*
X+3299250Y+7158600D02*
X+3331000Y+7189080D01*
X+3331000Y+7097640D01*
X+3426250Y+7143360D02*
X+3410375Y+7158600D01*
X+3410375Y+7173840D01*
X+3426250Y+7189080D01*
X+3473875Y+7189080D01*
X+3489750Y+7173840D01*
X+3489750Y+7158600D01*
X+3473875Y+7143360D01*
X+3426250Y+7143360D01*
X+3410375Y+7128120D01*
X+3410375Y+7112880D01*
X+3426250Y+7097640D01*
X+3473875Y+7097640D01*
X+3489750Y+7112880D01*
X+3489750Y+7128120D01*
X+3473875Y+7143360D01*
X+9583000Y+575000D02*
X+9837000Y+575000D01*
X+9837000Y+1337000D01*
X+9583000Y+1337000D01*
X+9583000Y+575000D01*
X+9938600Y+765500D02*
X+9953840Y+765500D01*
X+9969080Y+781375D01*
X+9969080Y+844875D01*
X+9953840Y+860750D01*
X+9877640Y+860750D01*
X+9908120Y+924250D02*
X+9877640Y+956000D01*
X+9969080Y+956000D01*
X+9908120Y+1114750D02*
X+9923360Y+1098875D01*
X+9923360Y+1051250D01*
X+9908120Y+1035375D01*
X+9892880Y+1035375D01*
X+9877640Y+1051250D01*
X+9877640Y+1098875D01*
X+9892880Y+1114750D01*
X+9953840Y+1114750D01*
X+9969080Y+1098875D01*
X+9969080Y+1051250D01*
X+180000Y+5110000D02*
X+180000Y+5030000D01*
X+220000Y+5070000D02*
X+140000Y+5070000D01*
X+1480000Y+4180000D02*
X+1480000Y+4100000D01*
X+1520000Y+4140000D02*
X+1440000Y+4140000D01*
X+170000Y+3750000D02*
X+170000Y+3670000D01*
X+210000Y+3710000D02*
X+130000Y+3710000D01*
X+180000Y+2640000D02*
X+180000Y+2560000D01*
X+220000Y+2600000D02*
X+140000Y+2600000D01*
X+170000Y+1490000D02*
X+170000Y+1410000D01*
X+210000Y+1450000D02*
X+130000Y+1450000D01*
X+9930000Y+1360000D02*
X+9930000Y+1280000D01*
X+9970000Y+1320000D02*
X+9890000Y+1320000D01*
X+9910000Y+3466000D02*
X+9910000Y+3386000D01*
X+9950000Y+3426000D02*
X+9870000Y+3426000D01*
X+9583000Y+1453000D02*
X+9837000Y+1453000D01*
X+9837000Y+2469000D01*
X+9583000Y+2469000D01*
X+9583000Y+1453000D01*
X+9938600Y+1770500D02*
X+9953840Y+1770500D01*
X+9969080Y+1786375D01*
X+9969080Y+1849875D01*
X+9953840Y+1865750D01*
X+9877640Y+1865750D01*
X+9908120Y+1929250D02*
X+9877640Y+1961000D01*
X+9969080Y+1961000D01*
X+9877640Y+2040375D02*
X+9877640Y+2119750D01*
X+9892880Y+2119750D01*
X+9969080Y+2040375D01*
X+9910000Y+2360000D02*
X+9910000Y+2280000D01*
X+9950000Y+2320000D02*
X+9870000Y+2320000D01*
D39*
X+4362500Y+3690000D02*
X+4362457Y+3691039D01*
X+4362105Y+3693118D01*
X+4361368Y+3695197D01*
X+4360164Y+3697276D01*
X+4358323Y+3699326D01*
X+4356244Y+3700829D01*
X+4354165Y+3701786D01*
X+4352086Y+3702325D01*
X+4350007Y+3702500D01*
X+4350000Y+3702500D01*
X+4337500Y+3690000D02*
X+4337543Y+3691039D01*
X+4337895Y+3693118D01*
X+4338632Y+3695197D01*
X+4339836Y+3697276D01*
X+4341677Y+3699326D01*
X+4343756Y+3700829D01*
X+4345835Y+3701786D01*
X+4347914Y+3702325D01*
X+4349993Y+3702500D01*
X+4350000Y+3702500D01*
X+4337500Y+3690000D02*
X+4337543Y+3688961D01*
X+4337895Y+3686882D01*
X+4338632Y+3684803D01*
X+4339836Y+3682724D01*
X+4341677Y+3680674D01*
X+4343756Y+3679171D01*
X+4345835Y+3678214D01*
X+4347914Y+3677675D01*
X+4349993Y+3677500D01*
X+4350000Y+3677500D01*
X+4362500Y+3690000D02*
X+4362457Y+3688961D01*
X+4362105Y+3686882D01*
X+4361368Y+3684803D01*
X+4360164Y+3682724D01*
X+4358323Y+3680674D01*
X+4356244Y+3679171D01*
X+4354165Y+3678214D01*
X+4352086Y+3677675D01*
X+4350007Y+3677500D01*
X+4350000Y+3677500D01*
D38*
X+4285000Y+3705000D02*
X+4285000Y+3660000D01*
X+3725000Y+3660000D01*
X+3725000Y+3705000D01*
X+4285000Y+3995000D02*
X+4285000Y+4040000D01*
X+3725000Y+4040000D01*
X+3725000Y+3995000D01*
D37*
X+3884250Y+3528080D02*
X+3884250Y+3619520D01*
X+3947750Y+3619520D01*
X+3979500Y+3589040D01*
X+3979500Y+3558560D01*
X+3947750Y+3528080D01*
X+3884250Y+3528080D01*
X+4027125Y+3604280D02*
X+4043000Y+3619520D01*
X+4090625Y+3619520D01*
X+4106500Y+3604280D01*
X+4106500Y+3589040D01*
X+4090625Y+3573800D01*
X+4043000Y+3573800D01*
X+4027125Y+3558560D01*
X+4027125Y+3528080D01*
X+4106500Y+3528080D01*
D39*
X+6542500Y+3690000D02*
X+6542457Y+3691039D01*
X+6542105Y+3693118D01*
X+6541368Y+3695197D01*
X+6540164Y+3697276D01*
X+6538323Y+3699326D01*
X+6536244Y+3700829D01*
X+6534165Y+3701786D01*
X+6532086Y+3702325D01*
X+6530007Y+3702500D01*
X+6530000Y+3702500D01*
X+6517500Y+3690000D02*
X+6517543Y+3691039D01*
X+6517895Y+3693118D01*
X+6518632Y+3695197D01*
X+6519836Y+3697276D01*
X+6521677Y+3699326D01*
X+6523756Y+3700829D01*
X+6525835Y+3701786D01*
X+6527914Y+3702325D01*
X+6529993Y+3702500D01*
X+6530000Y+3702500D01*
X+6517500Y+3690000D02*
X+6517543Y+3688961D01*
X+6517895Y+3686882D01*
X+6518632Y+3684803D01*
X+6519836Y+3682724D01*
X+6521677Y+3680674D01*
X+6523756Y+3679171D01*
X+6525835Y+3678214D01*
X+6527914Y+3677675D01*
X+6529993Y+3677500D01*
X+6530000Y+3677500D01*
X+6542500Y+3690000D02*
X+6542457Y+3688961D01*
X+6542105Y+3686882D01*
X+6541368Y+3684803D01*
X+6540164Y+3682724D01*
X+6538323Y+3680674D01*
X+6536244Y+3679171D01*
X+6534165Y+3678214D01*
X+6532086Y+3677675D01*
X+6530007Y+3677500D01*
X+6530000Y+3677500D01*
D38*
X+6465000Y+3705000D02*
X+6465000Y+3660000D01*
X+5905000Y+3660000D01*
X+5905000Y+3705000D01*
X+6465000Y+3995000D02*
X+6465000Y+4040000D01*
X+5905000Y+4040000D01*
X+5905000Y+3995000D01*
D37*
X+6064250Y+3528080D02*
X+6064250Y+3619520D01*
X+6127750Y+3619520D01*
X+6159500Y+3589040D01*
X+6159500Y+3558560D01*
X+6127750Y+3528080D01*
X+6064250Y+3528080D01*
X+6207125Y+3604280D02*
X+6223000Y+3619520D01*
X+6270625Y+3619520D01*
X+6286500Y+3604280D01*
X+6286500Y+3589040D01*
X+6270625Y+3573800D01*
X+6286500Y+3558560D01*
X+6286500Y+3543320D01*
X+6270625Y+3528080D01*
X+6223000Y+3528080D01*
X+6207125Y+3543320D01*
X+6238875Y+3573800D02*
X+6270625Y+3573800D01*
D39*
X+8542500Y+3690000D02*
X+8542457Y+3691039D01*
X+8542105Y+3693118D01*
X+8541368Y+3695197D01*
X+8540164Y+3697276D01*
X+8538323Y+3699326D01*
X+8536244Y+3700829D01*
X+8534165Y+3701786D01*
X+8532086Y+3702325D01*
X+8530007Y+3702500D01*
X+8530000Y+3702500D01*
X+8517500Y+3690000D02*
X+8517543Y+3691039D01*
X+8517895Y+3693118D01*
X+8518632Y+3695197D01*
X+8519836Y+3697276D01*
X+8521677Y+3699326D01*
X+8523756Y+3700829D01*
X+8525835Y+3701786D01*
X+8527914Y+3702325D01*
X+8529993Y+3702500D01*
X+8530000Y+3702500D01*
X+8517500Y+3690000D02*
X+8517543Y+3688961D01*
X+8517895Y+3686882D01*
X+8518632Y+3684803D01*
X+8519836Y+3682724D01*
X+8521677Y+3680674D01*
X+8523756Y+3679171D01*
X+8525835Y+3678214D01*
X+8527914Y+3677675D01*
X+8529993Y+3677500D01*
X+8530000Y+3677500D01*
X+8542500Y+3690000D02*
X+8542457Y+3688961D01*
X+8542105Y+3686882D01*
X+8541368Y+3684803D01*
X+8540164Y+3682724D01*
X+8538323Y+3680674D01*
X+8536244Y+3679171D01*
X+8534165Y+3678214D01*
X+8532086Y+3677675D01*
X+8530007Y+3677500D01*
X+8530000Y+3677500D01*
D38*
X+8465000Y+3705000D02*
X+8465000Y+3660000D01*
X+7905000Y+3660000D01*
X+7905000Y+3705000D01*
X+8465000Y+3995000D02*
X+8465000Y+4040000D01*
X+7905000Y+4040000D01*
X+7905000Y+3995000D01*
D37*
X+8064250Y+3528080D02*
X+8064250Y+3619520D01*
X+8127750Y+3619520D01*
X+8159500Y+3589040D01*
X+8159500Y+3558560D01*
X+8127750Y+3528080D01*
X+8064250Y+3528080D01*
X+8223000Y+3573800D02*
X+8207125Y+3589040D01*
X+8207125Y+3604280D01*
X+8223000Y+3619520D01*
X+8270625Y+3619520D01*
X+8286500Y+3604280D01*
X+8286500Y+3589040D01*
X+8270625Y+3573800D01*
X+8223000Y+3573800D01*
X+8207125Y+3558560D01*
X+8207125Y+3543320D01*
X+8223000Y+3528080D01*
X+8270625Y+3528080D01*
X+8286500Y+3543320D01*
X+8286500Y+3558560D01*
X+8270625Y+3573800D01*
D39*
X+2152500Y+3670000D02*
X+2152457Y+3671039D01*
X+2152105Y+3673118D01*
X+2151368Y+3675197D01*
X+2150164Y+3677276D01*
X+2148323Y+3679326D01*
X+2146244Y+3680829D01*
X+2144165Y+3681786D01*
X+2142086Y+3682325D01*
X+2140007Y+3682500D01*
X+2140000Y+3682500D01*
X+2127500Y+3670000D02*
X+2127543Y+3671039D01*
X+2127895Y+3673118D01*
X+2128632Y+3675197D01*
X+2129836Y+3677276D01*
X+2131677Y+3679326D01*
X+2133756Y+3680829D01*
X+2135835Y+3681786D01*
X+2137914Y+3682325D01*
X+2139993Y+3682500D01*
X+2140000Y+3682500D01*
X+2127500Y+3670000D02*
X+2127543Y+3668961D01*
X+2127895Y+3666882D01*
X+2128632Y+3664803D01*
X+2129836Y+3662724D01*
X+2131677Y+3660674D01*
X+2133756Y+3659171D01*
X+2135835Y+3658214D01*
X+2137914Y+3657675D01*
X+2139993Y+3657500D01*
X+2140000Y+3657500D01*
X+2152500Y+3670000D02*
X+2152457Y+3668961D01*
X+2152105Y+3666882D01*
X+2151368Y+3664803D01*
X+2150164Y+3662724D01*
X+2148323Y+3660674D01*
X+2146244Y+3659171D01*
X+2144165Y+3658214D01*
X+2142086Y+3657675D01*
X+2140007Y+3657500D01*
X+2140000Y+3657500D01*
D38*
X+2075000Y+3685000D02*
X+2075000Y+3640000D01*
X+1515000Y+3640000D01*
X+1515000Y+3685000D01*
X+2075000Y+3975000D02*
X+2075000Y+4020000D01*
X+1515000Y+4020000D01*
X+1515000Y+3975000D01*
D37*
X+1610750Y+3508080D02*
X+1610750Y+3599520D01*
X+1674250Y+3599520D01*
X+1706000Y+3569040D01*
X+1706000Y+3538560D01*
X+1674250Y+3508080D01*
X+1610750Y+3508080D01*
X+1769500Y+3569040D02*
X+1801250Y+3599520D01*
X+1801250Y+3508080D01*
X+1864750Y+3523320D02*
X+1864750Y+3584280D01*
X+1880625Y+3599520D01*
X+1944125Y+3599520D01*
X+1960000Y+3584280D01*
X+1960000Y+3523320D01*
X+1944125Y+3508080D01*
X+1880625Y+3508080D01*
X+1864750Y+3523320D01*
X+1864750Y+3508080D02*
X+1960000Y+3599520D01*
D39*
X+3197500Y+4030000D02*
X+3197457Y+4031039D01*
X+3197105Y+4033118D01*
X+3196368Y+4035197D01*
X+3195164Y+4037276D01*
X+3193323Y+4039326D01*
X+3191244Y+4040829D01*
X+3189165Y+4041786D01*
X+3187086Y+4042325D01*
X+3185007Y+4042500D01*
X+3185000Y+4042500D01*
X+3172500Y+4030000D02*
X+3172543Y+4031039D01*
X+3172895Y+4033118D01*
X+3173632Y+4035197D01*
X+3174836Y+4037276D01*
X+3176677Y+4039326D01*
X+3178756Y+4040829D01*
X+3180835Y+4041786D01*
X+3182914Y+4042325D01*
X+3184993Y+4042500D01*
X+3185000Y+4042500D01*
X+3172500Y+4030000D02*
X+3172543Y+4028961D01*
X+3172895Y+4026882D01*
X+3173632Y+4024803D01*
X+3174836Y+4022724D01*
X+3176677Y+4020674D01*
X+3178756Y+4019171D01*
X+3180835Y+4018214D01*
X+3182914Y+4017675D01*
X+3184993Y+4017500D01*
X+3185000Y+4017500D01*
X+3197500Y+4030000D02*
X+3197457Y+4028961D01*
X+3197105Y+4026882D01*
X+3196368Y+4024803D01*
X+3195164Y+4022724D01*
X+3193323Y+4020674D01*
X+3191244Y+4019171D01*
X+3189165Y+4018214D01*
X+3187086Y+4017675D01*
X+3185007Y+4017500D01*
X+3185000Y+4017500D01*
D38*
X+3295000Y+3695000D02*
X+3355000Y+3695000D01*
X+3355000Y+4005000D01*
X+3295000Y+4005000D01*
X+3295000Y+3695000D01*
D37*
X+3198000Y+4146440D02*
X+3229750Y+4176920D01*
X+3261500Y+4176920D01*
X+3293250Y+4146440D01*
X+3293250Y+4115960D01*
X+3261500Y+4085480D01*
X+3229750Y+4085480D01*
X+3198000Y+4115960D01*
X+3198000Y+4146440D01*
X+3261500Y+4115960D02*
X+3293250Y+4085480D01*
X+3356750Y+4146440D02*
X+3388500Y+4176920D01*
X+3388500Y+4085480D01*
D39*
X+5357500Y+4030000D02*
X+5357457Y+4031039D01*
X+5357105Y+4033118D01*
X+5356368Y+4035197D01*
X+5355164Y+4037276D01*
X+5353323Y+4039326D01*
X+5351244Y+4040829D01*
X+5349165Y+4041786D01*
X+5347086Y+4042325D01*
X+5345007Y+4042500D01*
X+5345000Y+4042500D01*
X+5332500Y+4030000D02*
X+5332543Y+4031039D01*
X+5332895Y+4033118D01*
X+5333632Y+4035197D01*
X+5334836Y+4037276D01*
X+5336677Y+4039326D01*
X+5338756Y+4040829D01*
X+5340835Y+4041786D01*
X+5342914Y+4042325D01*
X+5344993Y+4042500D01*
X+5345000Y+4042500D01*
X+5332500Y+4030000D02*
X+5332543Y+4028961D01*
X+5332895Y+4026882D01*
X+5333632Y+4024803D01*
X+5334836Y+4022724D01*
X+5336677Y+4020674D01*
X+5338756Y+4019171D01*
X+5340835Y+4018214D01*
X+5342914Y+4017675D01*
X+5344993Y+4017500D01*
X+5345000Y+4017500D01*
X+5357500Y+4030000D02*
X+5357457Y+4028961D01*
X+5357105Y+4026882D01*
X+5356368Y+4024803D01*
X+5355164Y+4022724D01*
X+5353323Y+4020674D01*
X+5351244Y+4019171D01*
X+5349165Y+4018214D01*
X+5347086Y+4017675D01*
X+5345007Y+4017500D01*
X+5345000Y+4017500D01*
D38*
X+5455000Y+3695000D02*
X+5515000Y+3695000D01*
X+5515000Y+4005000D01*
X+5455000Y+4005000D01*
X+5455000Y+3695000D01*
D37*
X+5358000Y+4146440D02*
X+5389750Y+4176920D01*
X+5421500Y+4176920D01*
X+5453250Y+4146440D01*
X+5453250Y+4115960D01*
X+5421500Y+4085480D01*
X+5389750Y+4085480D01*
X+5358000Y+4115960D01*
X+5358000Y+4146440D01*
X+5421500Y+4115960D02*
X+5453250Y+4085480D01*
X+5500875Y+4161680D02*
X+5516750Y+4176920D01*
X+5564375Y+4176920D01*
X+5580250Y+4161680D01*
X+5580250Y+4146440D01*
X+5564375Y+4131200D01*
X+5516750Y+4131200D01*
X+5500875Y+4115960D01*
X+5500875Y+4085480D01*
X+5580250Y+4085480D01*
D39*
X+7387500Y+4030000D02*
X+7387457Y+4031039D01*
X+7387105Y+4033118D01*
X+7386368Y+4035197D01*
X+7385164Y+4037276D01*
X+7383323Y+4039326D01*
X+7381244Y+4040829D01*
X+7379165Y+4041786D01*
X+7377086Y+4042325D01*
X+7375007Y+4042500D01*
X+7375000Y+4042500D01*
X+7362500Y+4030000D02*
X+7362543Y+4031039D01*
X+7362895Y+4033118D01*
X+7363632Y+4035197D01*
X+7364836Y+4037276D01*
X+7366677Y+4039326D01*
X+7368756Y+4040829D01*
X+7370835Y+4041786D01*
X+7372914Y+4042325D01*
X+7374993Y+4042500D01*
X+7375000Y+4042500D01*
X+7362500Y+4030000D02*
X+7362543Y+4028961D01*
X+7362895Y+4026882D01*
X+7363632Y+4024803D01*
X+7364836Y+4022724D01*
X+7366677Y+4020674D01*
X+7368756Y+4019171D01*
X+7370835Y+4018214D01*
X+7372914Y+4017675D01*
X+7374993Y+4017500D01*
X+7375000Y+4017500D01*
X+7387500Y+4030000D02*
X+7387457Y+4028961D01*
X+7387105Y+4026882D01*
X+7386368Y+4024803D01*
X+7385164Y+4022724D01*
X+7383323Y+4020674D01*
X+7381244Y+4019171D01*
X+7379165Y+4018214D01*
X+7377086Y+4017675D01*
X+7375007Y+4017500D01*
X+7375000Y+4017500D01*
D38*
X+7485000Y+3695000D02*
X+7545000Y+3695000D01*
X+7545000Y+4005000D01*
X+7485000Y+4005000D01*
X+7485000Y+3695000D01*
D37*
X+7388000Y+4146440D02*
X+7419750Y+4176920D01*
X+7451500Y+4176920D01*
X+7483250Y+4146440D01*
X+7483250Y+4115960D01*
X+7451500Y+4085480D01*
X+7419750Y+4085480D01*
X+7388000Y+4115960D01*
X+7388000Y+4146440D01*
X+7451500Y+4115960D02*
X+7483250Y+4085480D01*
X+7530875Y+4161680D02*
X+7546750Y+4176920D01*
X+7594375Y+4176920D01*
X+7610250Y+4161680D01*
X+7610250Y+4146440D01*
X+7594375Y+4131200D01*
X+7610250Y+4115960D01*
X+7610250Y+4100720D01*
X+7594375Y+4085480D01*
X+7546750Y+4085480D01*
X+7530875Y+4100720D01*
X+7562625Y+4131200D02*
X+7594375Y+4131200D01*
D39*
X+1017500Y+4010000D02*
X+1017457Y+4011039D01*
X+1017105Y+4013118D01*
X+1016368Y+4015197D01*
X+1015164Y+4017276D01*
X+1013323Y+4019326D01*
X+1011244Y+4020829D01*
X+1009165Y+4021786D01*
X+1007086Y+4022325D01*
X+1005007Y+4022500D01*
X+1005000Y+4022500D01*
X+992500Y+4010000D02*
X+992543Y+4011039D01*
X+992895Y+4013118D01*
X+993632Y+4015197D01*
X+994836Y+4017276D01*
X+996677Y+4019326D01*
X+998756Y+4020829D01*
X+1000835Y+4021786D01*
X+1002914Y+4022325D01*
X+1004993Y+4022500D01*
X+1005000Y+4022500D01*
X+992500Y+4010000D02*
X+992543Y+4008961D01*
X+992895Y+4006882D01*
X+993632Y+4004803D01*
X+994836Y+4002724D01*
X+996677Y+4000674D01*
X+998756Y+3999171D01*
X+1000835Y+3998214D01*
X+1002914Y+3997675D01*
X+1004993Y+3997500D01*
X+1005000Y+3997500D01*
X+1017500Y+4010000D02*
X+1017457Y+4008961D01*
X+1017105Y+4006882D01*
X+1016368Y+4004803D01*
X+1015164Y+4002724D01*
X+1013323Y+4000674D01*
X+1011244Y+3999171D01*
X+1009165Y+3998214D01*
X+1007086Y+3997675D01*
X+1005007Y+3997500D01*
X+1005000Y+3997500D01*
D38*
X+1115000Y+3675000D02*
X+1175000Y+3675000D01*
X+1175000Y+3985000D01*
X+1115000Y+3985000D01*
X+1115000Y+3675000D01*
D37*
X+1018000Y+4126440D02*
X+1049750Y+4156920D01*
X+1081500Y+4156920D01*
X+1113250Y+4126440D01*
X+1113250Y+4095960D01*
X+1081500Y+4065480D01*
X+1049750Y+4065480D01*
X+1018000Y+4095960D01*
X+1018000Y+4126440D01*
X+1081500Y+4095960D02*
X+1113250Y+4065480D01*
X+1240250Y+4156920D02*
X+1160875Y+4156920D01*
X+1160875Y+4126440D01*
X+1224375Y+4126440D01*
X+1240250Y+4111200D01*
X+1240250Y+4080720D01*
X+1224375Y+4065480D01*
X+1176750Y+4065480D01*
X+1160875Y+4080720D01*
D38*
X+3095000Y+4260000D02*
X+3125000Y+4260000D01*
X+3095000Y+4400000D02*
X+3125000Y+4400000D01*
D37*
X+2983000Y+4440480D02*
X+2983000Y+4531920D01*
X+3062375Y+4531920D01*
X+3078250Y+4516680D01*
X+3078250Y+4501440D01*
X+3062375Y+4486200D01*
X+2983000Y+4486200D01*
X+3062375Y+4486200D02*
X+3078250Y+4470960D01*
X+3078250Y+4440480D01*
X+3141750Y+4501440D02*
X+3173500Y+4531920D01*
X+3173500Y+4440480D01*
D38*
X+5245000Y+4260000D02*
X+5275000Y+4260000D01*
X+5245000Y+4400000D02*
X+5275000Y+4400000D01*
D37*
X+5133000Y+4440480D02*
X+5133000Y+4531920D01*
X+5212375Y+4531920D01*
X+5228250Y+4516680D01*
X+5228250Y+4501440D01*
X+5212375Y+4486200D01*
X+5133000Y+4486200D01*
X+5212375Y+4486200D02*
X+5228250Y+4470960D01*
X+5228250Y+4440480D01*
X+5275875Y+4516680D02*
X+5291750Y+4531920D01*
X+5339375Y+4531920D01*
X+5355250Y+4516680D01*
X+5355250Y+4501440D01*
X+5339375Y+4486200D01*
X+5291750Y+4486200D01*
X+5275875Y+4470960D01*
X+5275875Y+4440480D01*
X+5355250Y+4440480D01*
D38*
X+7285000Y+4290000D02*
X+7315000Y+4290000D01*
X+7285000Y+4430000D02*
X+7315000Y+4430000D01*
D37*
X+7173000Y+4470480D02*
X+7173000Y+4561920D01*
X+7252375Y+4561920D01*
X+7268250Y+4546680D01*
X+7268250Y+4531440D01*
X+7252375Y+4516200D01*
X+7173000Y+4516200D01*
X+7252375Y+4516200D02*
X+7268250Y+4500960D01*
X+7268250Y+4470480D01*
X+7331750Y+4516200D02*
X+7315875Y+4531440D01*
X+7315875Y+4546680D01*
X+7331750Y+4561920D01*
X+7379375Y+4561920D01*
X+7395250Y+4546680D01*
X+7395250Y+4531440D01*
X+7379375Y+4516200D01*
X+7331750Y+4516200D01*
X+7315875Y+4500960D01*
X+7315875Y+4485720D01*
X+7331750Y+4470480D01*
X+7379375Y+4470480D01*
X+7395250Y+4485720D01*
X+7395250Y+4500960D01*
X+7379375Y+4516200D01*
D38*
X+915000Y+4160000D02*
X+945000Y+4160000D01*
X+915000Y+4300000D02*
X+945000Y+4300000D01*
D37*
X+739500Y+4340480D02*
X+739500Y+4431920D01*
X+818875Y+4431920D01*
X+834750Y+4416680D01*
X+834750Y+4401440D01*
X+818875Y+4386200D01*
X+739500Y+4386200D01*
X+818875Y+4386200D02*
X+834750Y+4370960D01*
X+834750Y+4340480D01*
X+898250Y+4401440D02*
X+930000Y+4431920D01*
X+930000Y+4340480D01*
X+1088750Y+4431920D02*
X+1009375Y+4431920D01*
X+1009375Y+4401440D01*
X+1072875Y+4401440D01*
X+1088750Y+4386200D01*
X+1088750Y+4355720D01*
X+1072875Y+4340480D01*
X+1025250Y+4340480D01*
X+1009375Y+4355720D01*
X+7619000Y+7303000D02*
X+8127000Y+7303000D01*
X+8127000Y+7557000D01*
X+7619000Y+7557000D01*
X+7619000Y+7303000D01*
X+7630600Y+7178540D02*
X+7630600Y+7254740D01*
X+7678225Y+7254740D01*
X+7687750Y+7242040D01*
X+7687750Y+7229340D01*
X+7678225Y+7216640D01*
X+7687750Y+7203940D01*
X+7687750Y+7191240D01*
X+7678225Y+7178540D01*
X+7630600Y+7178540D01*
X+7630600Y+7216640D02*
X+7678225Y+7216640D01*
X+7706800Y+7229340D02*
X+7725850Y+7254740D01*
X+7744900Y+7254740D01*
X+7763950Y+7229340D01*
X+7763950Y+7203940D01*
X+7744900Y+7178540D01*
X+7725850Y+7178540D01*
X+7706800Y+7203940D01*
X+7706800Y+7229340D01*
X+7783000Y+7229340D02*
X+7802050Y+7254740D01*
X+7821100Y+7254740D01*
X+7840150Y+7229340D01*
X+7840150Y+7203940D01*
X+7821100Y+7178540D01*
X+7802050Y+7178540D01*
X+7783000Y+7203940D01*
X+7783000Y+7229340D01*
X+7859200Y+7254740D02*
X+7916350Y+7254740D01*
X+7887775Y+7254740D02*
X+7887775Y+7178540D01*
D38*
X+1381994Y+6956994D02*
X+1381959Y+6957825D01*
X+1381678Y+6959488D01*
X+1381088Y+6961151D01*
X+1380125Y+6962814D01*
X+1378651Y+6964454D01*
X+1376988Y+6965654D01*
X+1375325Y+6966419D01*
X+1373662Y+6966849D01*
X+1372000Y+6966988D01*
X+1362006Y+6956994D02*
X+1362041Y+6957825D01*
X+1362322Y+6959488D01*
X+1362912Y+6961151D01*
X+1363875Y+6962814D01*
X+1365349Y+6964454D01*
X+1367012Y+6965654D01*
X+1368675Y+6966419D01*
X+1370338Y+6966849D01*
X+1372000Y+6966988D01*
X+1362006Y+6956994D02*
X+1362041Y+6956163D01*
X+1362322Y+6954500D01*
X+1362912Y+6952837D01*
X+1363875Y+6951174D01*
X+1365349Y+6949534D01*
X+1367012Y+6948334D01*
X+1368675Y+6947569D01*
X+1370338Y+6947139D01*
X+1372000Y+6947000D01*
X+1381994Y+6956994D02*
X+1381959Y+6956163D01*
X+1381678Y+6954500D01*
X+1381088Y+6952837D01*
X+1380125Y+6951174D01*
X+1378651Y+6949534D01*
X+1376988Y+6948334D01*
X+1375325Y+6947569D01*
X+1373662Y+6947139D01*
X+1372000Y+6947000D01*
D40*
X+1320000Y+7040000D02*
X+1320000Y+7114000D01*
X+1320000Y+7266000D02*
X+1320000Y+7340000D01*
X+1620000Y+7040000D02*
X+1620000Y+7114000D01*
X+1620000Y+7266000D02*
X+1620000Y+7340000D01*
D37*
X+1490450Y+6937970D02*
X+1490450Y+6861770D01*
X+1506325Y+6846530D01*
X+1569825Y+6846530D01*
X+1585700Y+6861770D01*
X+1585700Y+6937970D01*
X+1649200Y+6907490D02*
X+1680950Y+6937970D01*
X+1680950Y+6846530D01*
X+993660Y+6736180D02*
X+993660Y+6583780D01*
X+846340Y+6733640D02*
X+846340Y+6583780D01*
X+950500Y+6270770D02*
X+965740Y+6254895D01*
X+965740Y+6207270D01*
X+935260Y+6175520D01*
X+904780Y+6175520D01*
X+874300Y+6207270D01*
X+874300Y+6254895D01*
X+889540Y+6270770D01*
X+904780Y+6334270D02*
X+874300Y+6366020D01*
X+965740Y+6366020D01*
D38*
X+2045000Y+6680000D02*
X+2075000Y+6680000D01*
X+2045000Y+6820000D02*
X+2075000Y+6820000D01*
D37*
X+2243000Y+6700480D02*
X+2243000Y+6791920D01*
X+2322375Y+6791920D01*
X+2338250Y+6776680D01*
X+2338250Y+6761440D01*
X+2322375Y+6746200D01*
X+2243000Y+6746200D01*
X+2322375Y+6746200D02*
X+2338250Y+6730960D01*
X+2338250Y+6700480D01*
X+2385875Y+6776680D02*
X+2401750Y+6791920D01*
X+2449375Y+6791920D01*
X+2465250Y+6776680D01*
X+2465250Y+6761440D01*
X+2449375Y+6746200D01*
X+2465250Y+6730960D01*
X+2465250Y+6715720D01*
X+2449375Y+6700480D01*
X+2401750Y+6700480D01*
X+2385875Y+6715720D01*
X+2417625Y+6746200D02*
X+2449375Y+6746200D01*
X+2096340Y+7133820D02*
X+2096340Y+7286220D01*
X+2243660Y+7136360D02*
X+2243660Y+7286220D01*
X+2415700Y+7150480D02*
X+2324260Y+7150480D01*
X+2324260Y+7213980D01*
X+2354740Y+7245730D01*
X+2385220Y+7245730D01*
X+2415700Y+7213980D01*
X+2415700Y+7150480D01*
X+2354740Y+7309230D02*
X+2324260Y+7340980D01*
X+2415700Y+7340980D01*
X+1866340Y+7133820D02*
X+1866340Y+7286220D01*
X+2013660Y+7136360D02*
X+2013660Y+7286220D01*
X+1800460Y+7215730D02*
X+1815700Y+7199855D01*
X+1815700Y+7152230D01*
X+1785220Y+7120480D01*
X+1754740Y+7120480D01*
X+1724260Y+7152230D01*
X+1724260Y+7199855D01*
X+1739500Y+7215730D01*
X+1785220Y+7342730D02*
X+1785220Y+7247480D01*
X+1724260Y+7310980D01*
X+1815700Y+7310980D01*
X+1233660Y+6736180D02*
X+1233660Y+6583780D01*
X+1086340Y+6733640D02*
X+1086340Y+6583780D01*
X+1190500Y+6137270D02*
X+1205740Y+6121395D01*
X+1205740Y+6073770D01*
X+1175260Y+6042020D01*
X+1144780Y+6042020D01*
X+1114300Y+6073770D01*
X+1114300Y+6121395D01*
X+1129540Y+6137270D01*
X+1129540Y+6184895D02*
X+1114300Y+6200770D01*
X+1114300Y+6248395D01*
X+1129540Y+6264270D01*
X+1144780Y+6264270D01*
X+1160020Y+6248395D01*
X+1175260Y+6264270D01*
X+1190500Y+6264270D01*
X+1205740Y+6248395D01*
X+1205740Y+6200770D01*
X+1190500Y+6184895D01*
X+1160020Y+6216645D02*
X+1160020Y+6248395D01*
X+1114300Y+6311895D02*
X+1114300Y+6391270D01*
X+1129540Y+6391270D01*
X+1205740Y+6311895D01*
X+4573000Y+7293000D02*
X+5081000Y+7293000D01*
X+5081000Y+7547000D01*
X+4573000Y+7547000D01*
X+4573000Y+7293000D01*
X+4290000Y+7388120D02*
X+4290000Y+7372880D01*
X+4305875Y+7357640D01*
X+4369375Y+7357640D01*
X+4385250Y+7372880D01*
X+4385250Y+7449080D01*
X+4448750Y+7418600D02*
X+4480500Y+7449080D01*
X+4480500Y+7357640D01*
X+103000Y+5539000D02*
X+357000Y+5539000D01*
X+357000Y+6047000D01*
X+103000Y+6047000D01*
X+103000Y+5539000D01*
X+458600Y+5666000D02*
X+473840Y+5666000D01*
X+489080Y+5681875D01*
X+489080Y+5745375D01*
X+473840Y+5761250D01*
X+397640Y+5761250D01*
X+412880Y+5808875D02*
X+397640Y+5824750D01*
X+397640Y+5872375D01*
X+412880Y+5888250D01*
X+428120Y+5888250D01*
X+443360Y+5872375D01*
X+458600Y+5888250D01*
X+473840Y+5888250D01*
X+489080Y+5872375D01*
X+489080Y+5824750D01*
X+473840Y+5808875D01*
X+443360Y+5840625D02*
X+443360Y+5872375D01*
X+764901Y+6860000D02*
X+764901Y+6780000D01*
X+804901Y+6820000D02*
X+724901Y+6820000D01*
X+1302469Y+6854638D02*
X+1302469Y+6774638D01*
X+1342469Y+6814638D02*
X+1262469Y+6814638D01*
X+1800000Y+7070000D02*
X+1800000Y+6990000D01*
X+1840000Y+7030000D02*
X+1760000Y+7030000D01*
D41*
X-52000Y+7013000D02*
X+30000Y+7013000D01*
X+30000Y+7013000D01*
X-52000Y+7013000D01*
X-52000Y+7013000D01*
X-52000Y+6227000D02*
X-52000Y+6227000D01*
X-52000Y+7013000D01*
X-52000Y+7013000D01*
X-52000Y+6227000D01*
X+30000Y+6227000D01*
X+30000Y+6227000D01*
X-52000Y+6227000D01*
X-52000Y+6227000D01*
D38*
X+700000Y+6760000D02*
X+695000Y+6755000D01*
X+700000Y+6750000D01*
X+705000Y+6755000D01*
X+700000Y+6760000D01*
D37*
X+806440Y+6493000D02*
X+821680Y+6493000D01*
X+836920Y+6508875D01*
X+836920Y+6572375D01*
X+821680Y+6588250D01*
X+745480Y+6588250D01*
X+791200Y+6651750D02*
X+775960Y+6635875D01*
X+760720Y+6635875D01*
X+745480Y+6651750D01*
X+745480Y+6699375D01*
X+760720Y+6715250D01*
X+775960Y+6715250D01*
X+791200Y+6699375D01*
X+791200Y+6651750D01*
X+806440Y+6635875D01*
X+821680Y+6635875D01*
X+836920Y+6651750D01*
X+836920Y+6699375D01*
X+821680Y+6715250D01*
X+806440Y+6715250D01*
X+791200Y+6699375D01*
X+430000Y+6050000D02*
X+430000Y+5970000D01*
X+470000Y+6010000D02*
X+390000Y+6010000D01*
M02*
