G04 PROTEUS GERBER X2 FILE*
%TF.GenerationSoftware,Labcenter,Proteus,8.9-SP0-Build27865*%
%TF.CreationDate,2021-01-11T14:01:32+00:00*%
%TF.FileFunction,Plated,1,2,PTH*%
%TF.FilePolarity,Positive*%
%TF.Part,Single*%
%TF.SameCoordinates,{9f0a7d81-3364-476e-981e-304885b4a122}*%
%FSLAX45Y45*%
%MOMM*%
G01*
%TA.AperFunction,ViaDrill*%
%ADD115C,0.635000*%
%TA.AperFunction,OtherDrill,Unknown*%
%ADD116C,2.540000*%
%TA.AperFunction,ComponentDrill*%
%ADD117C,1.524000*%
%TA.AperFunction,ComponentDrill*%
%ADD118C,1.016000*%
%TA.AperFunction,ComponentDrill*%
%ADD119C,0.177800*%
%TA.AperFunction,ComponentDrill*%
%ADD120C,1.300000*%
%TD.AperFunction*%
D115*
X+1265783Y+3569295D03*
X+1760000Y+2450000D03*
X+1760000Y+840000D03*
X+1160000Y+1390000D03*
X+1160000Y+850000D03*
X+2360000Y+820000D03*
X+2360000Y+1390000D03*
X+3410000Y+3600000D03*
X+3980000Y+2420000D03*
X+3980000Y+820000D03*
X+3380000Y+820000D03*
X+3380000Y+1410000D03*
X+4580000Y+810000D03*
X+4580000Y+1390000D03*
X+5630000Y+3590000D03*
X+6170000Y+820000D03*
X+6170000Y+2390000D03*
X+5570000Y+1410000D03*
X+5570000Y+800000D03*
X+6770000Y+810000D03*
X+6770000Y+1410000D03*
X+7679296Y+3645021D03*
X+8200000Y+830000D03*
X+8200000Y+2410000D03*
X+7600000Y+1420000D03*
X+7600000Y+820000D03*
X+8800000Y+820000D03*
X+7920733Y+5145660D03*
X+3990000Y+6820000D03*
X+3985911Y+6327617D03*
X+9350440Y+2865674D03*
X+6635855Y+3843907D03*
X+4476559Y+3837206D03*
X+2340939Y+3832683D03*
X+8800000Y+3840000D03*
X+8381796Y+5867433D03*
X+8431756Y+4811915D03*
X+5143500Y+5588000D03*
X+5143500Y+4570000D03*
X+3619500Y+3556000D03*
X+9160000Y+1570000D03*
X+7053197Y+287109D03*
X+6989593Y+3613334D03*
X+6080000Y+4370000D03*
X+4727503Y+6034762D03*
X+4953000Y+4889500D03*
X+825500Y+4000500D03*
X+7388135Y+5782228D03*
X+7390660Y+4673503D03*
X+4626667Y+5110741D03*
X+4640000Y+4520000D03*
X+4000500Y+4000500D03*
X+2603500Y+4000500D03*
X+1460500Y+3556000D03*
X+7651826Y+6085007D03*
X+8885925Y+5090000D03*
X+4224748Y+6602565D03*
X+4160000Y+6060000D03*
X+5135961Y+6329372D03*
X+3764049Y+4992411D03*
X+2246124Y+5000249D03*
X+1293624Y+5004169D03*
X+1290000Y+4290000D03*
X+710000Y+3830000D03*
X+2954568Y+4122530D03*
X+2633149Y+4142129D03*
X+2637068Y+4679461D03*
X+2794000Y+3683000D03*
X+2794000Y+2540000D03*
X+5121363Y+5775053D03*
X+6636046Y+4217769D03*
X+6767350Y+3626333D03*
X+7003953Y+1120543D03*
X+9024591Y+955990D03*
X+9400000Y+4580000D03*
X+9401576Y+4924318D03*
X+9188866Y+6125501D03*
X+9176354Y+6694811D03*
X+7443994Y+6542489D03*
X+5151157Y+3597261D03*
X+7194733Y+3654649D03*
X+7170000Y+4020000D03*
X+7490000Y+5910000D03*
D116*
X+290000Y+7300000D03*
D117*
X+7724000Y+540000D03*
X+8232000Y+540000D03*
X+8740000Y+540000D03*
D118*
X+980000Y+7320000D03*
X+726000Y+7320000D03*
D115*
X+6125860Y+6201600D03*
X+6232540Y+6201600D03*
X+6331600Y+6201600D03*
X+6334140Y+6100000D03*
X+6230000Y+6100000D03*
X+6125860Y+6094920D03*
X+6128400Y+5993320D03*
X+6230000Y+5995860D03*
X+6331600Y+5995860D03*
D117*
X+1250000Y+530000D03*
X+1758000Y+530000D03*
X+2266000Y+530000D03*
X+3460000Y+530000D03*
X+3968000Y+530000D03*
X+4476000Y+530000D03*
X+5660000Y+530000D03*
X+6168000Y+530000D03*
X+6676000Y+530000D03*
D116*
X+9770000Y+7300000D03*
D118*
X+9710000Y+6646000D03*
X+9710000Y+6392000D03*
X+9710000Y+6138000D03*
X+9710000Y+5884000D03*
D116*
X+290000Y+220000D03*
X+9770000Y+220000D03*
D117*
X+2360000Y+3030000D03*
X+1160000Y+3030000D03*
X+1760000Y+3230000D03*
X+2360000Y+1810000D03*
X+1160000Y+1810000D03*
X+4580000Y+3030000D03*
X+3380000Y+3030000D03*
X+3980000Y+3230000D03*
X+4580000Y+1810000D03*
X+3380000Y+1810000D03*
X+6770000Y+3030000D03*
X+5570000Y+3030000D03*
X+6170000Y+3230000D03*
X+6770000Y+1810000D03*
X+5570000Y+1810000D03*
X+8800000Y+3030000D03*
X+7600000Y+3030000D03*
X+8200000Y+3230000D03*
X+8800000Y+1810000D03*
X+7600000Y+1810000D03*
D118*
X+9710000Y+5536000D03*
X+9710000Y+5282000D03*
X+9710000Y+5028000D03*
X+9710000Y+4774000D03*
X+9710000Y+4520000D03*
X+9710000Y+4266000D03*
X+9710000Y+4012000D03*
X+9710000Y+3758000D03*
X+2940000Y+5530000D03*
X+3194000Y+5530000D03*
X+3448000Y+5530000D03*
X+3702000Y+5530000D03*
X+8610000Y+7430000D03*
X+8356000Y+7430000D03*
X+420000Y+5078000D03*
X+420000Y+4824000D03*
X+420000Y+4570000D03*
X+420000Y+4316000D03*
X+420000Y+4062000D03*
X+9710000Y+3416000D03*
X+9710000Y+3162000D03*
X+9710000Y+2908000D03*
X+9710000Y+2654000D03*
X+9190000Y+7430000D03*
X+8936000Y+7430000D03*
X+420000Y+1468000D03*
X+420000Y+1214000D03*
X+420000Y+960000D03*
X+420000Y+706000D03*
X+420000Y+2588000D03*
X+420000Y+2334000D03*
X+420000Y+2080000D03*
X+420000Y+1826000D03*
X+420000Y+3704000D03*
X+420000Y+3450000D03*
X+420000Y+3196000D03*
X+420000Y+2942000D03*
X+2940000Y+7390000D03*
X+3194000Y+7390000D03*
X+3448000Y+7390000D03*
X+3702000Y+7390000D03*
X+9710000Y+1210000D03*
X+9710000Y+956000D03*
X+9710000Y+702000D03*
X+9710000Y+2342000D03*
X+9710000Y+2088000D03*
X+9710000Y+1834000D03*
X+9710000Y+1580000D03*
X+8000000Y+7430000D03*
X+7746000Y+7430000D03*
D119*
X+1407000Y+7190000D03*
X+1470000Y+7240000D03*
X+1470000Y+7140000D03*
X+1533000Y+7190000D03*
D118*
X+4700000Y+7420000D03*
X+4954000Y+7420000D03*
X+230000Y+5920000D03*
X+230000Y+5666000D03*
D120*
X+222000Y+6950000D03*
X+222000Y+6290000D03*
M02*
