G04 PROTEUS GERBER X2 FILE*
%TF.GenerationSoftware,Labcenter,Proteus,8.9-SP0-Build27865*%
%TF.CreationDate,2021-01-11T14:01:32+00:00*%
%TF.FileFunction,Paste,Top*%
%TF.FilePolarity,Positive*%
%TF.Part,Single*%
%TF.SameCoordinates,{9f0a7d81-3364-476e-981e-304885b4a122}*%
%FSLAX45Y45*%
%MOMM*%
G01*
%TA.AperFunction,Material*%
%ADD68R,2.200000X1.000000*%
%ADD69R,1.000000X2.200000*%
%ADD74R,5.842000X7.366000*%
%TA.AperFunction,Material*%
%ADD75R,1.447800X0.939800*%
%ADD76R,0.939800X0.990600*%
%ADD77R,1.270000X1.016000*%
%ADD78R,2.108200X2.108200*%
%TA.AperFunction,Material*%
%ADD79R,0.939800X0.609600*%
%TA.AperFunction,Material*%
%ADD80R,0.939800X1.447800*%
%AMPPAD053*
4,1,36,
-0.154940,-0.260000,
-0.154940,0.260000,
-0.154140,0.268180,
-0.151850,0.275740,
-0.148220,0.282540,
-0.143380,0.288440,
-0.137480,0.293280,
-0.130680,0.296910,
-0.123120,0.299200,
-0.114940,0.300000,
0.114940,0.300000,
0.123120,0.299200,
0.130680,0.296910,
0.137480,0.293280,
0.143380,0.288440,
0.148220,0.282540,
0.151850,0.275740,
0.154140,0.268180,
0.154940,0.260000,
0.154940,-0.260000,
0.154140,-0.268180,
0.151850,-0.275740,
0.148220,-0.282540,
0.143380,-0.288440,
0.137480,-0.293280,
0.130680,-0.296910,
0.123120,-0.299200,
0.114940,-0.300000,
-0.114940,-0.300000,
-0.123120,-0.299200,
-0.130680,-0.296910,
-0.137480,-0.293280,
-0.143380,-0.288440,
-0.148220,-0.282540,
-0.151850,-0.275740,
-0.154140,-0.268180,
-0.154940,-0.260000,
0*%
%TA.AperFunction,Material*%
%ADD59PPAD053*%
%ADD81R,1.750060X1.500000*%
%TA.AperFunction,Material*%
%ADD82R,1.524000X1.016000*%
%TA.AperFunction,Material*%
%ADD83R,1.350000X0.400000*%
%ADD84R,1.400000X1.600000*%
%ADD85R,1.600000X1.900000*%
%TA.AperFunction,Profile*%
%ADD36C,0.203200*%
%TA.AperFunction,Material*%
%ADD67C,0.025400*%
%TD.AperFunction*%
G36*
X+1393000Y+7123000D02*
X+1393000Y+7257000D01*
X+1547000Y+7257000D01*
X+1547000Y+7123000D01*
X+1393000Y+7123000D01*
G37*
G36*
X+1300000Y+7146000D02*
X+1300000Y+7169000D01*
X+1372000Y+7169000D01*
X+1372000Y+7146000D01*
X+1300000Y+7146000D01*
G37*
G36*
X+1300000Y+7211000D02*
X+1300000Y+7234000D01*
X+1372000Y+7234000D01*
X+1372000Y+7211000D01*
X+1300000Y+7211000D01*
G37*
G36*
X+1568000Y+7211000D02*
X+1568000Y+7234000D01*
X+1640000Y+7234000D01*
X+1640000Y+7211000D01*
X+1568000Y+7211000D01*
G37*
G36*
X+1568000Y+7146000D02*
X+1568000Y+7169000D01*
X+1640000Y+7169000D01*
X+1640000Y+7146000D01*
X+1568000Y+7146000D01*
G37*
D68*
X+5420940Y+6796660D03*
X+5420940Y+6669660D03*
X+5420940Y+6542660D03*
X+5420940Y+6415660D03*
X+5420940Y+6288660D03*
X+5420940Y+6161660D03*
X+5420940Y+6034660D03*
X+5420940Y+5907660D03*
X+5420940Y+5780660D03*
X+5420940Y+5653660D03*
X+5420940Y+5526660D03*
X+5420940Y+5399660D03*
X+5420940Y+5272660D03*
X+5420940Y+5145660D03*
D69*
X+5699400Y+5047500D03*
X+5826400Y+5047500D03*
X+5953400Y+5047500D03*
X+6080400Y+5047500D03*
X+6207400Y+5047500D03*
X+6334400Y+5047500D03*
X+6461400Y+5047500D03*
X+6588400Y+5047500D03*
X+6715400Y+5047500D03*
X+6842400Y+5047500D03*
D68*
X+7120940Y+5145660D03*
X+7120940Y+5272660D03*
X+7120940Y+5399660D03*
X+7120940Y+5526660D03*
X+7120940Y+5653660D03*
X+7120940Y+5780660D03*
X+7120940Y+5907660D03*
X+7120940Y+6034660D03*
X+7120940Y+6161660D03*
X+7120940Y+6288660D03*
X+7120940Y+6415660D03*
X+7120940Y+6542660D03*
X+7120940Y+6669660D03*
X+7120940Y+6796660D03*
D74*
X+6247780Y+6105080D03*
D75*
X+4950000Y+6690000D03*
X+4950000Y+6490000D03*
D76*
X+4700000Y+6690000D03*
X+4540000Y+6690000D03*
X+4700000Y+6490000D03*
X+4540000Y+6490000D03*
D77*
X+9240000Y+3390000D03*
X+9240000Y+3176640D03*
D78*
X+3780000Y+3850000D03*
X+4230000Y+3850000D03*
X+5960000Y+3850000D03*
X+6410000Y+3850000D03*
X+7960000Y+3850000D03*
X+8410000Y+3850000D03*
X+1570000Y+3830000D03*
X+2020000Y+3830000D03*
D79*
X+3210000Y+3945000D03*
X+3210000Y+3755000D03*
X+3440000Y+3850000D03*
X+5370000Y+3945000D03*
X+5370000Y+3755000D03*
X+5600000Y+3850000D03*
X+7400000Y+3945000D03*
X+7400000Y+3755000D03*
X+7630000Y+3850000D03*
X+1030000Y+3925000D03*
X+1030000Y+3735000D03*
X+1260000Y+3830000D03*
D80*
X+3010000Y+4330000D03*
X+3210000Y+4330000D03*
X+5160000Y+4330000D03*
X+5360000Y+4330000D03*
X+7200000Y+4360000D03*
X+7400000Y+4360000D03*
X+830000Y+4230000D03*
X+1030000Y+4230000D03*
D59*
X+1372000Y+7050000D03*
X+1437488Y+7050000D03*
X+1502512Y+7050000D03*
X+1568000Y+7050000D03*
X+1568000Y+7330000D03*
X+1502512Y+7330000D03*
X+1437488Y+7330000D03*
X+1372000Y+7330000D03*
D81*
X+1470000Y+7190000D03*
D82*
X+920000Y+6820000D03*
X+920000Y+6505040D03*
D80*
X+1960000Y+6750000D03*
X+2160000Y+6750000D03*
D82*
X+2170000Y+7050000D03*
X+2170000Y+7364960D03*
X+1940000Y+7050000D03*
X+1940000Y+7364960D03*
X+1160000Y+6820000D03*
X+1160000Y+6505040D03*
D83*
X+490000Y+6750000D03*
X+490000Y+6685000D03*
X+490000Y+6620000D03*
X+490000Y+6555000D03*
X+490000Y+6490000D03*
D84*
X+468000Y+6940000D03*
D85*
X+222000Y+6740000D03*
X+222000Y+6500000D03*
D84*
X+468000Y+6300000D03*
D36*
X+35420Y-8200D02*
X+10035420Y-8200D01*
X+10035420Y+7611800D01*
X+35420Y+7611800D01*
X+35420Y-8200D01*
D67*
X+1393000Y+7123000D02*
X+1547000Y+7123000D01*
X+1547000Y+7257000D01*
X+1393000Y+7257000D01*
X+1393000Y+7123000D01*
X+1300000Y+7146000D02*
X+1372000Y+7146000D01*
X+1372000Y+7169000D01*
X+1300000Y+7169000D01*
X+1300000Y+7146000D01*
X+1300000Y+7211000D02*
X+1372000Y+7211000D01*
X+1372000Y+7234000D01*
X+1300000Y+7234000D01*
X+1300000Y+7211000D01*
X+1568000Y+7211000D02*
X+1640000Y+7211000D01*
X+1640000Y+7234000D01*
X+1568000Y+7234000D01*
X+1568000Y+7211000D01*
X+1568000Y+7146000D02*
X+1640000Y+7146000D01*
X+1640000Y+7169000D01*
X+1568000Y+7169000D01*
X+1568000Y+7146000D01*
M02*
