G04 PROTEUS GERBER X2 FILE*
%TF.GenerationSoftware,Labcenter,Proteus,8.9-SP0-Build27865*%
%TF.CreationDate,2021-01-11T14:01:32+00:00*%
%TF.FileFunction,Copper,L1,Top*%
%TF.FilePolarity,Positive*%
%TF.Part,Single*%
%TF.SameCoordinates,{9f0a7d81-3364-476e-981e-304885b4a122}*%
%FSLAX45Y45*%
%MOMM*%
G01*
%TA.AperFunction,Conductor*%
%ADD10C,0.635000*%
%ADD11C,0.762000*%
%ADD12C,2.032000*%
%ADD13C,1.016000*%
%ADD14C,0.508000*%
%ADD15C,0.381000*%
%ADD16C,0.254000*%
%TA.AperFunction,ViaPad*%
%ADD17C,1.016000*%
%TA.AperFunction,OtherPad,Unknown*%
%ADD18C,3.810000*%
%TA.AperFunction,ComponentPad*%
%ADD19C,3.048000*%
%TA.AperFunction,ComponentPad*%
%ADD70R,2.032000X2.032000*%
%TA.AperFunction,SMDPad,CuDef*%
%ADD71R,2.200000X1.000000*%
%ADD20R,1.000000X2.200000*%
%ADD21R,5.842000X7.366000*%
%TA.AperFunction,SMDPad,CuDef*%
%ADD22R,1.447800X0.939800*%
%ADD23R,0.939800X0.990600*%
%TA.AperFunction,ComponentPad*%
%ADD24C,2.540000*%
%TA.AperFunction,SMDPad,CuDef*%
%ADD25R,1.270000X1.016000*%
%ADD26R,2.108200X2.108200*%
%TA.AperFunction,SMDPad,CuDef*%
%ADD27R,0.939800X0.609600*%
%TA.AperFunction,SMDPad,CuDef*%
%ADD28R,0.939800X1.447800*%
%AMPPAD021*
4,1,36,
-0.154940,-0.260000,
-0.154940,0.260000,
-0.154140,0.268180,
-0.151850,0.275740,
-0.148220,0.282540,
-0.143380,0.288440,
-0.137480,0.293280,
-0.130680,0.296910,
-0.123120,0.299200,
-0.114940,0.300000,
0.114940,0.300000,
0.123120,0.299200,
0.130680,0.296910,
0.137480,0.293280,
0.143380,0.288440,
0.148220,0.282540,
0.151850,0.275740,
0.154140,0.268180,
0.154940,0.260000,
0.154940,-0.260000,
0.154140,-0.268180,
0.151850,-0.275740,
0.148220,-0.282540,
0.143380,-0.288440,
0.137480,-0.293280,
0.130680,-0.296910,
0.123120,-0.299200,
0.114940,-0.300000,
-0.114940,-0.300000,
-0.123120,-0.299200,
-0.130680,-0.296910,
-0.137480,-0.293280,
-0.143380,-0.288440,
-0.148220,-0.282540,
-0.151850,-0.275740,
-0.154140,-0.268180,
-0.154940,-0.260000,
0*%
%TA.AperFunction,SMDPad,CuDef*%
%ADD29PPAD021*%
%ADD72R,1.750060X1.500000*%
%TA.AperFunction,ComponentPad*%
%ADD73C,0.400000*%
%AMPPAD024*
4,1,20,
-0.880000,-0.750000,
-0.880000,-0.440000,
-1.700000,-0.440000,
-1.700000,-0.210000,
-0.880000,-0.210000,
-0.880000,0.210000,
-1.700000,0.210000,
-1.700000,0.440000,
-0.880000,0.440000,
-0.880000,0.750000,
0.880000,0.750000,
0.880000,0.440000,
1.700000,0.440000,
1.700000,0.210000,
0.880000,0.210000,
0.880000,-0.210000,
1.700000,-0.210000,
1.700000,-0.440000,
0.880000,-0.440000,
0.880000,-0.750000,
-0.880000,-0.750000,
0*%
%TA.AperFunction,SMDPad,CuDef*%
%ADD30PPAD024*%
%TA.AperFunction,SMDPad,CuDef*%
%ADD31R,1.524000X1.016000*%
%TA.AperFunction,SMDPad,CuDef*%
%ADD32R,1.350000X0.400000*%
%TA.AperFunction,ComponentPad*%
%ADD33C,1.950000*%
%TA.AperFunction,SMDPad,CuDef*%
%ADD34R,1.400000X1.600000*%
%ADD35R,1.600000X1.900000*%
%TA.AperFunction,Profile*%
%ADD36C,0.203200*%
%TD.AperFunction*%
G36*
X+9710000Y+6646000D02*
X+9730129Y+6599360D01*
X+9836999Y+6645487D01*
X+9730507Y+6692476D01*
X+9710000Y+6646000D01*
G37*
G36*
X+9710000Y+6392000D02*
X+9691129Y+6452632D01*
X+9572319Y+6415660D01*
X+9671974Y+6341145D01*
X+9710000Y+6392000D01*
G37*
G36*
X+9710000Y+6138000D02*
X+9679913Y+6178933D01*
X+9586126Y+6110000D01*
X+9700446Y+6088107D01*
X+9710000Y+6138000D01*
G37*
G36*
X+9710000Y+4774000D02*
X+9683593Y+4831748D01*
X+9570429Y+4780000D01*
X+9678734Y+4718731D01*
X+9710000Y+4774000D01*
G37*
G36*
X+9710000Y+3416000D02*
X+9757288Y+3397447D01*
X+9799802Y+3505802D01*
X+9691447Y+3463290D01*
X+9710000Y+3416000D01*
G37*
G36*
X+9710000Y+3416000D02*
X+9671112Y+3466200D01*
X+9572741Y+3390000D01*
X+9692168Y+3355056D01*
X+9710000Y+3416000D01*
G37*
G36*
X+9710000Y+3162000D02*
X+9687217Y+3221274D01*
X+9571070Y+3176640D01*
X+9675368Y+3108776D01*
X+9710000Y+3162000D01*
G37*
G36*
X+9240000Y+3390000D02*
X+9241808Y+3377431D01*
X+9328900Y+3390000D01*
X+9241814Y+3402569D01*
X+9240000Y+3390000D01*
G37*
G36*
X+9240000Y+3176640D02*
X+9238184Y+3189209D01*
X+9151100Y+3176640D01*
X+9238186Y+3164071D01*
X+9240000Y+3176640D01*
G37*
G36*
X+9190000Y+7430000D02*
X+9143440Y+7409680D01*
X+9190000Y+7303000D01*
X+9236558Y+7409680D01*
X+9190000Y+7430000D01*
G37*
G36*
X+9710000Y+1210000D02*
X+9689680Y+1256558D01*
X+9583000Y+1210000D01*
X+9689680Y+1163442D01*
X+9710000Y+1210000D01*
G37*
G36*
X+9710000Y+2342000D02*
X+9685368Y+2386430D01*
X+9583569Y+2330000D01*
X+9694171Y+2293730D01*
X+9710000Y+2342000D01*
G37*
G36*
X+9160000Y+1570000D02*
X+9147304Y+1569612D01*
X+9150000Y+1481665D01*
X+9172285Y+1566784D01*
X+9160000Y+1570000D01*
G37*
G36*
X+7053197Y+287109D02*
X+7045592Y+276938D01*
X+7116059Y+224247D01*
X+7063368Y+294714D01*
X+7053197Y+287109D01*
G37*
G36*
X+9024591Y+955990D02*
X+9012016Y+954176D01*
X+9024591Y+867090D01*
X+9037160Y+954176D01*
X+9024591Y+955990D01*
G37*
G36*
X+9400000Y+4580000D02*
X+9389825Y+4587605D01*
X+9337139Y+4517139D01*
X+9407605Y+4569829D01*
X+9400000Y+4580000D01*
G37*
G36*
X+9401576Y+4924318D02*
X+9414145Y+4926132D01*
X+9401576Y+5013218D01*
X+9389007Y+4926132D01*
X+9401576Y+4924318D01*
G37*
G36*
X+9188866Y+6125501D02*
X+9176297Y+6123687D01*
X+9188866Y+6036601D01*
X+9201435Y+6123687D01*
X+9188866Y+6125501D01*
G37*
G36*
X+9176354Y+6694811D02*
X+9174536Y+6707380D01*
X+9087454Y+6694811D01*
X+9174540Y+6682242D01*
X+9176354Y+6694811D01*
G37*
G36*
X+420000Y+4316000D02*
X+438620Y+4268736D01*
X+546916Y+4311401D01*
X+441992Y+4361792D01*
X+420000Y+4316000D01*
G37*
G36*
X+420000Y+1468000D02*
X+399680Y+1514558D01*
X+293000Y+1468000D01*
X+399680Y+1421442D01*
X+420000Y+1468000D01*
G37*
G36*
X+420000Y+706000D02*
X+446944Y+662935D01*
X+545620Y+724671D01*
X+433254Y+755040D01*
X+420000Y+706000D01*
G37*
G36*
X+420000Y+2588000D02*
X+395356Y+2632421D01*
X+293573Y+2575955D01*
X+404188Y+2539724D01*
X+420000Y+2588000D01*
G37*
G36*
X+420000Y+3704000D02*
X+399680Y+3750558D01*
X+293000Y+3704000D01*
X+399680Y+3657442D01*
X+420000Y+3704000D01*
G37*
G36*
X+420000Y+2942000D02*
X+449017Y+2885518D01*
X+559700Y+2942380D01*
X+448709Y+2998639D01*
X+420000Y+2942000D01*
G37*
G36*
X+710000Y+3830000D02*
X+697431Y+3828186D01*
X+710000Y+3741100D01*
X+722569Y+3828186D01*
X+710000Y+3830000D01*
G37*
G36*
X+726000Y+7320000D02*
X+683148Y+7292718D01*
X+745660Y+7194531D01*
X+775143Y+7307133D01*
X+726000Y+7320000D01*
G37*
G36*
X+468000Y+6940000D02*
X+466129Y+6959108D01*
X+373126Y+6950000D01*
X+462186Y+6921702D01*
X+468000Y+6940000D01*
G37*
G36*
X+222000Y+6950000D02*
X+239745Y+6906803D01*
X+344900Y+6950000D01*
X+239745Y+6993197D01*
X+222000Y+6950000D01*
G37*
G36*
X+222000Y+6950000D02*
X+178803Y+6932255D01*
X+222000Y+6827100D01*
X+265197Y+6932255D01*
X+222000Y+6950000D01*
G37*
G36*
X+980000Y+7320000D02*
X+1022348Y+7256652D01*
X+1132071Y+7330000D01*
X+1013687Y+7388348D01*
X+980000Y+7320000D01*
G37*
G36*
X+980000Y+7320000D02*
X+929411Y+7315379D01*
X+940000Y+7199464D01*
X+1017789Y+7286050D01*
X+980000Y+7320000D01*
G37*
G36*
X+5420940Y+6796660D02*
X+5422547Y+6784870D01*
X+5509040Y+6796660D01*
X+5422547Y+6808450D01*
X+5420940Y+6796660D01*
G37*
G36*
X+5420940Y+6796660D02*
X+5419333Y+6808450D01*
X+5332840Y+6796660D01*
X+5419333Y+6784870D01*
X+5420940Y+6796660D01*
G37*
G36*
X+5420940Y+6415660D02*
X+5419333Y+6427450D01*
X+5332840Y+6415660D01*
X+5419333Y+6403870D01*
X+5420940Y+6415660D01*
G37*
G36*
X+5420940Y+6161660D02*
X+5419333Y+6173450D01*
X+5332840Y+6161660D01*
X+5419333Y+6149870D01*
X+5420940Y+6161660D01*
G37*
G36*
X+5420940Y+5780660D02*
X+5419333Y+5792450D01*
X+5332841Y+5780660D01*
X+5419333Y+5768870D01*
X+5420940Y+5780660D01*
G37*
G36*
X+5699400Y+5047500D02*
X+5678286Y+5060123D01*
X+5628124Y+4976224D01*
X+5712023Y+5026386D01*
X+5699400Y+5047500D01*
G37*
G36*
X+6715400Y+5047500D02*
X+6703610Y+5045893D01*
X+6715400Y+4959400D01*
X+6727190Y+5045893D01*
X+6715400Y+5047500D01*
G37*
G36*
X+7120940Y+5145660D02*
X+7122547Y+5133870D01*
X+7209040Y+5145660D01*
X+7122547Y+5157450D01*
X+7120940Y+5145660D01*
G37*
G36*
X+7120940Y+5272660D02*
X+7117414Y+5290566D01*
X+7026490Y+5272660D01*
X+7117414Y+5254754D01*
X+7120940Y+5272660D01*
G37*
G36*
X+7120940Y+5399660D02*
X+7122547Y+5387870D01*
X+7209040Y+5399660D01*
X+7122547Y+5411450D01*
X+7120940Y+5399660D01*
G37*
G36*
X+7120940Y+5526660D02*
X+7122547Y+5514870D01*
X+7209040Y+5526660D01*
X+7122547Y+5538450D01*
X+7120940Y+5526660D01*
G37*
G36*
X+7120940Y+5653660D02*
X+7122547Y+5641870D01*
X+7209040Y+5653660D01*
X+7122547Y+5665450D01*
X+7120940Y+5653660D01*
G37*
G36*
X+7120940Y+5780660D02*
X+7122756Y+5768900D01*
X+7209026Y+5782228D01*
X+7122337Y+5792477D01*
X+7120940Y+5780660D01*
G37*
G36*
X+7120940Y+5907660D02*
X+7122859Y+5895916D01*
X+7209008Y+5910000D01*
X+7122233Y+5919489D01*
X+7120940Y+5907660D01*
G37*
G36*
X+7120940Y+6415660D02*
X+7122547Y+6403870D01*
X+7209040Y+6415660D01*
X+7122547Y+6427450D01*
X+7120940Y+6415660D01*
G37*
G36*
X+7120940Y+6542660D02*
X+7122547Y+6530870D01*
X+7209040Y+6542660D01*
X+7122547Y+6554450D01*
X+7120940Y+6542660D01*
G37*
G36*
X+7120940Y+6669660D02*
X+7121880Y+6657798D01*
X+7208899Y+6664695D01*
X+7123209Y+6681341D01*
X+7120940Y+6669660D01*
G37*
G36*
X+4540000Y+6690000D02*
X+4537461Y+6705026D01*
X+4448560Y+6690000D01*
X+4537461Y+6674974D01*
X+4540000Y+6690000D01*
G37*
G36*
X+4700000Y+6490000D02*
X+4691159Y+6489072D01*
X+4700000Y+6404910D01*
X+4708841Y+6489072D01*
X+4700000Y+6490000D01*
G37*
G36*
X+1760000Y+3230000D02*
X+1735407Y+3223650D01*
X+1760000Y+3128401D01*
X+1784593Y+3223651D01*
X+1760000Y+3230000D01*
G37*
G36*
X+2360000Y+1810000D02*
X+2335407Y+1803650D01*
X+2360000Y+1708400D01*
X+2384593Y+1803651D01*
X+2360000Y+1810000D01*
G37*
G36*
X+1160000Y+1810000D02*
X+1135407Y+1803650D01*
X+1160000Y+1708400D01*
X+1184593Y+1803651D01*
X+1160000Y+1810000D01*
G37*
G36*
X+3980000Y+3230000D02*
X+3955407Y+3223650D01*
X+3980000Y+3128400D01*
X+4004593Y+3223651D01*
X+3980000Y+3230000D01*
G37*
G36*
X+4580000Y+1810000D02*
X+4555407Y+1803650D01*
X+4580000Y+1708400D01*
X+4604593Y+1803651D01*
X+4580000Y+1810000D01*
G37*
G36*
X+3380000Y+1810000D02*
X+3355407Y+1803650D01*
X+3380000Y+1708400D01*
X+3404593Y+1803651D01*
X+3380000Y+1810000D01*
G37*
G36*
X+6170000Y+3230000D02*
X+6145407Y+3223650D01*
X+6170000Y+3128400D01*
X+6194593Y+3223651D01*
X+6170000Y+3230000D01*
G37*
G36*
X+6770000Y+1810000D02*
X+6745407Y+1803650D01*
X+6770000Y+1708400D01*
X+6794593Y+1803651D01*
X+6770000Y+1810000D01*
G37*
G36*
X+5570000Y+1810000D02*
X+5545407Y+1803650D01*
X+5570000Y+1708400D01*
X+5594593Y+1803651D01*
X+5570000Y+1810000D01*
G37*
G36*
X+8200000Y+3230000D02*
X+8175407Y+3223650D01*
X+8200000Y+3128400D01*
X+8224593Y+3223651D01*
X+8200000Y+3230000D01*
G37*
G36*
X+8800000Y+1810000D02*
X+8775407Y+1803650D01*
X+8800000Y+1708400D01*
X+8824593Y+1803651D01*
X+8800000Y+1810000D01*
G37*
G36*
X+7600000Y+1810000D02*
X+7575407Y+1803650D01*
X+7600000Y+1708401D01*
X+7624593Y+1803651D01*
X+7600000Y+1810000D01*
G37*
G36*
X+2940000Y+5530000D02*
X+2919126Y+5576313D01*
X+2813010Y+5528484D01*
X+2920238Y+5483202D01*
X+2940000Y+5530000D01*
G37*
G36*
X+3194000Y+5530000D02*
X+3131765Y+5498287D01*
X+3190000Y+5384005D01*
X+3254405Y+5494926D01*
X+3194000Y+5530000D01*
G37*
G36*
X+3702000Y+5530000D02*
X+3748558Y+5550320D01*
X+3702000Y+5656999D01*
X+3655442Y+5550320D01*
X+3702000Y+5530000D01*
G37*
G36*
X+8610000Y+7430000D02*
X+8563442Y+7409680D01*
X+8610000Y+7303000D01*
X+8656558Y+7409680D01*
X+8610000Y+7430000D01*
G37*
G36*
X+2940000Y+7390000D02*
X+2942212Y+7466167D01*
X+2810286Y+7470000D01*
X+2872931Y+7353833D01*
X+2940000Y+7390000D01*
G37*
G36*
X+3194000Y+7390000D02*
X+3136404Y+7363263D01*
X+3188797Y+7250397D01*
X+3249446Y+7359050D01*
X+3194000Y+7390000D01*
G37*
G36*
X+5370000Y+3755000D02*
X+5373809Y+3751640D01*
X+5427473Y+3812473D01*
X+5366640Y+3758809D01*
X+5370000Y+3755000D01*
G37*
G36*
X+3010000Y+4330000D02*
X+3025026Y+4332539D01*
X+3010000Y+4421440D01*
X+2994974Y+4332540D01*
X+3010000Y+4330000D01*
G37*
G36*
X+3210000Y+4330000D02*
X+3201159Y+4329072D01*
X+3210000Y+4244910D01*
X+3218841Y+4329072D01*
X+3210000Y+4330000D01*
G37*
G36*
X+5160000Y+4330000D02*
X+5151159Y+4329072D01*
X+5160000Y+4244910D01*
X+5168841Y+4329072D01*
X+5160000Y+4330000D01*
G37*
G36*
X+5360000Y+4330000D02*
X+5351159Y+4329072D01*
X+5360000Y+4244910D01*
X+5368841Y+4329072D01*
X+5360000Y+4330000D01*
G37*
G36*
X+7200000Y+4360000D02*
X+7208841Y+4360928D01*
X+7200000Y+4445090D01*
X+7191159Y+4360928D01*
X+7200000Y+4360000D01*
G37*
G36*
X+7400000Y+4360000D02*
X+7384974Y+4357460D01*
X+7400000Y+4268560D01*
X+7415026Y+4357461D01*
X+7400000Y+4360000D01*
G37*
G36*
X+1030000Y+4230000D02*
X+1021159Y+4229072D01*
X+1030000Y+4144910D01*
X+1038841Y+4229072D01*
X+1030000Y+4230000D01*
G37*
G36*
X+7746000Y+7430000D02*
X+7699895Y+7408671D01*
X+7748767Y+7303031D01*
X+7792990Y+7410700D01*
X+7746000Y+7430000D01*
G37*
G36*
X+1960000Y+6750000D02*
X+1951159Y+6749072D01*
X+1960000Y+6664910D01*
X+1968841Y+6749072D01*
X+1960000Y+6750000D01*
G37*
G36*
X+1940000Y+7364960D02*
X+1937654Y+7377441D01*
X+1851180Y+7361181D01*
X+1938722Y+7352325D01*
X+1940000Y+7364960D01*
G37*
G36*
X+1160000Y+6505040D02*
X+1167356Y+6480729D01*
X+1261514Y+6509222D01*
X+1165332Y+6529873D01*
X+1160000Y+6505040D01*
G37*
G36*
X+4700000Y+7420000D02*
X+4669798Y+7475857D01*
X+4560340Y+7416674D01*
X+4672492Y+7362768D01*
X+4700000Y+7420000D01*
G37*
G36*
X+4954000Y+7420000D02*
X+4930136Y+7361155D01*
X+5045448Y+7314391D01*
X+5015652Y+7435204D01*
X+4954000Y+7420000D01*
G37*
G36*
X+1265783Y+3569295D02*
X+1278352Y+3571109D01*
X+1265783Y+3658195D01*
X+1253214Y+3571109D01*
X+1265783Y+3569295D01*
G37*
G36*
X+3410000Y+3600000D02*
X+3422569Y+3601814D01*
X+3410000Y+3688900D01*
X+3397431Y+3601814D01*
X+3410000Y+3600000D01*
G37*
G36*
X+5630000Y+3590000D02*
X+5642569Y+3591814D01*
X+5630000Y+3678900D01*
X+5617431Y+3591814D01*
X+5630000Y+3590000D01*
G37*
G36*
X+7679296Y+3645021D02*
X+7691865Y+3646835D01*
X+7679296Y+3733921D01*
X+7666727Y+3646835D01*
X+7679296Y+3645021D01*
G37*
G36*
X+7920733Y+5145660D02*
X+7918919Y+5158229D01*
X+7831833Y+5145660D01*
X+7918919Y+5133091D01*
X+7920733Y+5145660D01*
G37*
G36*
X+3990000Y+6820000D02*
X+3991814Y+6807431D01*
X+4078900Y+6820000D01*
X+3991814Y+6832569D01*
X+3990000Y+6820000D01*
G37*
G36*
X+3985911Y+6327617D02*
X+3984097Y+6340186D01*
X+3897011Y+6327617D01*
X+3984097Y+6315048D01*
X+3985911Y+6327617D01*
G37*
G36*
X+8381796Y+5867433D02*
X+8369193Y+5865874D01*
X+8380000Y+5778552D01*
X+8394326Y+5865366D01*
X+8381796Y+5867433D01*
G37*
G36*
X+8431756Y+4811915D02*
X+8430428Y+4824545D01*
X+8342923Y+4815341D01*
X+8429459Y+4799425D01*
X+8431756Y+4811915D01*
G37*
G36*
X+6989593Y+3613334D02*
X+6997198Y+3623505D01*
X+6926731Y+3676196D01*
X+6979422Y+3605729D01*
X+6989593Y+3613334D01*
G37*
G36*
X+6080000Y+4370000D02*
X+6078940Y+4357345D01*
X+6166621Y+4350000D01*
X+6084595Y+4381839D01*
X+6080000Y+4370000D01*
G37*
G36*
X+7388135Y+5782228D02*
X+7386321Y+5794797D01*
X+7299235Y+5782228D01*
X+7386321Y+5769659D01*
X+7388135Y+5782228D01*
G37*
G36*
X+7390660Y+4673503D02*
X+7380489Y+4681108D01*
X+7327798Y+4610641D01*
X+7398265Y+4663332D01*
X+7390660Y+4673503D01*
G37*
G36*
X+4626667Y+5110741D02*
X+4634272Y+5120912D01*
X+4563805Y+5173603D01*
X+4616496Y+5103136D01*
X+4626667Y+5110741D01*
G37*
G36*
X+4640000Y+4520000D02*
X+4631787Y+4510314D01*
X+4698897Y+4453410D01*
X+4650617Y+4526968D01*
X+4640000Y+4520000D01*
G37*
G36*
X+4000500Y+4000500D02*
X+3987931Y+3998686D01*
X+4000500Y+3911600D01*
X+4013069Y+3998686D01*
X+4000500Y+4000500D01*
G37*
G36*
X+2603500Y+4000500D02*
X+2590931Y+3998686D01*
X+2603500Y+3911600D01*
X+2616069Y+3998686D01*
X+2603500Y+4000500D01*
G37*
G36*
X+1460500Y+3556000D02*
X+1462314Y+3543431D01*
X+1549400Y+3556000D01*
X+1462314Y+3568569D01*
X+1460500Y+3556000D01*
G37*
G36*
X+8885925Y+5090000D02*
X+8898494Y+5091814D01*
X+8885925Y+5178900D01*
X+8873356Y+5091814D01*
X+8885925Y+5090000D01*
G37*
G36*
X+4224748Y+6602565D02*
X+4240640Y+6592061D01*
X+4292100Y+6669917D01*
X+4214244Y+6618457D01*
X+4224748Y+6602565D01*
G37*
G36*
X+5135961Y+6329372D02*
X+5146132Y+6321767D01*
X+5198823Y+6392234D01*
X+5128356Y+6339543D01*
X+5135961Y+6329372D01*
G37*
G36*
X+3764049Y+4992411D02*
X+3762235Y+5004980D01*
X+3675149Y+4992411D01*
X+3762235Y+4979842D01*
X+3764049Y+4992411D01*
G37*
G36*
X+2246124Y+5000249D02*
X+2246822Y+4987569D01*
X+2334677Y+4992411D01*
X+2249039Y+5012609D01*
X+2246124Y+5000249D01*
G37*
G36*
X+1293624Y+5004169D02*
X+1281055Y+5002355D01*
X+1293624Y+4915270D01*
X+1306193Y+5002355D01*
X+1293624Y+5004169D01*
G37*
G36*
X+1290000Y+4290000D02*
X+1302633Y+4291300D01*
X+1293624Y+4378826D01*
X+1277515Y+4292325D01*
X+1290000Y+4290000D01*
G37*
G36*
X+2954568Y+4122530D02*
X+2941922Y+4121364D01*
X+2950000Y+4033748D01*
X+2967027Y+4120073D01*
X+2954568Y+4122530D01*
G37*
G36*
X+2633149Y+4142129D02*
X+2645718Y+4143943D01*
X+2633149Y+4231029D01*
X+2620580Y+4143943D01*
X+2633149Y+4142129D01*
G37*
G36*
X+5121363Y+5775053D02*
X+5123966Y+5762623D01*
X+5210086Y+5780660D01*
X+5122380Y+5787712D01*
X+5121363Y+5775053D01*
G37*
G36*
X+6636046Y+4217769D02*
X+6623688Y+4214844D01*
X+6643958Y+4129222D01*
X+6648727Y+4217081D01*
X+6636046Y+4217769D01*
G37*
G36*
X+6767350Y+3626333D02*
X+6779919Y+3628147D01*
X+6767350Y+3715233D01*
X+6754781Y+3628147D01*
X+6767350Y+3626333D01*
G37*
G36*
X+7003953Y+1120543D02*
X+6992298Y+1115499D01*
X+7027248Y+1034750D01*
X+7016558Y+1122085D01*
X+7003953Y+1120543D01*
G37*
G36*
X+7443994Y+6542489D02*
X+7442204Y+6555062D01*
X+7355094Y+6542660D01*
X+7442156Y+6529923D01*
X+7443994Y+6542489D01*
G37*
G36*
X+5151157Y+3597261D02*
X+5163844Y+3597815D01*
X+5160000Y+3685720D01*
X+5138831Y+3600316D01*
X+5151157Y+3597261D01*
G37*
G36*
X+7194733Y+3654649D02*
X+7207188Y+3657129D01*
X+7190000Y+3743422D01*
X+7182085Y+3655791D01*
X+7194733Y+3654649D01*
G37*
G36*
X+7170000Y+4020000D02*
X+7158161Y+4015405D01*
X+7190000Y+3933379D01*
X+7182655Y+4021060D01*
X+7170000Y+4020000D01*
G37*
G36*
X+7490000Y+5910000D02*
X+7488186Y+5922569D01*
X+7401100Y+5910000D01*
X+7488186Y+5897431D01*
X+7490000Y+5910000D01*
G37*
G36*
X+222000Y+6290000D02*
X+239745Y+6246803D01*
X+344900Y+6290000D01*
X+239745Y+6333197D01*
X+222000Y+6290000D01*
G37*
G36*
X+468000Y+6300000D02*
X+462186Y+6318298D01*
X+373126Y+6290000D01*
X+466129Y+6280892D01*
X+468000Y+6300000D01*
G37*
G36*
X+9490601Y+7415731D02*
X+9490601Y+7184269D01*
X+9654269Y+7020601D01*
X+9885731Y+7020601D01*
X+9936360Y+7071230D01*
X+9936360Y+6743690D01*
X+9900499Y+6779551D01*
X+9900499Y+6836499D01*
X+9519501Y+6836499D01*
X+9519501Y+6542659D01*
X+7583693Y+6542659D01*
X+7583693Y+6567812D01*
X+9078341Y+6567812D01*
X+9110419Y+6563182D01*
X+9118489Y+6555112D01*
X+9234219Y+6555112D01*
X+9316053Y+6636946D01*
X+9316053Y+6752676D01*
X+9234219Y+6834510D01*
X+9118489Y+6834510D01*
X+9110419Y+6826440D01*
X+9078340Y+6821810D01*
X+7440000Y+6821810D01*
X+7440000Y+7512740D01*
X+7555501Y+7512740D01*
X+7555501Y+7239501D01*
X+9380499Y+7239501D01*
X+9380499Y+7512740D01*
X+9587610Y+7512740D01*
X+9490601Y+7415731D01*
G37*
G36*
X+5200000Y+6809359D02*
X+5111289Y+6809359D01*
X+5111289Y+6825889D01*
X+5011675Y+6825889D01*
X+5007865Y+6829699D01*
X+4902192Y+6829699D01*
X+4784892Y+6946999D01*
X+4088013Y+6946999D01*
X+4055935Y+6951629D01*
X+4047865Y+6959699D01*
X+3932135Y+6959699D01*
X+3850301Y+6877865D01*
X+3850301Y+6762135D01*
X+3932135Y+6680301D01*
X+4047865Y+6680301D01*
X+4055936Y+6688372D01*
X+4088011Y+6693001D01*
X+4404111Y+6693001D01*
X+4404111Y+6422135D01*
X+4236101Y+6422135D01*
X+4209268Y+6448968D01*
X+4209268Y+6532715D01*
X+4253681Y+6532715D01*
X+4294598Y+6573632D01*
X+4294598Y+6631498D01*
X+4253681Y+6672415D01*
X+4195815Y+6672415D01*
X+4154898Y+6631498D01*
X+4154898Y+6609390D01*
X+4134872Y+6629416D01*
X+3672408Y+6629416D01*
X+3650753Y+6651071D01*
X+3650753Y+6951410D01*
X+3686637Y+6987294D01*
X+3976896Y+6987294D01*
X+4176999Y+7187397D01*
X+4176999Y+7239309D01*
X+4227365Y+7289675D01*
X+4509501Y+7289675D01*
X+4509501Y+7229501D01*
X+5144499Y+7229501D01*
X+5144499Y+7512740D01*
X+5200000Y+7512740D01*
X+5200000Y+6809359D01*
G37*
G36*
X+6922041Y+6657761D02*
X+6922041Y+5393309D01*
X+5967314Y+5393308D01*
X+5919973Y+5440649D01*
X+5644760Y+5440649D01*
X+5619839Y+5415728D01*
X+5619839Y+6800000D01*
X+6922041Y+6800000D01*
X+6922041Y+6657761D01*
G37*
%LPC*%
G36*
X+6628779Y+5647881D02*
X+5866781Y+5647881D01*
X+5866781Y+6562279D01*
X+6628779Y+6562279D01*
X+6628779Y+5647881D01*
G37*
%LPD*%
G36*
X+8758926Y+5222249D02*
X+8758926Y+5188013D01*
X+8754296Y+5155935D01*
X+8746226Y+5147865D01*
X+8746226Y+5032135D01*
X+8828060Y+4950301D01*
X+8943790Y+4950301D01*
X+9023002Y+5029513D01*
X+9023002Y+4827396D01*
X+9197397Y+4653001D01*
X+9275437Y+4653001D01*
X+9260301Y+4637865D01*
X+9260301Y+4626455D01*
X+9240885Y+4600487D01*
X+9172455Y+4532057D01*
X+9023653Y+4532057D01*
X+8892952Y+4401356D01*
X+8892952Y+3944612D01*
X+8857865Y+3979699D01*
X+8604309Y+3979699D01*
X+8604309Y+4044309D01*
X+8215691Y+4044309D01*
X+8215691Y+3655691D01*
X+8604309Y+3655691D01*
X+8604309Y+3700301D01*
X+8857865Y+3700301D01*
X+8892952Y+3735388D01*
X+8892952Y+3395735D01*
X+8336811Y+3398516D01*
X+8289428Y+3445899D01*
X+8110572Y+3445899D01*
X+8064550Y+3399877D01*
X+6296610Y+3408717D01*
X+6259428Y+3445899D01*
X+6080572Y+3445899D01*
X+6044650Y+3409977D01*
X+4779823Y+3416301D01*
X+4820365Y+3416301D01*
X+5011458Y+3607394D01*
X+5011458Y+3539396D01*
X+5093292Y+3457562D01*
X+5209022Y+3457562D01*
X+5290856Y+3539396D01*
X+5290856Y+3635621D01*
X+5490301Y+3635621D01*
X+5490301Y+3532135D01*
X+5572135Y+3450301D01*
X+5687865Y+3450301D01*
X+5769699Y+3532135D01*
X+5769699Y+3647865D01*
X+5761629Y+3655935D01*
X+5756999Y+3688013D01*
X+5756999Y+3729351D01*
X+5765691Y+3729351D01*
X+5765691Y+3655691D01*
X+6154309Y+3655691D01*
X+6154309Y+4044309D01*
X+5765691Y+4044309D01*
X+5765691Y+3970649D01*
X+5704465Y+3970649D01*
X+5698115Y+3976999D01*
X+5547395Y+3976999D01*
X+5539775Y+3969379D01*
X+5505889Y+3969379D01*
X+5505889Y+4064379D01*
X+5486999Y+4064379D01*
X+5486999Y+4168711D01*
X+5495889Y+4168711D01*
X+5495889Y+4491289D01*
X+5273689Y+4491289D01*
X+5283199Y+4512135D01*
X+5283199Y+4627865D01*
X+5252703Y+4658361D01*
X+5330716Y+4658361D01*
X+5560501Y+4888146D01*
X+5560501Y+4848601D01*
X+6588401Y+4848601D01*
X+6588401Y+4799579D01*
X+6699638Y+4688342D01*
X+7225897Y+4688342D01*
X+7073001Y+4535446D01*
X+7073001Y+4521289D01*
X+7064111Y+4521289D01*
X+7064111Y+4198711D01*
X+7279351Y+4198711D01*
X+7279351Y+4108213D01*
X+7227865Y+4159699D01*
X+7112135Y+4159699D01*
X+7046999Y+4094563D01*
X+7046999Y+4212603D01*
X+6782604Y+4476998D01*
X+6190405Y+4476998D01*
X+6157980Y+4489584D01*
X+6137865Y+4509699D01*
X+6022135Y+4509699D01*
X+5940301Y+4427865D01*
X+5940301Y+4312135D01*
X+5988441Y+4263995D01*
X+5988694Y+4263614D01*
X+5989055Y+4263381D01*
X+6022135Y+4230301D01*
X+6040289Y+4230301D01*
X+6051594Y+4223002D01*
X+6496347Y+4223002D01*
X+6496347Y+4159904D01*
X+6509047Y+4147204D01*
X+6509047Y+4084531D01*
X+6549269Y+4044309D01*
X+6215691Y+4044309D01*
X+6215691Y+3655691D01*
X+6604309Y+3655691D01*
X+6604309Y+3704208D01*
X+6637445Y+3704208D01*
X+6635721Y+3692268D01*
X+6627651Y+3684198D01*
X+6627651Y+3568468D01*
X+6709485Y+3486634D01*
X+6825215Y+3486634D01*
X+6871972Y+3533391D01*
X+6931728Y+3473635D01*
X+7047458Y+3473635D01*
X+7112820Y+3538998D01*
X+7136868Y+3514950D01*
X+7252598Y+3514950D01*
X+7334432Y+3596784D01*
X+7334432Y+3635621D01*
X+7535889Y+3635621D01*
X+7535889Y+3730621D01*
X+7550505Y+3730621D01*
X+7547667Y+3710956D01*
X+7539597Y+3702886D01*
X+7539597Y+3587156D01*
X+7621431Y+3505322D01*
X+7737161Y+3505322D01*
X+7818995Y+3587156D01*
X+7818995Y+3655691D01*
X+8154309Y+3655691D01*
X+8154309Y+4044309D01*
X+7765691Y+4044309D01*
X+7765691Y+3970649D01*
X+7741822Y+3970649D01*
X+7735473Y+3976998D01*
X+7630265Y+3976998D01*
X+7623916Y+3970649D01*
X+7580026Y+3970649D01*
X+7578756Y+3969379D01*
X+7535889Y+3969379D01*
X+7535889Y+4064379D01*
X+7520649Y+4064379D01*
X+7520649Y+4198711D01*
X+7535889Y+4198711D01*
X+7535889Y+4521289D01*
X+7420376Y+4521289D01*
X+7437113Y+4533804D01*
X+7448525Y+4533804D01*
X+7530359Y+4615638D01*
X+7530359Y+4688342D01*
X+8331347Y+4688342D01*
X+8363719Y+4682388D01*
X+8373891Y+4672216D01*
X+8489621Y+4672216D01*
X+8571455Y+4754050D01*
X+8571455Y+4869780D01*
X+8489621Y+4951614D01*
X+8373891Y+4951614D01*
X+8367950Y+4945673D01*
X+8336264Y+4942340D01*
X+6981299Y+4942340D01*
X+6981299Y+5006761D01*
X+7319839Y+5006761D01*
X+7319839Y+5018661D01*
X+7822720Y+5018661D01*
X+7854798Y+5014031D01*
X+7862868Y+5005961D01*
X+7978598Y+5005961D01*
X+8060432Y+5087795D01*
X+8060432Y+5203525D01*
X+7991296Y+5272661D01*
X+8708514Y+5272661D01*
X+8758926Y+5222249D01*
G37*
G36*
X+3083001Y+4064379D02*
X+3074111Y+4064379D01*
X+3074111Y+3635621D01*
X+3270301Y+3635621D01*
X+3270301Y+3542135D01*
X+3352135Y+3460301D01*
X+3467865Y+3460301D01*
X+3492750Y+3485186D01*
X+3555513Y+3422423D01*
X+2239699Y+3429002D01*
X+2529104Y+3429002D01*
X+2689769Y+3589667D01*
X+2736135Y+3543301D01*
X+2851865Y+3543301D01*
X+2933699Y+3625135D01*
X+2933699Y+4052680D01*
X+2983501Y+4052680D01*
X+3024418Y+4093597D01*
X+3024418Y+4151463D01*
X+3007170Y+4168711D01*
X+3083001Y+4168711D01*
X+3083001Y+4064379D01*
G37*
G36*
X+229501Y+3513501D02*
X+229501Y+3439053D01*
X+134480Y+3439528D01*
X+134480Y+3564301D01*
X+229501Y+3564301D01*
X+229501Y+3513501D01*
G37*
G36*
X+894111Y+3805621D02*
X+894111Y+3615621D01*
X+1126084Y+3615621D01*
X+1126084Y+3511430D01*
X+1203330Y+3434184D01*
X+836998Y+3436015D01*
X+836999Y+3731986D01*
X+841629Y+3764065D01*
X+849699Y+3772135D01*
X+849699Y+3860801D01*
X+883365Y+3860801D01*
X+894111Y+3871547D01*
X+894111Y+3805621D01*
G37*
G36*
X+2749501Y+7341912D02*
X+2749501Y+7199501D01*
X+3539640Y+7199501D01*
X+3396755Y+7056616D01*
X+3396755Y+6545865D01*
X+3488004Y+6454616D01*
X+2099583Y+6454616D01*
X+2089699Y+6464500D01*
X+2089699Y+6588711D01*
X+2295889Y+6588711D01*
X+2295889Y+6688325D01*
X+2309699Y+6702135D01*
X+2309699Y+6910301D01*
X+2335099Y+6910301D01*
X+2335099Y+7189699D01*
X+1774901Y+7189699D01*
X+1774901Y+6992557D01*
X+1672393Y+6992557D01*
X+1672393Y+7026101D01*
X+1728899Y+7026101D01*
X+1728899Y+7352680D01*
X+1774322Y+7352680D01*
X+1774901Y+7353259D01*
X+1774901Y+7225261D01*
X+2335099Y+7225261D01*
X+2335099Y+7355701D01*
X+2742065Y+7355701D01*
X+2749501Y+7341912D01*
G37*
G36*
X+1211101Y+7026101D02*
X+1257701Y+7026101D01*
X+1257702Y+6959699D01*
X+1079699Y+6959699D01*
X+1079699Y+7129501D01*
X+1170499Y+7129501D01*
X+1170499Y+7215701D01*
X+1211101Y+7215701D01*
X+1211101Y+7026101D01*
G37*
G36*
X+1355381Y+6763959D02*
X+1800301Y+6763959D01*
X+1800301Y+6712135D01*
X+1810301Y+6702135D01*
X+1810301Y+6304632D01*
X+813285Y+6304632D01*
X+548837Y+6040184D01*
X+548837Y+5781204D01*
X+427332Y+5659699D01*
X+420499Y+5659699D01*
X+420499Y+6110499D01*
X+306107Y+6110499D01*
X+326709Y+6131101D01*
X+626899Y+6131101D01*
X+626899Y+6381101D01*
X+646399Y+6381101D01*
X+646399Y+6631250D01*
X+742421Y+6631250D01*
X+754901Y+6643730D01*
X+754901Y+6365341D01*
X+1325099Y+6365341D01*
X+1325099Y+6644739D01*
X+755910Y+6644739D01*
X+791472Y+6680301D01*
X+1325099Y+6680301D01*
X+1325099Y+6794241D01*
X+1355381Y+6763959D01*
G37*
G36*
X+4093697Y+6205335D02*
X+4130895Y+6168137D01*
X+4396478Y+6168137D01*
X+4348104Y+6119763D01*
X+4348104Y+5209702D01*
X+4467553Y+5090253D01*
X+4486968Y+5064288D01*
X+4486968Y+5052876D01*
X+4568802Y+4971042D01*
X+4582978Y+4971042D01*
X+4501635Y+4889699D01*
X+3858901Y+4889699D01*
X+3903748Y+4934546D01*
X+3903748Y+5050276D01*
X+3821914Y+5132110D01*
X+3706184Y+5132110D01*
X+3698114Y+5124040D01*
X+3666035Y+5119410D01*
X+2349448Y+5119410D01*
X+2316835Y+5127102D01*
X+2303989Y+5139948D01*
X+2188259Y+5139948D01*
X+2159699Y+5111388D01*
X+2159699Y+5253726D01*
X+2294758Y+5388785D01*
X+2749501Y+5388785D01*
X+2749501Y+5339501D01*
X+3892499Y+5339501D01*
X+3892499Y+5720499D01*
X+3841699Y+5720499D01*
X+3841699Y+5978137D01*
X+3713887Y+6105949D01*
X+2023513Y+6105949D01*
X+2089699Y+6172135D01*
X+2089699Y+6200618D01*
X+3887898Y+6200618D01*
X+3919976Y+6195988D01*
X+3928046Y+6187918D01*
X+4043776Y+6187918D01*
X+4077445Y+6221587D01*
X+4093697Y+6205335D01*
G37*
%LPC*%
G36*
X+4090150Y+6031067D02*
X+4090150Y+6088933D01*
X+4131067Y+6129850D01*
X+4188933Y+6129850D01*
X+4229850Y+6088933D01*
X+4229850Y+6031067D01*
X+4188933Y+5990150D01*
X+4131067Y+5990150D01*
X+4090150Y+6031067D01*
G37*
%LPD*%
G36*
X+4160000Y+6060000D02*
X+4141335Y+6056190D01*
X+4160000Y+5964750D01*
X+4178665Y+6056190D01*
X+4160000Y+6060000D01*
G37*
G36*
X+9512135Y+5970301D02*
X+9519501Y+5970301D01*
X+9519501Y+5674173D01*
X+9322461Y+5871213D01*
X+9322461Y+5871213D01*
X+9315864Y+5877810D01*
X+9315865Y+6027485D01*
X+9320495Y+6059566D01*
X+9328565Y+6067636D01*
X+9328565Y+6148961D01*
X+9333475Y+6148961D01*
X+9512135Y+5970301D01*
G37*
G36*
X+774279Y+4691843D02*
X+610499Y+4528063D01*
X+610499Y+5268499D01*
X+386063Y+5268499D01*
X+497865Y+5380301D01*
X+543062Y+5380301D01*
X+774279Y+5611518D01*
X+774279Y+4691843D01*
G37*
G36*
X+3562301Y+5720499D02*
X+2749501Y+5720499D01*
X+2749501Y+5668183D01*
X+2179028Y+5668183D01*
X+1880301Y+5369456D01*
X+1880301Y+4024309D01*
X+1825691Y+4024309D01*
X+1825691Y+3682999D01*
X+1764309Y+3682999D01*
X+1764309Y+4024309D01*
X+1375691Y+4024309D01*
X+1375691Y+3950649D01*
X+1318953Y+3950649D01*
X+1312604Y+3956998D01*
X+1207396Y+3956998D01*
X+1199777Y+3949379D01*
X+1165889Y+3949379D01*
X+1165889Y+4044379D01*
X+1156999Y+4044379D01*
X+1156998Y+4068711D01*
X+1165889Y+4068711D01*
X+1165889Y+4216547D01*
X+1232135Y+4150301D01*
X+1347865Y+4150301D01*
X+1429699Y+4232135D01*
X+1429699Y+4347865D01*
X+1423881Y+4353683D01*
X+1420623Y+4385339D01*
X+1420623Y+4906157D01*
X+1425253Y+4938234D01*
X+1433323Y+4946304D01*
X+1433323Y+5062034D01*
X+1351489Y+5143868D01*
X+1235759Y+5143868D01*
X+1153925Y+5062034D01*
X+1153925Y+4946304D01*
X+1161992Y+4938237D01*
X+1166625Y+4906151D01*
X+1166625Y+4390548D01*
X+1165889Y+4386596D01*
X+1165889Y+4391289D01*
X+868853Y+4391289D01*
X+1053677Y+4576113D01*
X+1053677Y+5687097D01*
X+1193131Y+5826551D01*
X+3562301Y+5826551D01*
X+3562301Y+5720499D01*
G37*
G36*
X+2188259Y+4860550D02*
X+2303989Y+4860550D01*
X+2307141Y+4863702D01*
X+2338163Y+4865412D01*
X+3007848Y+4865412D01*
X+2654301Y+4511865D01*
X+2654301Y+4211979D01*
X+2604216Y+4211979D01*
X+2563299Y+4171062D01*
X+2563299Y+4140199D01*
X+2545635Y+4140199D01*
X+2463801Y+4058365D01*
X+2463801Y+3942635D01*
X+2471870Y+3934566D01*
X+2476501Y+3902483D01*
X+2476501Y+3894685D01*
X+2398804Y+3972382D01*
X+2214309Y+3972382D01*
X+2214309Y+4024309D01*
X+2159699Y+4024309D01*
X+2159699Y+4889110D01*
X+2188259Y+4860550D01*
G37*
%LPC*%
G36*
X+2567218Y+4650528D02*
X+2567218Y+4708394D01*
X+2608135Y+4749311D01*
X+2666001Y+4749311D01*
X+2706918Y+4708394D01*
X+2706918Y+4650528D01*
X+2666001Y+4609611D01*
X+2608135Y+4609611D01*
X+2567218Y+4650528D01*
G37*
%LPD*%
G36*
X+2637068Y+4679461D02*
X+2624431Y+4678203D01*
X+2633149Y+4590648D01*
X+2649545Y+4677095D01*
X+2637068Y+4679461D01*
G37*
G36*
X+9519501Y+4329501D02*
X+9519501Y+3516999D01*
X+9392399Y+3516999D01*
X+9392399Y+3529699D01*
X+9146950Y+3529699D01*
X+9146950Y+4278059D01*
X+9277661Y+4278059D01*
X+9420492Y+4420890D01*
X+9446452Y+4440301D01*
X+9457865Y+4440301D01*
X+9519501Y+4501937D01*
X+9519501Y+4329501D01*
G37*
D10*
X+1260000Y+3830000D02*
X+1570000Y+3830000D01*
D11*
X+1260000Y+3830000D02*
X+1265783Y+3824217D01*
X+1265783Y+3569295D01*
X+1030000Y+3925000D02*
X+1030000Y+4230000D01*
D12*
X+1760000Y+3230000D02*
X+1760000Y+2450000D01*
X+1760000Y+840000D02*
X+1760000Y+2450000D01*
X+1758000Y+530000D02*
X+1760000Y+532000D01*
X+1760000Y+840000D01*
X+1160000Y+1810000D02*
X+1160000Y+1390000D01*
X+1160000Y+850000D02*
X+1160000Y+1390000D01*
X+1250000Y+530000D02*
X+1160000Y+620000D01*
X+1160000Y+850000D01*
X+2266000Y+530000D02*
X+2360000Y+624000D01*
X+2360000Y+820000D01*
X+2360000Y+1810000D02*
X+2360000Y+1390000D01*
X+2360000Y+820000D01*
D11*
X+3440000Y+3850000D02*
X+3410000Y+3850000D01*
X+3410000Y+3600000D01*
D10*
X+3440000Y+3850000D02*
X+3780000Y+3850000D01*
D11*
X+3210000Y+3945000D02*
X+3210000Y+4330000D01*
D12*
X+3980000Y+3230000D02*
X+3980000Y+2420000D01*
X+3980000Y+820000D02*
X+3980000Y+2420000D01*
X+3968000Y+530000D02*
X+3980000Y+542000D01*
X+3980000Y+820000D01*
X+3460000Y+530000D02*
X+3380000Y+610000D01*
X+3380000Y+820000D01*
X+3380000Y+1810000D02*
X+3380000Y+1410000D01*
X+3380000Y+820000D01*
X+4476000Y+530000D02*
X+4580000Y+634000D01*
X+4580000Y+810000D01*
X+4580000Y+1810000D02*
X+4580000Y+1390000D01*
X+4580000Y+810000D01*
D10*
X+5645510Y+3850000D02*
X+5960000Y+3850000D01*
D11*
X+5630000Y+3590000D02*
X+5630000Y+3834490D01*
X+5645510Y+3850000D01*
X+5600000Y+3850000D01*
X+5370000Y+3945000D02*
X+5360000Y+3955000D01*
X+5360000Y+4330000D01*
D12*
X+6168000Y+530000D02*
X+6170000Y+532000D01*
X+6170000Y+820000D01*
X+6170000Y+3230000D02*
X+6170000Y+2390000D01*
X+6170000Y+820000D01*
X+5570000Y+1810000D02*
X+5570000Y+1410000D01*
X+5570000Y+800000D02*
X+5570000Y+1410000D01*
X+5660000Y+530000D02*
X+5570000Y+620000D01*
X+5570000Y+800000D01*
X+6676000Y+530000D02*
X+6770000Y+624000D01*
X+6770000Y+810000D01*
X+6770000Y+1810000D02*
X+6770000Y+1410000D01*
X+6770000Y+810000D01*
D11*
X+7679296Y+3645021D02*
X+7679296Y+3846427D01*
X+7682869Y+3850000D01*
D10*
X+7630000Y+3850000D01*
X+7682869Y+3850000D02*
X+7960000Y+3850000D01*
X+7400000Y+3945000D02*
X+7400000Y+4360000D01*
D12*
X+8232000Y+540000D02*
X+8200000Y+572000D01*
X+8200000Y+830000D01*
X+8200000Y+3230000D02*
X+8200000Y+2410000D01*
X+8200000Y+830000D01*
X+7600000Y+1810000D02*
X+7600000Y+1420000D01*
X+7600000Y+820000D02*
X+7600000Y+1420000D01*
X+7724000Y+540000D02*
X+7600000Y+664000D01*
X+7600000Y+820000D01*
X+8800000Y+1810000D02*
X+8800000Y+820000D01*
X+8740000Y+540000D02*
X+8800000Y+600000D01*
X+8800000Y+820000D01*
D11*
X+7920733Y+5145660D02*
X+7922100Y+5147027D01*
X+7920733Y+5145660D02*
X+7120940Y+5145660D01*
D13*
X+2160000Y+6750000D02*
X+2170000Y+6760000D01*
X+2170000Y+7050000D01*
D11*
X+3990000Y+6820000D02*
X+4732289Y+6820000D01*
X+4795954Y+6756335D01*
X+4795954Y+6690000D01*
D13*
X+4800000Y+6690000D02*
X+4795954Y+6690000D01*
X+4700000Y+6690000D01*
D11*
X+1960000Y+6750000D02*
X+1960000Y+6414597D01*
X+2046980Y+6327617D01*
X+3985911Y+6327617D01*
D14*
X+1940000Y+6878258D02*
X+1402724Y+6878258D01*
X+1372000Y+6908982D01*
X+1372000Y+7050000D01*
D13*
X+1960000Y+6750000D02*
X+1940000Y+6770000D01*
X+1940000Y+6878258D01*
X+1940000Y+7050000D01*
X+9710000Y+3416000D02*
X+9930000Y+3636000D01*
X+9930000Y+6350000D01*
X+9930000Y+6552486D02*
X+9836486Y+6646000D01*
X+9710000Y+6646000D01*
D11*
X+9930000Y+6350000D02*
X+9930000Y+6552486D01*
D13*
X+9343894Y+2330000D02*
X+9698000Y+2330000D01*
X+9710000Y+2342000D01*
X+9350440Y+2865674D02*
X+9343894Y+2859128D01*
X+9343894Y+2330000D01*
X+9343894Y+1210000D01*
X+9710000Y+1210000D01*
X+420000Y+2588000D02*
X+407955Y+2575955D01*
X+258233Y+2575955D01*
X+160000Y+2477722D01*
X+160000Y+1700000D01*
X+160000Y+1560000D02*
X+160000Y+1700000D01*
X+4940000Y+6690000D02*
X+4960340Y+6669660D01*
X+5420940Y+6669660D01*
X+4800000Y+6690000D02*
X+4940000Y+6690000D01*
X+4950000Y+6690000D01*
D11*
X+9710000Y+3416000D02*
X+9684000Y+3390000D01*
X+9240000Y+3390000D01*
D13*
X+960000Y+6820000D02*
X+1160000Y+6820000D01*
X+980000Y+7320000D02*
X+940000Y+7320000D01*
X+940000Y+6870800D01*
X+920000Y+6820000D01*
X+960000Y+6820000D01*
X+2940000Y+5530000D02*
X+2938484Y+5528484D01*
X+2236893Y+5528484D01*
X+2020000Y+5311591D01*
X+2020000Y+3830000D01*
X+6635855Y+3843907D02*
X+6629762Y+3850000D01*
X+6410000Y+3850000D01*
X+4476559Y+3837206D02*
X+4242794Y+3837206D01*
X+4230000Y+3850000D01*
X+2020000Y+3830000D02*
X+2022683Y+3832683D01*
X+2340939Y+3832683D01*
D14*
X+1528980Y+7466979D02*
X+1566171Y+7429788D01*
X+1566171Y+7331829D01*
X+1568000Y+7330000D01*
X+1372000Y+7330000D02*
X+1372000Y+7433968D01*
X+1405011Y+7466979D01*
X+1460000Y+7466979D01*
X+2940000Y+7390000D02*
X+2860000Y+7470000D01*
X+1730000Y+7470000D01*
X+1726979Y+7466979D01*
X+1528980Y+7466979D01*
X+1460000Y+7466979D01*
X+980000Y+7320000D02*
X+990000Y+7330000D01*
X+1220000Y+7330000D01*
X+1372000Y+7330000D01*
D13*
X+8800000Y+3840000D02*
X+8420000Y+3840000D01*
X+8410000Y+3850000D01*
D11*
X+8381796Y+5867433D02*
X+8380000Y+5865637D01*
X+8380000Y+5760000D01*
X+8273660Y+5653660D01*
X+7120940Y+5653660D01*
X+8431756Y+4811915D02*
X+8428330Y+4815341D01*
X+6752241Y+4815341D01*
X+6715400Y+4852182D01*
X+6715400Y+5047500D01*
D13*
X+5143500Y+5588000D02*
X+5204840Y+5526660D01*
X+5420940Y+5526660D01*
X+3619500Y+3556000D02*
X+4762500Y+3556000D01*
X+4889500Y+3683000D01*
X+4889500Y+4273580D01*
X+5124420Y+4508500D01*
X+5143500Y+4570000D01*
D11*
X+9260000Y+3176640D02*
X+9710494Y+3176640D01*
X+9715144Y+3171990D01*
X+9710000Y+3162000D01*
X+9260000Y+3176640D02*
X+9240000Y+3176640D01*
D15*
X+1502512Y+7050000D02*
X+1502512Y+7140000D01*
D14*
X+1407000Y+7190000D02*
X+1293252Y+7190000D01*
X+1214704Y+7111452D01*
X+1214704Y+6975296D01*
X+1160000Y+6505040D02*
X+1162941Y+6502099D01*
X+1254391Y+6502099D01*
X+1292469Y+6540177D01*
X+1292469Y+6824638D01*
X+1292469Y+6897531D01*
X+1220000Y+6970000D01*
X+1214704Y+6975296D02*
X+1220000Y+6970000D01*
D13*
X+1160000Y+6505040D02*
X+960000Y+6505040D01*
X+920000Y+6505040D02*
X+960000Y+6505040D01*
D14*
X+1470000Y+7190000D02*
X+1407000Y+7190000D01*
D13*
X+4540000Y+6660000D02*
X+4540000Y+6590000D01*
X+4540000Y+6660000D02*
X+4540000Y+6690000D01*
D11*
X+3194000Y+7390000D02*
X+3188797Y+7384797D01*
X+3188797Y+7164546D01*
X+3129509Y+7105258D01*
X+3050000Y+7105258D02*
X+2527273Y+7105258D01*
X+2267571Y+7364960D01*
X+2174960Y+7364960D01*
X+3129509Y+7105258D02*
X+3050000Y+7105258D01*
D13*
X+2170000Y+7364960D02*
X+2180000Y+7370000D01*
X+2174960Y+7364960D01*
X+1940000Y+7364960D02*
X+2170000Y+7364960D01*
D11*
X+2174960Y+7364960D01*
X+1533000Y+7190000D02*
X+1650550Y+7190000D01*
X+1679999Y+7190000D01*
X+1854959Y+7364960D01*
X+1940000Y+7364960D01*
X+1470000Y+7190000D02*
X+1533000Y+7190000D01*
D15*
X+1470000Y+7190000D02*
X+1494217Y+7179121D01*
X+1502512Y+7170826D01*
X+1502512Y+7140000D01*
X+1502512Y+7050000D02*
X+1568000Y+7050000D01*
D13*
X+4540000Y+6590000D02*
X+4540000Y+6490000D01*
D14*
X+5370000Y+3755000D02*
X+5511337Y+3896337D01*
X+5511337Y+3987060D01*
X+5511337Y+4859437D01*
X+5699400Y+5047500D01*
X+5370000Y+3755000D02*
X+5360575Y+3745575D01*
D13*
X+5360575Y+3503830D01*
X+5360575Y+3413901D01*
X+7824740Y+7070000D02*
X+7748767Y+7145973D01*
X+7748767Y+7427233D01*
X+7746000Y+7430000D01*
X+7887275Y+7070000D02*
X+8610000Y+7070000D01*
X+7824740Y+7070000D02*
X+7887275Y+7070000D01*
X+7120940Y+6796660D02*
X+7394280Y+7070000D01*
X+7824740Y+7070000D01*
X+9190000Y+7430000D02*
X+9190000Y+7170000D01*
X+9090000Y+7070000D01*
X+8610000Y+7070000D01*
X+8610000Y+7200000D01*
X+8610000Y+7430000D01*
X+7120940Y+6796660D02*
X+7090000Y+6796660D01*
D11*
X+5420940Y+6796660D02*
X+7090000Y+6796660D01*
X+1030000Y+3413901D02*
X+1030000Y+3735000D01*
X+5360575Y+3413901D02*
X+3212997Y+3413901D01*
D13*
X+3210000Y+3416898D01*
X+3210000Y+3755000D01*
D11*
X+5360575Y+3413901D02*
X+7272966Y+3413901D01*
X+7333441Y+3474376D01*
X+7400000Y+3540935D01*
X+7400000Y+3755000D01*
X+7053197Y+287109D02*
X+7120306Y+220000D01*
X+8905410Y+220000D01*
X+9150000Y+464590D01*
X+9150000Y+1560000D01*
X+9160000Y+1570000D01*
X+6080000Y+4370000D02*
X+6089031Y+4350000D01*
X+6730000Y+4350000D01*
X+6920000Y+4160000D01*
X+6920000Y+3682927D01*
X+6989593Y+3613334D01*
D13*
X+4727503Y+6034762D02*
X+4727605Y+6034660D01*
X+5420940Y+6034660D01*
X+4953000Y+4889500D02*
X+5209160Y+5145660D01*
X+5420940Y+5145660D01*
X+825500Y+4000500D02*
X+830000Y+4005000D01*
X+830000Y+4230000D01*
D10*
X+7120940Y+5272660D02*
X+5917340Y+5272660D01*
X+5870000Y+5320000D01*
X+5694733Y+5320000D01*
X+5577930Y+5203197D01*
X+5577930Y+5076197D01*
X+5280743Y+4779010D01*
X+4723213Y+4779010D01*
X+4554203Y+4610000D01*
X+3130000Y+4610000D01*
X+3010000Y+4490000D01*
X+3010000Y+4330000D01*
D11*
X+7120940Y+5907660D02*
X+7110340Y+5906671D01*
X+7120940Y+5897660D01*
X+7120940Y+5907660D01*
X+7388135Y+5782228D02*
X+7132681Y+5782228D01*
X+7127227Y+5776774D01*
X+7120940Y+5780660D01*
X+7390660Y+4673503D02*
X+7200000Y+4482843D01*
X+7200000Y+4360000D01*
X+4626667Y+5110741D02*
X+4475103Y+5262305D01*
X+4475103Y+6067160D01*
X+4614276Y+6206333D01*
X+5244389Y+6206333D01*
X+5289062Y+6161660D01*
X+5420940Y+6161660D01*
X+4000500Y+4000500D02*
X+4000500Y+3674425D01*
X+4635500Y+3674425D01*
X+4762500Y+3801425D01*
X+4762500Y+4381500D01*
X+4640000Y+4520000D01*
X+1460500Y+3556000D02*
X+2476500Y+3556000D01*
X+2603500Y+3683000D01*
X+2603500Y+4000500D01*
D13*
X+4950000Y+6490000D02*
X+4810000Y+6490000D01*
X+4700000Y+6490000D02*
X+4810000Y+6490000D01*
X+4950000Y+6490000D02*
X+5000000Y+6490000D01*
X+5052660Y+6542660D01*
X+5420940Y+6542660D01*
X+7651826Y+6085007D02*
X+7575173Y+6161660D01*
X+7120940Y+6161660D01*
X+3702000Y+5530000D02*
X+3702000Y+5920272D01*
X+3656022Y+5966250D01*
X+1135266Y+5966250D01*
X+913978Y+5744962D01*
X+913978Y+4633978D01*
X+591401Y+4311401D01*
X+424599Y+4311401D01*
X+420000Y+4316000D01*
D11*
X+7120940Y+5526660D02*
X+8913340Y+5526660D01*
X+9150000Y+5290000D01*
X+9150000Y+4880000D01*
X+9250000Y+4780000D01*
X+9704000Y+4780000D01*
X+9710000Y+4774000D01*
X+8885925Y+5090000D02*
X+8885925Y+5274852D01*
X+8761117Y+5399660D01*
X+7120940Y+5399660D01*
D13*
X+7120940Y+6288660D02*
X+9391340Y+6288660D01*
X+9570000Y+6110000D01*
X+9708000Y+6110000D01*
X+9710000Y+6108000D01*
X+9710000Y+6138000D01*
D11*
X+7120940Y+6415660D02*
X+9656340Y+6415660D01*
X+9710000Y+6362000D01*
X+9710000Y+6392000D01*
D10*
X+4540000Y+6690000D02*
X+4312183Y+6690000D01*
X+4224748Y+6602565D01*
D11*
X+5420940Y+6415660D02*
X+5222249Y+6415660D01*
X+5135961Y+6329372D01*
X+3764049Y+4992411D02*
X+2253962Y+4992411D01*
X+2246124Y+5000249D01*
X+1293624Y+5004169D02*
X+1293624Y+4293624D01*
X+1290000Y+4290000D01*
X+710000Y+3830000D02*
X+710000Y+3017274D01*
X+635106Y+2942380D01*
X+420380Y+2942380D01*
X+420000Y+2942000D01*
X+2950000Y+3413901D02*
X+2950000Y+4117962D01*
X+2954568Y+4122530D01*
X+2633149Y+4142129D02*
X+2633149Y+4675542D01*
X+2637068Y+4679461D01*
X+1030000Y+3413901D02*
X+2690000Y+3413901D01*
X+2950000Y+3413901D01*
X+3212997Y+3413901D01*
D13*
X+5420940Y+5907660D02*
X+4891660Y+5907660D01*
X+4810000Y+5826000D01*
X+4810000Y+5000500D01*
X+4559500Y+4750000D01*
X+3090000Y+4750000D01*
X+2794000Y+4454000D01*
X+2794000Y+3683000D01*
X+9343894Y+1210000D02*
X+9343894Y+336585D01*
X+9097309Y+90000D01*
X+770000Y+90000D01*
X+690000Y+170000D01*
X+690000Y+420000D01*
X+621889Y+488111D01*
X+314205Y+488111D01*
X+160000Y+642316D01*
X+160000Y+1444715D01*
X+420000Y+1468000D02*
X+173285Y+1468000D01*
X+160000Y+1454715D01*
X+160000Y+1444715D01*
X+160000Y+1454715D02*
X+160000Y+1560000D01*
X+2794000Y+2540000D02*
X+2794000Y+381000D01*
X+2667000Y+254000D01*
X+1000000Y+254000D01*
X+890000Y+364000D01*
X+890000Y+593015D01*
X+758344Y+724671D01*
X+438671Y+724671D01*
X+420000Y+706000D01*
D11*
X+5420940Y+5780660D02*
X+5126970Y+5780660D01*
X+5121363Y+5775053D01*
X+6636046Y+4217769D02*
X+6636046Y+4137134D01*
X+6767350Y+4005830D01*
X+6767350Y+3626333D01*
X+7003953Y+1120543D02*
X+7027248Y+1097248D01*
X+7027248Y+721704D01*
X+7434048Y+314904D01*
X+8846061Y+314904D01*
X+9024591Y+493434D01*
X+9024591Y+955990D01*
X+9240000Y+3176640D02*
X+9116005Y+3176640D01*
X+9019951Y+3272694D01*
X+9019951Y+4348753D01*
X+9076256Y+4405058D01*
X+9225058Y+4405058D01*
X+9400000Y+4580000D01*
X+9401576Y+4924318D02*
X+9401576Y+5612496D01*
X+9232660Y+5781412D01*
X+9188866Y+5825206D01*
X+9188866Y+6125501D01*
X+9176354Y+6694811D02*
X+7244811Y+6694811D01*
X+7214695Y+6664695D01*
X+7132772Y+6664695D01*
X+7120940Y+6669660D01*
D10*
X+4160000Y+6060000D02*
X+4160000Y+5419157D01*
X+3906000Y+5165157D01*
X+3314843Y+5165157D01*
X+3190000Y+5290000D01*
X+3190000Y+5526000D01*
X+3194000Y+5530000D01*
D11*
X+7120940Y+6542660D02*
X+7443823Y+6542660D01*
X+7443994Y+6542489D01*
X+5160000Y+4330000D02*
X+5160000Y+3606104D01*
X+5151157Y+3597261D01*
X+7194733Y+3654649D02*
X+7190000Y+3654649D01*
X+7190000Y+4000000D01*
X+7170000Y+4020000D01*
X+7490000Y+5910000D02*
X+7133851Y+5910000D01*
X+7120940Y+5907660D01*
D13*
X+420000Y+3704000D02*
X+178667Y+3704000D01*
X+139033Y+3743634D01*
X+139033Y+5219033D01*
X+440000Y+5520000D01*
X+485197Y+5520000D01*
X+688536Y+5723339D01*
X+688536Y+5982319D01*
X+871150Y+6164933D01*
X+1884933Y+6164933D01*
X+1950000Y+6230000D01*
X+1950000Y+6740000D01*
X+1960000Y+6750000D01*
D11*
X+4700000Y+6490000D02*
X+4700000Y+6375696D01*
X+4619440Y+6295136D01*
X+4183498Y+6295136D01*
X+4082269Y+6396365D01*
X+4082269Y+6502417D01*
X+3619805Y+6502417D01*
X+3523754Y+6598468D01*
X+3523754Y+7004013D01*
X+3634034Y+7114293D01*
X+3924293Y+7114293D01*
X+4050000Y+7240000D01*
X+4050000Y+7291912D01*
X+4174762Y+7416674D01*
X+4696674Y+7416674D01*
X+4700000Y+7420000D01*
X+5420940Y+6796660D02*
X+5093599Y+6796660D01*
X+5046330Y+6843929D01*
X+5046330Y+7313509D01*
X+5041439Y+7318400D01*
X+4954000Y+7420000D01*
D16*
X+490000Y+6750000D02*
X+510940Y+6770940D01*
D13*
X+510949Y+6770949D01*
X+684556Y+6770949D01*
X+745660Y+6832053D01*
X+745660Y+7300340D01*
X+726000Y+7320000D01*
X+222000Y+6950000D02*
X+458000Y+6950000D01*
X+468000Y+6940000D01*
X+222000Y+6950000D02*
X+222000Y+6740000D01*
X+222000Y+6500000D01*
X+222000Y+6290000D02*
X+458000Y+6290000D01*
X+468000Y+6300000D01*
X+9710000Y+6646000D02*
X+9730129Y+6599360D01*
X+9836999Y+6645487D01*
X+9730507Y+6692476D01*
X+9710000Y+6646000D01*
D11*
X+9710000Y+6392000D02*
X+9691129Y+6452632D01*
X+9572319Y+6415660D01*
X+9671974Y+6341145D01*
X+9710000Y+6392000D01*
D13*
X+9710000Y+6138000D02*
X+9679913Y+6178933D01*
X+9586126Y+6110000D01*
X+9700446Y+6088107D01*
X+9710000Y+6138000D01*
D11*
X+9710000Y+4774000D02*
X+9683593Y+4831748D01*
X+9570429Y+4780000D01*
X+9678734Y+4718731D01*
X+9710000Y+4774000D01*
D13*
X+9710000Y+3416000D02*
X+9757288Y+3397447D01*
X+9799802Y+3505802D01*
X+9691447Y+3463290D01*
X+9710000Y+3416000D01*
D11*
X+9671112Y+3466200D01*
X+9572741Y+3390000D01*
X+9692168Y+3355056D01*
X+9710000Y+3416000D01*
X+9710000Y+3162000D02*
X+9687217Y+3221274D01*
X+9571070Y+3176640D01*
X+9675368Y+3108776D01*
X+9710000Y+3162000D01*
X+9240000Y+3390000D02*
X+9241808Y+3377431D01*
X+9328900Y+3390000D01*
X+9241814Y+3402569D01*
X+9240000Y+3390000D01*
X+9240000Y+3176640D02*
X+9238184Y+3189209D01*
X+9151100Y+3176640D01*
X+9238186Y+3164071D01*
X+9240000Y+3176640D01*
D13*
X+9190000Y+7430000D02*
X+9143440Y+7409680D01*
X+9190000Y+7303000D01*
X+9236558Y+7409680D01*
X+9190000Y+7430000D01*
X+9710000Y+1210000D02*
X+9689680Y+1256558D01*
X+9583000Y+1210000D01*
X+9689680Y+1163442D01*
X+9710000Y+1210000D01*
X+9710000Y+2342000D02*
X+9685368Y+2386430D01*
X+9583569Y+2330000D01*
X+9694171Y+2293730D01*
X+9710000Y+2342000D01*
X+9350440Y+2865674D02*
X+9350440Y+2865674D01*
X+9350440Y+2865674D01*
D11*
X+9160000Y+1570000D02*
X+9147304Y+1569612D01*
X+9150000Y+1481665D01*
X+9172285Y+1566784D01*
X+9160000Y+1570000D01*
X+7053197Y+287109D02*
X+7045592Y+276938D01*
X+7116059Y+224247D01*
X+7063368Y+294714D01*
X+7053197Y+287109D01*
X+9024591Y+955990D02*
X+9012016Y+954176D01*
X+9024591Y+867090D01*
X+9037160Y+954176D01*
X+9024591Y+955990D01*
X+9400000Y+4580000D02*
X+9389825Y+4587605D01*
X+9337139Y+4517139D01*
X+9407605Y+4569829D01*
X+9400000Y+4580000D01*
X+9401576Y+4924318D02*
X+9414145Y+4926132D01*
X+9401576Y+5013218D01*
X+9389007Y+4926132D01*
X+9401576Y+4924318D01*
X+9188866Y+6125501D02*
X+9176297Y+6123687D01*
X+9188866Y+6036601D01*
X+9201435Y+6123687D01*
X+9188866Y+6125501D01*
X+9176354Y+6694811D02*
X+9174536Y+6707380D01*
X+9087454Y+6694811D01*
X+9174540Y+6682242D01*
X+9176354Y+6694811D01*
D13*
X+420000Y+4316000D02*
X+438620Y+4268736D01*
X+546916Y+4311401D01*
X+441992Y+4361792D01*
X+420000Y+4316000D01*
X+420000Y+1468000D02*
X+399680Y+1514558D01*
X+293000Y+1468000D01*
X+399680Y+1421442D01*
X+420000Y+1468000D01*
X+420000Y+706000D02*
X+446944Y+662935D01*
X+545620Y+724671D01*
X+433254Y+755040D01*
X+420000Y+706000D01*
X+420000Y+2588000D02*
X+395356Y+2632421D01*
X+293573Y+2575955D01*
X+404188Y+2539724D01*
X+420000Y+2588000D01*
X+420000Y+3704000D02*
X+399680Y+3750558D01*
X+293000Y+3704000D01*
X+399680Y+3657442D01*
X+420000Y+3704000D01*
D11*
X+420000Y+2942000D02*
X+449017Y+2885518D01*
X+559700Y+2942380D01*
X+448709Y+2998639D01*
X+420000Y+2942000D01*
D13*
X+825500Y+4000500D02*
X+825500Y+4000500D01*
X+825500Y+4000500D01*
D11*
X+710000Y+3830000D02*
X+697431Y+3828186D01*
X+710000Y+3741100D01*
X+722569Y+3828186D01*
X+710000Y+3830000D01*
D13*
X+726000Y+7320000D02*
X+683148Y+7292718D01*
X+745660Y+7194531D01*
X+775143Y+7307133D01*
X+726000Y+7320000D01*
X+468000Y+6940000D02*
X+466129Y+6959108D01*
X+373126Y+6950000D01*
X+462186Y+6921702D01*
X+468000Y+6940000D01*
X+222000Y+6950000D02*
X+239745Y+6906803D01*
X+344900Y+6950000D01*
X+239745Y+6993197D01*
X+222000Y+6950000D01*
X+178803Y+6932255D01*
X+222000Y+6827100D01*
X+265197Y+6932255D01*
X+222000Y+6950000D01*
D14*
X+980000Y+7320000D02*
X+1022348Y+7256652D01*
X+1132071Y+7330000D01*
X+1013687Y+7388348D01*
X+980000Y+7320000D01*
D13*
X+929411Y+7315379D01*
X+940000Y+7199464D01*
X+1017789Y+7286050D01*
X+980000Y+7320000D01*
D11*
X+5420940Y+6796660D02*
X+5422547Y+6784870D01*
X+5509040Y+6796660D01*
X+5422547Y+6808450D01*
X+5420940Y+6796660D01*
X+5419333Y+6808450D01*
X+5332840Y+6796660D01*
X+5419333Y+6784870D01*
X+5420940Y+6796660D01*
X+5420940Y+6415660D02*
X+5419333Y+6427450D01*
X+5332840Y+6415660D01*
X+5419333Y+6403870D01*
X+5420940Y+6415660D01*
X+5420940Y+6161660D02*
X+5419333Y+6173450D01*
X+5332840Y+6161660D01*
X+5419333Y+6149870D01*
X+5420940Y+6161660D01*
X+5420940Y+5780660D02*
X+5419333Y+5792450D01*
X+5332841Y+5780660D01*
X+5419333Y+5768870D01*
X+5420940Y+5780660D01*
D14*
X+5699400Y+5047500D02*
X+5678286Y+5060123D01*
X+5628124Y+4976224D01*
X+5712023Y+5026386D01*
X+5699400Y+5047500D01*
D11*
X+6715400Y+5047500D02*
X+6703610Y+5045893D01*
X+6715400Y+4959400D01*
X+6727190Y+5045893D01*
X+6715400Y+5047500D01*
X+7120940Y+5145660D02*
X+7122547Y+5133870D01*
X+7209040Y+5145660D01*
X+7122547Y+5157450D01*
X+7120940Y+5145660D01*
D10*
X+7120940Y+5272660D02*
X+7117414Y+5290566D01*
X+7026490Y+5272660D01*
X+7117414Y+5254754D01*
X+7120940Y+5272660D01*
D11*
X+7120940Y+5399660D02*
X+7122547Y+5387870D01*
X+7209040Y+5399660D01*
X+7122547Y+5411450D01*
X+7120940Y+5399660D01*
X+7120940Y+5526660D02*
X+7122547Y+5514870D01*
X+7209040Y+5526660D01*
X+7122547Y+5538450D01*
X+7120940Y+5526660D01*
X+7120940Y+5653660D02*
X+7122547Y+5641870D01*
X+7209040Y+5653660D01*
X+7122547Y+5665450D01*
X+7120940Y+5653660D01*
X+7120940Y+5780660D02*
X+7122756Y+5768900D01*
X+7209026Y+5782228D01*
X+7122337Y+5792477D01*
X+7120940Y+5780660D01*
X+7120940Y+5907660D02*
X+7122859Y+5895916D01*
X+7209008Y+5910000D01*
X+7122233Y+5919489D01*
X+7120940Y+5907660D01*
X+7120940Y+6415660D02*
X+7122547Y+6403870D01*
X+7209040Y+6415660D01*
X+7122547Y+6427450D01*
X+7120940Y+6415660D01*
X+7120940Y+6542660D02*
X+7122547Y+6530870D01*
X+7209040Y+6542660D01*
X+7122547Y+6554450D01*
X+7120940Y+6542660D01*
X+7120940Y+6669660D02*
X+7121880Y+6657798D01*
X+7208899Y+6664695D01*
X+7123209Y+6681341D01*
X+7120940Y+6669660D01*
D10*
X+4540000Y+6690000D02*
X+4537461Y+6705026D01*
X+4448560Y+6690000D01*
X+4537461Y+6674974D01*
X+4540000Y+6690000D01*
D11*
X+4700000Y+6490000D02*
X+4691159Y+6489072D01*
X+4700000Y+6404910D01*
X+4708841Y+6489072D01*
X+4700000Y+6490000D01*
D12*
X+1760000Y+3230000D02*
X+1735407Y+3223650D01*
X+1760000Y+3128401D01*
X+1784593Y+3223651D01*
X+1760000Y+3230000D01*
X+2360000Y+1810000D02*
X+2335407Y+1803650D01*
X+2360000Y+1708400D01*
X+2384593Y+1803651D01*
X+2360000Y+1810000D01*
X+1160000Y+1810000D02*
X+1135407Y+1803650D01*
X+1160000Y+1708400D01*
X+1184593Y+1803651D01*
X+1160000Y+1810000D01*
X+3980000Y+3230000D02*
X+3955407Y+3223650D01*
X+3980000Y+3128400D01*
X+4004593Y+3223651D01*
X+3980000Y+3230000D01*
X+4580000Y+1810000D02*
X+4555407Y+1803650D01*
X+4580000Y+1708400D01*
X+4604593Y+1803651D01*
X+4580000Y+1810000D01*
X+3380000Y+1810000D02*
X+3355407Y+1803650D01*
X+3380000Y+1708400D01*
X+3404593Y+1803651D01*
X+3380000Y+1810000D01*
X+6170000Y+3230000D02*
X+6145407Y+3223650D01*
X+6170000Y+3128400D01*
X+6194593Y+3223651D01*
X+6170000Y+3230000D01*
X+6770000Y+1810000D02*
X+6745407Y+1803650D01*
X+6770000Y+1708400D01*
X+6794593Y+1803651D01*
X+6770000Y+1810000D01*
X+5570000Y+1810000D02*
X+5545407Y+1803650D01*
X+5570000Y+1708400D01*
X+5594593Y+1803651D01*
X+5570000Y+1810000D01*
X+8200000Y+3230000D02*
X+8175407Y+3223650D01*
X+8200000Y+3128400D01*
X+8224593Y+3223651D01*
X+8200000Y+3230000D01*
X+8800000Y+1810000D02*
X+8775407Y+1803650D01*
X+8800000Y+1708400D01*
X+8824593Y+1803651D01*
X+8800000Y+1810000D01*
X+7600000Y+1810000D02*
X+7575407Y+1803650D01*
X+7600000Y+1708401D01*
X+7624593Y+1803651D01*
X+7600000Y+1810000D01*
D13*
X+2940000Y+5530000D02*
X+2919126Y+5576313D01*
X+2813010Y+5528484D01*
X+2920238Y+5483202D01*
X+2940000Y+5530000D01*
D10*
X+3194000Y+5530000D02*
X+3131765Y+5498287D01*
X+3190000Y+5384005D01*
X+3254405Y+5494926D01*
X+3194000Y+5530000D01*
D13*
X+3702000Y+5530000D02*
X+3748558Y+5550320D01*
X+3702000Y+5656999D01*
X+3655442Y+5550320D01*
X+3702000Y+5530000D01*
X+8610000Y+7430000D02*
X+8563442Y+7409680D01*
X+8610000Y+7303000D01*
X+8656558Y+7409680D01*
X+8610000Y+7430000D01*
D14*
X+2940000Y+7390000D02*
X+2942212Y+7466167D01*
X+2810286Y+7470000D01*
X+2872931Y+7353833D01*
X+2940000Y+7390000D01*
D11*
X+3194000Y+7390000D02*
X+3136404Y+7363263D01*
X+3188797Y+7250397D01*
X+3249446Y+7359050D01*
X+3194000Y+7390000D01*
D14*
X+5370000Y+3755000D02*
X+5373809Y+3751640D01*
X+5427473Y+3812473D01*
X+5366640Y+3758809D01*
X+5370000Y+3755000D01*
D10*
X+3010000Y+4330000D02*
X+3025026Y+4332539D01*
X+3010000Y+4421440D01*
X+2994974Y+4332540D01*
X+3010000Y+4330000D01*
D11*
X+3210000Y+4330000D02*
X+3201159Y+4329072D01*
X+3210000Y+4244910D01*
X+3218841Y+4329072D01*
X+3210000Y+4330000D01*
X+5160000Y+4330000D02*
X+5151159Y+4329072D01*
X+5160000Y+4244910D01*
X+5168841Y+4329072D01*
X+5160000Y+4330000D01*
X+5360000Y+4330000D02*
X+5351159Y+4329072D01*
X+5360000Y+4244910D01*
X+5368841Y+4329072D01*
X+5360000Y+4330000D01*
X+7200000Y+4360000D02*
X+7208841Y+4360928D01*
X+7200000Y+4445090D01*
X+7191159Y+4360928D01*
X+7200000Y+4360000D01*
D10*
X+7400000Y+4360000D02*
X+7384974Y+4357460D01*
X+7400000Y+4268560D01*
X+7415026Y+4357461D01*
X+7400000Y+4360000D01*
D11*
X+1030000Y+4230000D02*
X+1021159Y+4229072D01*
X+1030000Y+4144910D01*
X+1038841Y+4229072D01*
X+1030000Y+4230000D01*
D13*
X+7746000Y+7430000D02*
X+7699895Y+7408671D01*
X+7748767Y+7303031D01*
X+7792990Y+7410700D01*
X+7746000Y+7430000D01*
X+920000Y+6820000D02*
X+920000Y+6820000D01*
X+920000Y+6820000D01*
D11*
X+1960000Y+6750000D02*
X+1951159Y+6749072D01*
X+1960000Y+6664910D01*
X+1968841Y+6749072D01*
X+1960000Y+6750000D01*
D13*
X+2170000Y+7050000D02*
X+2170000Y+7050000D01*
X+2170000Y+7050000D01*
X+2170000Y+7364960D02*
X+2170000Y+7364960D01*
X+2170000Y+7364960D01*
X+1940000Y+7050000D02*
X+1940000Y+7050000D01*
X+1940000Y+7050000D01*
X+1940000Y+7364960D02*
X+1940000Y+7364960D01*
X+1940000Y+7364960D01*
D11*
X+1937654Y+7377441D01*
X+1851180Y+7361181D01*
X+1938722Y+7352325D01*
X+1940000Y+7364960D01*
D13*
X+1160000Y+6820000D02*
X+1160000Y+6820000D01*
X+1160000Y+6820000D01*
D14*
X+1160000Y+6505040D02*
X+1167356Y+6480729D01*
X+1261514Y+6509222D01*
X+1165332Y+6529873D01*
X+1160000Y+6505040D01*
D13*
X+1160000Y+6505040D01*
X+1160000Y+6505040D01*
D11*
X+4700000Y+7420000D02*
X+4669798Y+7475857D01*
X+4560340Y+7416674D01*
X+4672492Y+7362768D01*
X+4700000Y+7420000D01*
X+4954000Y+7420000D02*
X+4930136Y+7361155D01*
X+5045448Y+7314391D01*
X+5015652Y+7435204D01*
X+4954000Y+7420000D01*
X+1265783Y+3569295D02*
X+1278352Y+3571109D01*
X+1265783Y+3658195D01*
X+1253214Y+3571109D01*
X+1265783Y+3569295D01*
X+3410000Y+3600000D02*
X+3422569Y+3601814D01*
X+3410000Y+3688900D01*
X+3397431Y+3601814D01*
X+3410000Y+3600000D01*
X+5630000Y+3590000D02*
X+5642569Y+3591814D01*
X+5630000Y+3678900D01*
X+5617431Y+3591814D01*
X+5630000Y+3590000D01*
X+7679296Y+3645021D02*
X+7691865Y+3646835D01*
X+7679296Y+3733921D01*
X+7666727Y+3646835D01*
X+7679296Y+3645021D01*
X+7920733Y+5145660D02*
X+7918919Y+5158229D01*
X+7831833Y+5145660D01*
X+7918919Y+5133091D01*
X+7920733Y+5145660D01*
X+3990000Y+6820000D02*
X+3991814Y+6807431D01*
X+4078900Y+6820000D01*
X+3991814Y+6832569D01*
X+3990000Y+6820000D01*
X+3985911Y+6327617D02*
X+3984097Y+6340186D01*
X+3897011Y+6327617D01*
X+3984097Y+6315048D01*
X+3985911Y+6327617D01*
D13*
X+6635855Y+3843907D02*
X+6635855Y+3843907D01*
X+6635855Y+3843907D01*
X+4476559Y+3837206D02*
X+4476559Y+3837206D01*
X+4476559Y+3837206D01*
X+2340939Y+3832683D02*
X+2340939Y+3832683D01*
X+2340939Y+3832683D01*
X+8800000Y+3840000D02*
X+8800000Y+3840000D01*
X+8800000Y+3840000D01*
D11*
X+8381796Y+5867433D02*
X+8369193Y+5865874D01*
X+8380000Y+5778552D01*
X+8394326Y+5865366D01*
X+8381796Y+5867433D01*
X+8431756Y+4811915D02*
X+8430428Y+4824545D01*
X+8342923Y+4815341D01*
X+8429459Y+4799425D01*
X+8431756Y+4811915D01*
D13*
X+5143500Y+5588000D02*
X+5143500Y+5588000D01*
X+5143500Y+5588000D01*
X+5143500Y+4570000D02*
X+5143500Y+4570000D01*
X+5143500Y+4570000D01*
X+3619500Y+3556000D02*
X+3619500Y+3556000D01*
X+3619500Y+3556000D01*
D11*
X+6989593Y+3613334D02*
X+6997198Y+3623505D01*
X+6926731Y+3676196D01*
X+6979422Y+3605729D01*
X+6989593Y+3613334D01*
X+6080000Y+4370000D02*
X+6078940Y+4357345D01*
X+6166621Y+4350000D01*
X+6084595Y+4381839D01*
X+6080000Y+4370000D01*
D13*
X+4727503Y+6034762D02*
X+4727503Y+6034762D01*
X+4727503Y+6034762D01*
X+4953000Y+4889500D02*
X+4953000Y+4889500D01*
X+4953000Y+4889500D01*
D11*
X+7388135Y+5782228D02*
X+7386321Y+5794797D01*
X+7299235Y+5782228D01*
X+7386321Y+5769659D01*
X+7388135Y+5782228D01*
X+7390660Y+4673503D02*
X+7380489Y+4681108D01*
X+7327798Y+4610641D01*
X+7398265Y+4663332D01*
X+7390660Y+4673503D01*
X+4626667Y+5110741D02*
X+4634272Y+5120912D01*
X+4563805Y+5173603D01*
X+4616496Y+5103136D01*
X+4626667Y+5110741D01*
X+4640000Y+4520000D02*
X+4631787Y+4510314D01*
X+4698897Y+4453410D01*
X+4650617Y+4526968D01*
X+4640000Y+4520000D01*
X+4000500Y+4000500D02*
X+3987931Y+3998686D01*
X+4000500Y+3911600D01*
X+4013069Y+3998686D01*
X+4000500Y+4000500D01*
X+2603500Y+4000500D02*
X+2590931Y+3998686D01*
X+2603500Y+3911600D01*
X+2616069Y+3998686D01*
X+2603500Y+4000500D01*
X+1460500Y+3556000D02*
X+1462314Y+3543431D01*
X+1549400Y+3556000D01*
X+1462314Y+3568569D01*
X+1460500Y+3556000D01*
D13*
X+7651826Y+6085007D02*
X+7651826Y+6085007D01*
X+7651826Y+6085007D01*
D11*
X+8885925Y+5090000D02*
X+8898494Y+5091814D01*
X+8885925Y+5178900D01*
X+8873356Y+5091814D01*
X+8885925Y+5090000D01*
D10*
X+4224748Y+6602565D02*
X+4240640Y+6592061D01*
X+4292100Y+6669917D01*
X+4214244Y+6618457D01*
X+4224748Y+6602565D01*
X+4160000Y+6060000D02*
X+4141335Y+6056190D01*
X+4160000Y+5964750D01*
X+4178665Y+6056190D01*
X+4160000Y+6060000D01*
D11*
X+5135961Y+6329372D02*
X+5146132Y+6321767D01*
X+5198823Y+6392234D01*
X+5128356Y+6339543D01*
X+5135961Y+6329372D01*
X+3764049Y+4992411D02*
X+3762235Y+5004980D01*
X+3675149Y+4992411D01*
X+3762235Y+4979842D01*
X+3764049Y+4992411D01*
X+2246124Y+5000249D02*
X+2246822Y+4987569D01*
X+2334677Y+4992411D01*
X+2249039Y+5012609D01*
X+2246124Y+5000249D01*
X+1293624Y+5004169D02*
X+1281055Y+5002355D01*
X+1293624Y+4915270D01*
X+1306193Y+5002355D01*
X+1293624Y+5004169D01*
X+1290000Y+4290000D02*
X+1302633Y+4291300D01*
X+1293624Y+4378826D01*
X+1277515Y+4292325D01*
X+1290000Y+4290000D01*
X+2954568Y+4122530D02*
X+2941922Y+4121364D01*
X+2950000Y+4033748D01*
X+2967027Y+4120073D01*
X+2954568Y+4122530D01*
X+2633149Y+4142129D02*
X+2645718Y+4143943D01*
X+2633149Y+4231029D01*
X+2620580Y+4143943D01*
X+2633149Y+4142129D01*
X+2637068Y+4679461D02*
X+2624431Y+4678203D01*
X+2633149Y+4590648D01*
X+2649545Y+4677095D01*
X+2637068Y+4679461D01*
D13*
X+2794000Y+3683000D02*
X+2794000Y+3683000D01*
X+2794000Y+3683000D01*
X+2794000Y+2540000D02*
X+2794000Y+2540000D01*
X+2794000Y+2540000D01*
D11*
X+5121363Y+5775053D02*
X+5123966Y+5762623D01*
X+5210086Y+5780660D01*
X+5122380Y+5787712D01*
X+5121363Y+5775053D01*
X+6636046Y+4217769D02*
X+6623688Y+4214844D01*
X+6643958Y+4129222D01*
X+6648727Y+4217081D01*
X+6636046Y+4217769D01*
X+6767350Y+3626333D02*
X+6779919Y+3628147D01*
X+6767350Y+3715233D01*
X+6754781Y+3628147D01*
X+6767350Y+3626333D01*
X+7003953Y+1120543D02*
X+6992298Y+1115499D01*
X+7027248Y+1034750D01*
X+7016558Y+1122085D01*
X+7003953Y+1120543D01*
X+7443994Y+6542489D02*
X+7442204Y+6555062D01*
X+7355094Y+6542660D01*
X+7442156Y+6529923D01*
X+7443994Y+6542489D01*
X+5151157Y+3597261D02*
X+5163844Y+3597815D01*
X+5160000Y+3685720D01*
X+5138831Y+3600316D01*
X+5151157Y+3597261D01*
X+7194733Y+3654649D02*
X+7207188Y+3657129D01*
X+7190000Y+3743422D01*
X+7182085Y+3655791D01*
X+7194733Y+3654649D01*
X+7170000Y+4020000D02*
X+7158161Y+4015405D01*
X+7190000Y+3933379D01*
X+7182655Y+4021060D01*
X+7170000Y+4020000D01*
X+7490000Y+5910000D02*
X+7488186Y+5922569D01*
X+7401100Y+5910000D01*
X+7488186Y+5897431D01*
X+7490000Y+5910000D01*
D13*
X+222000Y+6290000D02*
X+239745Y+6246803D01*
X+344900Y+6290000D01*
X+239745Y+6333197D01*
X+222000Y+6290000D01*
X+468000Y+6300000D02*
X+462186Y+6318298D01*
X+373126Y+6290000D01*
X+466129Y+6280892D01*
X+468000Y+6300000D01*
D17*
X+1265783Y+3569295D03*
X+1760000Y+2450000D03*
X+1760000Y+840000D03*
X+1160000Y+1390000D03*
X+1160000Y+850000D03*
X+2360000Y+820000D03*
X+2360000Y+1390000D03*
X+3410000Y+3600000D03*
X+3980000Y+2420000D03*
X+3980000Y+820000D03*
X+3380000Y+820000D03*
X+3380000Y+1410000D03*
X+4580000Y+810000D03*
X+4580000Y+1390000D03*
X+5630000Y+3590000D03*
X+6170000Y+820000D03*
X+6170000Y+2390000D03*
X+5570000Y+1410000D03*
X+5570000Y+800000D03*
X+6770000Y+810000D03*
X+6770000Y+1410000D03*
X+7679296Y+3645021D03*
X+8200000Y+830000D03*
X+8200000Y+2410000D03*
X+7600000Y+1420000D03*
X+7600000Y+820000D03*
X+8800000Y+820000D03*
X+7920733Y+5145660D03*
X+3990000Y+6820000D03*
X+3985911Y+6327617D03*
X+9350440Y+2865674D03*
X+6635855Y+3843907D03*
X+4476559Y+3837206D03*
X+2340939Y+3832683D03*
X+8800000Y+3840000D03*
X+8381796Y+5867433D03*
X+8431756Y+4811915D03*
X+5143500Y+5588000D03*
X+5143500Y+4570000D03*
X+3619500Y+3556000D03*
X+9160000Y+1570000D03*
X+7053197Y+287109D03*
X+6989593Y+3613334D03*
X+6080000Y+4370000D03*
X+4727503Y+6034762D03*
X+4953000Y+4889500D03*
X+825500Y+4000500D03*
X+7388135Y+5782228D03*
X+7390660Y+4673503D03*
X+4626667Y+5110741D03*
X+4640000Y+4520000D03*
X+4000500Y+4000500D03*
X+2603500Y+4000500D03*
X+1460500Y+3556000D03*
X+7651826Y+6085007D03*
X+8885925Y+5090000D03*
X+4224748Y+6602565D03*
X+4160000Y+6060000D03*
X+5135961Y+6329372D03*
X+3764049Y+4992411D03*
X+2246124Y+5000249D03*
X+1293624Y+5004169D03*
X+1290000Y+4290000D03*
X+710000Y+3830000D03*
X+2954568Y+4122530D03*
X+2633149Y+4142129D03*
X+2637068Y+4679461D03*
X+2794000Y+3683000D03*
X+2794000Y+2540000D03*
X+5121363Y+5775053D03*
X+6636046Y+4217769D03*
X+6767350Y+3626333D03*
X+7003953Y+1120543D03*
X+9024591Y+955990D03*
X+9400000Y+4580000D03*
X+9401576Y+4924318D03*
X+9188866Y+6125501D03*
X+9176354Y+6694811D03*
X+7443994Y+6542489D03*
X+5151157Y+3597261D03*
X+7194733Y+3654649D03*
X+7170000Y+4020000D03*
X+7490000Y+5910000D03*
D11*
X+9490601Y+7415731D02*
X+9490601Y+7184269D01*
X+9654269Y+7020601D01*
X+9885731Y+7020601D01*
X+9936360Y+7071230D01*
X+9936360Y+6743690D01*
X+9900499Y+6779551D01*
X+9900499Y+6836499D01*
X+9519501Y+6836499D01*
X+9519501Y+6542659D01*
X+7583693Y+6542659D01*
X+7583693Y+6567812D01*
X+9078341Y+6567812D01*
X+9110419Y+6563182D01*
X+9118489Y+6555112D01*
X+9234219Y+6555112D01*
X+9316053Y+6636946D01*
X+9316053Y+6752676D01*
X+9234219Y+6834510D01*
X+9118489Y+6834510D01*
X+9110419Y+6826440D01*
X+9078340Y+6821810D01*
X+7440000Y+6821810D01*
X+7440000Y+7512740D01*
X+7555501Y+7512740D01*
X+7555501Y+7239501D01*
X+9380499Y+7239501D01*
X+9380499Y+7512740D01*
X+9587610Y+7512740D01*
X+9490601Y+7415731D01*
X+5200000Y+6809359D02*
X+5111289Y+6809359D01*
X+5111289Y+6825889D01*
X+5011675Y+6825889D01*
X+5007865Y+6829699D01*
X+4902192Y+6829699D01*
X+4784892Y+6946999D01*
X+4088013Y+6946999D01*
X+4055935Y+6951629D01*
X+4047865Y+6959699D01*
X+3932135Y+6959699D01*
X+3850301Y+6877865D01*
X+3850301Y+6762135D01*
X+3932135Y+6680301D01*
X+4047865Y+6680301D01*
X+4055936Y+6688372D01*
X+4088011Y+6693001D01*
X+4404111Y+6693001D01*
X+4404111Y+6422135D01*
X+4236101Y+6422135D01*
X+4209268Y+6448968D01*
X+4209268Y+6532715D01*
X+4253681Y+6532715D01*
X+4294598Y+6573632D01*
X+4294598Y+6631498D01*
X+4253681Y+6672415D01*
X+4195815Y+6672415D01*
X+4154898Y+6631498D01*
X+4154898Y+6609390D01*
X+4134872Y+6629416D01*
X+3672408Y+6629416D01*
X+3650753Y+6651071D01*
X+3650753Y+6951410D01*
X+3686637Y+6987294D01*
X+3976896Y+6987294D01*
X+4176999Y+7187397D01*
X+4176999Y+7239309D01*
X+4227365Y+7289675D01*
X+4509501Y+7289675D01*
X+4509501Y+7229501D01*
X+5144499Y+7229501D01*
X+5144499Y+7512740D01*
X+5200000Y+7512740D01*
X+5200000Y+6809359D01*
X+6922041Y+6657761D02*
X+6922041Y+5393309D01*
X+5967314Y+5393308D01*
X+5919973Y+5440649D01*
X+5644760Y+5440649D01*
X+5619839Y+5415728D01*
X+5619839Y+6800000D01*
X+6922041Y+6800000D01*
X+6922041Y+6657761D01*
X+6628779Y+5647881D02*
X+5866781Y+5647881D01*
X+5866781Y+6562279D01*
X+6628779Y+6562279D01*
X+6628779Y+5647881D01*
X+8758926Y+5222249D02*
X+8758926Y+5188013D01*
X+8754296Y+5155935D01*
X+8746226Y+5147865D01*
X+8746226Y+5032135D01*
X+8828060Y+4950301D01*
X+8943790Y+4950301D01*
X+9023002Y+5029513D01*
X+9023002Y+4827396D01*
X+9197397Y+4653001D01*
X+9275437Y+4653001D01*
X+9260301Y+4637865D01*
X+9260301Y+4626455D01*
X+9240885Y+4600487D01*
X+9172455Y+4532057D01*
X+9023653Y+4532057D01*
X+8892952Y+4401356D01*
X+8892952Y+3944612D01*
X+8857865Y+3979699D01*
X+8604309Y+3979699D01*
X+8604309Y+4044309D01*
X+8215691Y+4044309D01*
X+8215691Y+3655691D01*
X+8604309Y+3655691D01*
X+8604309Y+3700301D01*
X+8857865Y+3700301D01*
X+8892952Y+3735388D01*
X+8892952Y+3395735D01*
X+8336811Y+3398516D01*
X+8289428Y+3445899D01*
X+8110572Y+3445899D01*
X+8064550Y+3399877D01*
X+6296610Y+3408717D01*
X+6259428Y+3445899D01*
X+6080572Y+3445899D01*
X+6044650Y+3409977D01*
X+4779823Y+3416301D01*
X+4820365Y+3416301D01*
X+5011458Y+3607394D01*
X+5011458Y+3539396D01*
X+5093292Y+3457562D01*
X+5209022Y+3457562D01*
X+5290856Y+3539396D01*
X+5290856Y+3635621D01*
X+5490301Y+3635621D01*
X+5490301Y+3532135D01*
X+5572135Y+3450301D01*
X+5687865Y+3450301D01*
X+5769699Y+3532135D01*
X+5769699Y+3647865D01*
X+5761629Y+3655935D01*
X+5756999Y+3688013D01*
X+5756999Y+3729351D01*
X+5765691Y+3729351D01*
X+5765691Y+3655691D01*
X+6154309Y+3655691D01*
X+6154309Y+4044309D01*
X+5765691Y+4044309D01*
X+5765691Y+3970649D01*
X+5704465Y+3970649D01*
X+5698115Y+3976999D01*
X+5547395Y+3976999D01*
X+5539775Y+3969379D01*
X+5505889Y+3969379D01*
X+5505889Y+4064379D01*
X+5486999Y+4064379D01*
X+5486999Y+4168711D01*
X+5495889Y+4168711D01*
X+5495889Y+4491289D01*
X+5273689Y+4491289D01*
X+5283199Y+4512135D01*
X+5283199Y+4627865D01*
X+5252703Y+4658361D01*
X+5330716Y+4658361D01*
X+5560501Y+4888146D01*
X+5560501Y+4848601D01*
X+6588401Y+4848601D01*
X+6588401Y+4799579D01*
X+6699638Y+4688342D01*
X+7225897Y+4688342D01*
X+7073001Y+4535446D01*
X+7073001Y+4521289D01*
X+7064111Y+4521289D01*
X+7064111Y+4198711D01*
X+7279351Y+4198711D01*
X+7279351Y+4108213D01*
X+7227865Y+4159699D01*
X+7112135Y+4159699D01*
X+7046999Y+4094563D01*
X+7046999Y+4212603D01*
X+6782604Y+4476998D01*
X+6190405Y+4476998D01*
X+6157980Y+4489584D01*
X+6137865Y+4509699D01*
X+6022135Y+4509699D01*
X+5940301Y+4427865D01*
X+5940301Y+4312135D01*
X+5988441Y+4263995D01*
X+5988694Y+4263614D01*
X+5989055Y+4263381D01*
X+6022135Y+4230301D01*
X+6040289Y+4230301D01*
X+6051594Y+4223002D01*
X+6496347Y+4223002D01*
X+6496347Y+4159904D01*
X+6509047Y+4147204D01*
X+6509047Y+4084531D01*
X+6549269Y+4044309D01*
X+6215691Y+4044309D01*
X+6215691Y+3655691D01*
X+6604309Y+3655691D01*
X+6604309Y+3704208D01*
X+6637445Y+3704208D01*
X+6635721Y+3692268D01*
X+6627651Y+3684198D01*
X+6627651Y+3568468D01*
X+6709485Y+3486634D01*
X+6825215Y+3486634D01*
X+6871972Y+3533391D01*
X+6931728Y+3473635D01*
X+7047458Y+3473635D01*
X+7112820Y+3538998D01*
X+7136868Y+3514950D01*
X+7252598Y+3514950D01*
X+7334432Y+3596784D01*
X+7334432Y+3635621D01*
X+7535889Y+3635621D01*
X+7535889Y+3730621D01*
X+7550505Y+3730621D01*
X+7547667Y+3710956D01*
X+7539597Y+3702886D01*
X+7539597Y+3587156D01*
X+7621431Y+3505322D01*
X+7737161Y+3505322D01*
X+7818995Y+3587156D01*
X+7818995Y+3655691D01*
X+8154309Y+3655691D01*
X+8154309Y+4044309D01*
X+7765691Y+4044309D01*
X+7765691Y+3970649D01*
X+7741822Y+3970649D01*
X+7735473Y+3976998D01*
X+7630265Y+3976998D01*
X+7623916Y+3970649D01*
X+7580026Y+3970649D01*
X+7578756Y+3969379D01*
X+7535889Y+3969379D01*
X+7535889Y+4064379D01*
X+7520649Y+4064379D01*
X+7520649Y+4198711D01*
X+7535889Y+4198711D01*
X+7535889Y+4521289D01*
X+7420376Y+4521289D01*
X+7437113Y+4533804D01*
X+7448525Y+4533804D01*
X+7530359Y+4615638D01*
X+7530359Y+4688342D01*
X+8331347Y+4688342D01*
X+8363719Y+4682388D01*
X+8373891Y+4672216D01*
X+8489621Y+4672216D01*
X+8571455Y+4754050D01*
X+8571455Y+4869780D01*
X+8489621Y+4951614D01*
X+8373891Y+4951614D01*
X+8367950Y+4945673D01*
X+8336264Y+4942340D01*
X+6981299Y+4942340D01*
X+6981299Y+5006761D01*
X+7319839Y+5006761D01*
X+7319839Y+5018661D01*
X+7822720Y+5018661D01*
X+7854798Y+5014031D01*
X+7862868Y+5005961D01*
X+7978598Y+5005961D01*
X+8060432Y+5087795D01*
X+8060432Y+5203525D01*
X+7991296Y+5272661D01*
X+8708514Y+5272661D01*
X+8758926Y+5222249D01*
X+3083001Y+4064379D02*
X+3074111Y+4064379D01*
X+3074111Y+3635621D01*
X+3270301Y+3635621D01*
X+3270301Y+3542135D01*
X+3352135Y+3460301D01*
X+3467865Y+3460301D01*
X+3492750Y+3485186D01*
X+3555513Y+3422423D01*
X+2239699Y+3429002D01*
X+2529104Y+3429002D01*
X+2689769Y+3589667D01*
X+2736135Y+3543301D01*
X+2851865Y+3543301D01*
X+2933699Y+3625135D01*
X+2933699Y+4052680D01*
X+2983501Y+4052680D01*
X+3024418Y+4093597D01*
X+3024418Y+4151463D01*
X+3007170Y+4168711D01*
X+3083001Y+4168711D01*
X+3083001Y+4064379D01*
X+229501Y+3513501D02*
X+229501Y+3439053D01*
X+134480Y+3439528D01*
X+134480Y+3564301D01*
X+229501Y+3564301D01*
X+229501Y+3513501D01*
X+894111Y+3805621D02*
X+894111Y+3615621D01*
X+1126084Y+3615621D01*
X+1126084Y+3511430D01*
X+1203330Y+3434184D01*
X+836998Y+3436015D01*
X+836999Y+3731986D01*
X+841629Y+3764065D01*
X+849699Y+3772135D01*
X+849699Y+3860801D01*
X+883365Y+3860801D01*
X+894111Y+3871547D01*
X+894111Y+3805621D01*
X+2749501Y+7341912D02*
X+2749501Y+7199501D01*
X+3539640Y+7199501D01*
X+3396755Y+7056616D01*
X+3396755Y+6545865D01*
X+3488004Y+6454616D01*
X+2099583Y+6454616D01*
X+2089699Y+6464500D01*
X+2089699Y+6588711D01*
X+2295889Y+6588711D01*
X+2295889Y+6688325D01*
X+2309699Y+6702135D01*
X+2309699Y+6910301D01*
X+2335099Y+6910301D01*
X+2335099Y+7189699D01*
X+1774901Y+7189699D01*
X+1774901Y+6992557D01*
X+1672393Y+6992557D01*
X+1672393Y+7026101D01*
X+1728899Y+7026101D01*
X+1728899Y+7352680D01*
X+1774322Y+7352680D01*
X+1774901Y+7353259D01*
X+1774901Y+7225261D01*
X+2335099Y+7225261D01*
X+2335099Y+7355701D01*
X+2742065Y+7355701D01*
X+2749501Y+7341912D01*
X+1211101Y+7026101D02*
X+1257701Y+7026101D01*
X+1257702Y+6959699D01*
X+1079699Y+6959699D01*
X+1079699Y+7129501D01*
X+1170499Y+7129501D01*
X+1170499Y+7215701D01*
X+1211101Y+7215701D01*
X+1211101Y+7026101D01*
X+1355381Y+6763959D02*
X+1800301Y+6763959D01*
X+1800301Y+6712135D01*
X+1810301Y+6702135D01*
X+1810301Y+6304632D01*
X+813285Y+6304632D01*
X+548837Y+6040184D01*
X+548837Y+5781204D01*
X+427332Y+5659699D01*
X+420499Y+5659699D01*
X+420499Y+6110499D01*
X+306107Y+6110499D01*
X+326709Y+6131101D01*
X+626899Y+6131101D01*
X+626899Y+6381101D01*
X+646399Y+6381101D01*
X+646399Y+6631250D01*
X+742421Y+6631250D01*
X+754901Y+6643730D01*
X+754901Y+6365341D01*
X+1325099Y+6365341D01*
X+1325099Y+6644739D01*
X+755910Y+6644739D01*
X+791472Y+6680301D01*
X+1325099Y+6680301D01*
X+1325099Y+6794241D01*
X+1355381Y+6763959D01*
X+4093697Y+6205335D02*
X+4130895Y+6168137D01*
X+4396478Y+6168137D01*
X+4348104Y+6119763D01*
X+4348104Y+5209702D01*
X+4467553Y+5090253D01*
X+4486968Y+5064288D01*
X+4486968Y+5052876D01*
X+4568802Y+4971042D01*
X+4582978Y+4971042D01*
X+4501635Y+4889699D01*
X+3858901Y+4889699D01*
X+3903748Y+4934546D01*
X+3903748Y+5050276D01*
X+3821914Y+5132110D01*
X+3706184Y+5132110D01*
X+3698114Y+5124040D01*
X+3666035Y+5119410D01*
X+2349448Y+5119410D01*
X+2316835Y+5127102D01*
X+2303989Y+5139948D01*
X+2188259Y+5139948D01*
X+2159699Y+5111388D01*
X+2159699Y+5253726D01*
X+2294758Y+5388785D01*
X+2749501Y+5388785D01*
X+2749501Y+5339501D01*
X+3892499Y+5339501D01*
X+3892499Y+5720499D01*
X+3841699Y+5720499D01*
X+3841699Y+5978137D01*
X+3713887Y+6105949D01*
X+2023513Y+6105949D01*
X+2089699Y+6172135D01*
X+2089699Y+6200618D01*
X+3887898Y+6200618D01*
X+3919976Y+6195988D01*
X+3928046Y+6187918D01*
X+4043776Y+6187918D01*
X+4077445Y+6221587D01*
X+4093697Y+6205335D01*
X+4090150Y+6031067D02*
X+4090150Y+6088933D01*
X+4131067Y+6129850D01*
X+4188933Y+6129850D01*
X+4229850Y+6088933D01*
X+4229850Y+6031067D01*
X+4188933Y+5990150D01*
X+4131067Y+5990150D01*
X+4090150Y+6031067D01*
X+9512135Y+5970301D02*
X+9519501Y+5970301D01*
X+9519501Y+5674173D01*
X+9322461Y+5871213D01*
X+9322461Y+5871213D01*
X+9315864Y+5877810D01*
X+9315865Y+6027485D01*
X+9320495Y+6059566D01*
X+9328565Y+6067636D01*
X+9328565Y+6148961D01*
X+9333475Y+6148961D01*
X+9512135Y+5970301D01*
X+774279Y+4691843D02*
X+610499Y+4528063D01*
X+610499Y+5268499D01*
X+386063Y+5268499D01*
X+497865Y+5380301D01*
X+543062Y+5380301D01*
X+774279Y+5611518D01*
X+774279Y+4691843D01*
X+3562301Y+5720499D02*
X+2749501Y+5720499D01*
X+2749501Y+5668183D01*
X+2179028Y+5668183D01*
X+1880301Y+5369456D01*
X+1880301Y+4024309D01*
X+1825691Y+4024309D01*
X+1825691Y+3682999D01*
X+1764309Y+3682999D01*
X+1764309Y+4024309D01*
X+1375691Y+4024309D01*
X+1375691Y+3950649D01*
X+1318953Y+3950649D01*
X+1312604Y+3956998D01*
X+1207396Y+3956998D01*
X+1199777Y+3949379D01*
X+1165889Y+3949379D01*
X+1165889Y+4044379D01*
X+1156999Y+4044379D01*
X+1156998Y+4068711D01*
X+1165889Y+4068711D01*
X+1165889Y+4216547D01*
X+1232135Y+4150301D01*
X+1347865Y+4150301D01*
X+1429699Y+4232135D01*
X+1429699Y+4347865D01*
X+1423881Y+4353683D01*
X+1420623Y+4385339D01*
X+1420623Y+4906157D01*
X+1425253Y+4938234D01*
X+1433323Y+4946304D01*
X+1433323Y+5062034D01*
X+1351489Y+5143868D01*
X+1235759Y+5143868D01*
X+1153925Y+5062034D01*
X+1153925Y+4946304D01*
X+1161992Y+4938237D01*
X+1166625Y+4906151D01*
X+1166625Y+4390548D01*
X+1165889Y+4386596D01*
X+1165889Y+4391289D01*
X+868853Y+4391289D01*
X+1053677Y+4576113D01*
X+1053677Y+5687097D01*
X+1193131Y+5826551D01*
X+3562301Y+5826551D01*
X+3562301Y+5720499D01*
X+2188259Y+4860550D02*
X+2303989Y+4860550D01*
X+2307141Y+4863702D01*
X+2338163Y+4865412D01*
X+3007848Y+4865412D01*
X+2654301Y+4511865D01*
X+2654301Y+4211979D01*
X+2604216Y+4211979D01*
X+2563299Y+4171062D01*
X+2563299Y+4140199D01*
X+2545635Y+4140199D01*
X+2463801Y+4058365D01*
X+2463801Y+3942635D01*
X+2471870Y+3934566D01*
X+2476501Y+3902483D01*
X+2476501Y+3894685D01*
X+2398804Y+3972382D01*
X+2214309Y+3972382D01*
X+2214309Y+4024309D01*
X+2159699Y+4024309D01*
X+2159699Y+4889110D01*
X+2188259Y+4860550D01*
X+2567218Y+4650528D02*
X+2567218Y+4708394D01*
X+2608135Y+4749311D01*
X+2666001Y+4749311D01*
X+2706918Y+4708394D01*
X+2706918Y+4650528D01*
X+2666001Y+4609611D01*
X+2608135Y+4609611D01*
X+2567218Y+4650528D01*
X+9519501Y+4329501D02*
X+9519501Y+3516999D01*
X+9392399Y+3516999D01*
X+9392399Y+3529699D01*
X+9146950Y+3529699D01*
X+9146950Y+4278059D01*
X+9277661Y+4278059D01*
X+9420492Y+4420890D01*
X+9446452Y+4440301D01*
X+9457865Y+4440301D01*
X+9519501Y+4501937D01*
X+9519501Y+4329501D01*
D16*
X+5619839Y+6796660D02*
X+5420940Y+6796660D01*
X+5699400Y+4848601D02*
X+5699400Y+5047500D01*
X+6922041Y+6796660D02*
X+7120940Y+6796660D01*
X+4404111Y+6690000D02*
X+4540000Y+6690000D01*
X+4404111Y+6490000D02*
X+4540000Y+6490000D01*
X+9519501Y+5884000D02*
X+9710000Y+5884000D01*
X+9519501Y+3758000D02*
X+9710000Y+3758000D01*
X+3194000Y+5339501D02*
X+3194000Y+5530000D01*
X+3194000Y+5720499D02*
X+3194000Y+5530000D01*
X+8610000Y+7239501D02*
X+8610000Y+7430000D01*
X+610499Y+4824000D02*
X+420000Y+4824000D01*
X+9380499Y+7430000D02*
X+9190000Y+7430000D01*
X+9190000Y+7239501D02*
X+9190000Y+7430000D01*
X+229501Y+3450000D02*
X+420000Y+3450000D01*
X+3194000Y+7199501D02*
X+3194000Y+7390000D01*
X+3210000Y+3635621D02*
X+3210000Y+3755000D01*
X+3074111Y+3755000D02*
X+3210000Y+3755000D01*
X+5370000Y+3635621D02*
X+5370000Y+3755000D01*
X+7400000Y+3635621D02*
X+7400000Y+3755000D01*
X+1030000Y+3615621D02*
X+1030000Y+3735000D01*
X+894111Y+3735000D02*
X+1030000Y+3735000D01*
X+7555501Y+7430000D02*
X+7746000Y+7430000D01*
X+7746000Y+7239501D02*
X+7746000Y+7430000D01*
X+1211101Y+7190000D02*
X+1470000Y+7190000D01*
X+1728899Y+7190000D02*
X+1470000Y+7190000D01*
X+920000Y+6644739D02*
X+920000Y+6505040D01*
X+920000Y+6365341D02*
X+920000Y+6505040D01*
X+754901Y+6505040D02*
X+920000Y+6505040D01*
X+2170000Y+7225261D02*
X+2170000Y+7364960D01*
X+1940000Y+7225261D02*
X+1940000Y+7364960D01*
X+1160000Y+6644739D02*
X+1160000Y+6505040D01*
X+1160000Y+6365341D02*
X+1160000Y+6505040D01*
X+1325099Y+6505040D02*
X+1160000Y+6505040D01*
X+5144499Y+7420000D02*
X+4954000Y+7420000D01*
X+4954000Y+7229501D02*
X+4954000Y+7420000D01*
X+420499Y+5666000D02*
X+230000Y+5666000D01*
X+646399Y+6490000D02*
X+490000Y+6490000D01*
X+468000Y+6131101D02*
X+468000Y+6300000D01*
X+626899Y+6300000D02*
X+468000Y+6300000D01*
D18*
X+290000Y+7300000D03*
D19*
X+7724000Y+540000D03*
X+8232000Y+540000D03*
X+8740000Y+540000D03*
D70*
X+980000Y+7320000D03*
X+726000Y+7320000D03*
D71*
X+5420940Y+6796660D03*
X+5420940Y+6669660D03*
X+5420940Y+6542660D03*
X+5420940Y+6415660D03*
X+5420940Y+6288660D03*
X+5420940Y+6161660D03*
X+5420940Y+6034660D03*
X+5420940Y+5907660D03*
X+5420940Y+5780660D03*
X+5420940Y+5653660D03*
X+5420940Y+5526660D03*
X+5420940Y+5399660D03*
X+5420940Y+5272660D03*
X+5420940Y+5145660D03*
D20*
X+5699400Y+5047500D03*
X+5826400Y+5047500D03*
X+5953400Y+5047500D03*
X+6080400Y+5047500D03*
X+6207400Y+5047500D03*
X+6334400Y+5047500D03*
X+6461400Y+5047500D03*
X+6588400Y+5047500D03*
X+6715400Y+5047500D03*
X+6842400Y+5047500D03*
D71*
X+7120940Y+5145660D03*
X+7120940Y+5272660D03*
X+7120940Y+5399660D03*
X+7120940Y+5526660D03*
X+7120940Y+5653660D03*
X+7120940Y+5780660D03*
X+7120940Y+5907660D03*
X+7120940Y+6034660D03*
X+7120940Y+6161660D03*
X+7120940Y+6288660D03*
X+7120940Y+6415660D03*
X+7120940Y+6542660D03*
X+7120940Y+6669660D03*
X+7120940Y+6796660D03*
D21*
X+6247780Y+6105080D03*
D17*
X+6125860Y+6201600D03*
X+6232540Y+6201600D03*
X+6331600Y+6201600D03*
X+6334140Y+6100000D03*
X+6230000Y+6100000D03*
X+6125860Y+6094920D03*
X+6128400Y+5993320D03*
X+6230000Y+5995860D03*
X+6331600Y+5995860D03*
D19*
X+1250000Y+530000D03*
X+1758000Y+530000D03*
X+2266000Y+530000D03*
X+3460000Y+530000D03*
X+3968000Y+530000D03*
X+4476000Y+530000D03*
X+5660000Y+530000D03*
X+6168000Y+530000D03*
X+6676000Y+530000D03*
D22*
X+4950000Y+6690000D03*
X+4950000Y+6490000D03*
D23*
X+4700000Y+6690000D03*
X+4540000Y+6690000D03*
X+4700000Y+6490000D03*
X+4540000Y+6490000D03*
D18*
X+9770000Y+7300000D03*
D70*
X+9710000Y+6646000D03*
X+9710000Y+6392000D03*
X+9710000Y+6138000D03*
X+9710000Y+5884000D03*
D18*
X+290000Y+220000D03*
X+9770000Y+220000D03*
D24*
X+2360000Y+3030000D03*
X+1160000Y+3030000D03*
X+1760000Y+3230000D03*
X+2360000Y+1810000D03*
X+1160000Y+1810000D03*
X+4580000Y+3030000D03*
X+3380000Y+3030000D03*
X+3980000Y+3230000D03*
X+4580000Y+1810000D03*
X+3380000Y+1810000D03*
X+6770000Y+3030000D03*
X+5570000Y+3030000D03*
X+6170000Y+3230000D03*
X+6770000Y+1810000D03*
X+5570000Y+1810000D03*
X+8800000Y+3030000D03*
X+7600000Y+3030000D03*
X+8200000Y+3230000D03*
X+8800000Y+1810000D03*
X+7600000Y+1810000D03*
D70*
X+9710000Y+5536000D03*
X+9710000Y+5282000D03*
X+9710000Y+5028000D03*
X+9710000Y+4774000D03*
X+9710000Y+4520000D03*
X+9710000Y+4266000D03*
X+9710000Y+4012000D03*
X+9710000Y+3758000D03*
X+2940000Y+5530000D03*
X+3194000Y+5530000D03*
X+3448000Y+5530000D03*
X+3702000Y+5530000D03*
X+8610000Y+7430000D03*
X+8356000Y+7430000D03*
X+420000Y+5078000D03*
X+420000Y+4824000D03*
X+420000Y+4570000D03*
X+420000Y+4316000D03*
X+420000Y+4062000D03*
X+9710000Y+3416000D03*
X+9710000Y+3162000D03*
X+9710000Y+2908000D03*
X+9710000Y+2654000D03*
D25*
X+9240000Y+3390000D03*
X+9240000Y+3176640D03*
D70*
X+9190000Y+7430000D03*
X+8936000Y+7430000D03*
X+420000Y+1468000D03*
X+420000Y+1214000D03*
X+420000Y+960000D03*
X+420000Y+706000D03*
X+420000Y+2588000D03*
X+420000Y+2334000D03*
X+420000Y+2080000D03*
X+420000Y+1826000D03*
X+420000Y+3704000D03*
X+420000Y+3450000D03*
X+420000Y+3196000D03*
X+420000Y+2942000D03*
X+2940000Y+7390000D03*
X+3194000Y+7390000D03*
X+3448000Y+7390000D03*
X+3702000Y+7390000D03*
X+9710000Y+1210000D03*
X+9710000Y+956000D03*
X+9710000Y+702000D03*
X+9710000Y+2342000D03*
X+9710000Y+2088000D03*
X+9710000Y+1834000D03*
X+9710000Y+1580000D03*
D26*
X+3780000Y+3850000D03*
X+4230000Y+3850000D03*
X+5960000Y+3850000D03*
X+6410000Y+3850000D03*
X+7960000Y+3850000D03*
X+8410000Y+3850000D03*
X+1570000Y+3830000D03*
X+2020000Y+3830000D03*
D27*
X+3210000Y+3945000D03*
X+3210000Y+3755000D03*
X+3440000Y+3850000D03*
X+5370000Y+3945000D03*
X+5370000Y+3755000D03*
X+5600000Y+3850000D03*
X+7400000Y+3945000D03*
X+7400000Y+3755000D03*
X+7630000Y+3850000D03*
X+1030000Y+3925000D03*
X+1030000Y+3735000D03*
X+1260000Y+3830000D03*
D28*
X+3010000Y+4330000D03*
X+3210000Y+4330000D03*
X+5160000Y+4330000D03*
X+5360000Y+4330000D03*
X+7200000Y+4360000D03*
X+7400000Y+4360000D03*
X+830000Y+4230000D03*
X+1030000Y+4230000D03*
D70*
X+8000000Y+7430000D03*
X+7746000Y+7430000D03*
D29*
X+1372000Y+7050000D03*
X+1437488Y+7050000D03*
X+1502512Y+7050000D03*
X+1568000Y+7050000D03*
X+1568000Y+7330000D03*
X+1502512Y+7330000D03*
X+1437488Y+7330000D03*
X+1372000Y+7330000D03*
D72*
X+1470000Y+7190000D03*
D73*
X+1407000Y+7190000D03*
X+1470000Y+7240000D03*
X+1470000Y+7140000D03*
X+1533000Y+7190000D03*
D30*
X+1470000Y+7190000D03*
D31*
X+920000Y+6820000D03*
X+920000Y+6505040D03*
D28*
X+1960000Y+6750000D03*
X+2160000Y+6750000D03*
D31*
X+2170000Y+7050000D03*
X+2170000Y+7364960D03*
X+1940000Y+7050000D03*
X+1940000Y+7364960D03*
X+1160000Y+6820000D03*
X+1160000Y+6505040D03*
D70*
X+4700000Y+7420000D03*
X+4954000Y+7420000D03*
X+230000Y+5920000D03*
X+230000Y+5666000D03*
D32*
X+490000Y+6750000D03*
X+490000Y+6685000D03*
X+490000Y+6620000D03*
X+490000Y+6555000D03*
X+490000Y+6490000D03*
D33*
X+222000Y+6950000D03*
X+222000Y+6290000D03*
D34*
X+468000Y+6940000D03*
D35*
X+222000Y+6740000D03*
X+222000Y+6500000D03*
D34*
X+468000Y+6300000D03*
D36*
X+35420Y-8200D02*
X+10035420Y-8200D01*
X+10035420Y+7611800D01*
X+35420Y+7611800D01*
X+35420Y-8200D01*
M02*
