G04 PROTEUS GERBER X2 FILE*
%TF.GenerationSoftware,Labcenter,Proteus,8.9-SP0-Build27865*%
%TF.CreationDate,2021-01-11T14:01:32+00:00*%
%TF.FileFunction,Copper,L2,Bot*%
%TF.FilePolarity,Positive*%
%TF.Part,Single*%
%TF.SameCoordinates,{9f0a7d81-3364-476e-981e-304885b4a122}*%
%FSLAX45Y45*%
%MOMM*%
G01*
%TA.AperFunction,Conductor*%
%ADD13C,1.016000*%
%ADD12C,2.032000*%
%ADD11C,0.762000*%
%ADD10C,0.635000*%
%TA.AperFunction,ViaPad*%
%ADD17C,1.016000*%
%TA.AperFunction,Conductor*%
%ADD16C,0.254000*%
%TA.AperFunction,OtherPad,Unknown*%
%ADD18C,3.810000*%
%TA.AperFunction,ComponentPad*%
%ADD19C,3.048000*%
%TA.AperFunction,ComponentPad*%
%ADD70R,2.032000X2.032000*%
%TA.AperFunction,ComponentPad*%
%ADD24C,2.540000*%
%TA.AperFunction,ComponentPad*%
%ADD73C,0.400000*%
%TA.AperFunction,ComponentPad*%
%ADD33C,1.950000*%
%TA.AperFunction,Profile*%
%ADD36C,0.203200*%
%TD.AperFunction*%
G36*
X+9710000Y+5884000D02*
X+9719596Y+5834115D01*
X+9833898Y+5856102D01*
X+9740051Y+5924958D01*
X+9710000Y+5884000D01*
G37*
G36*
X+9710000Y+5884000D02*
X+9689680Y+5930558D01*
X+9583000Y+5884000D01*
X+9689680Y+5837442D01*
X+9710000Y+5884000D01*
G37*
G36*
X+9710000Y+5536000D02*
X+9689680Y+5582558D01*
X+9583001Y+5536000D01*
X+9689680Y+5489442D01*
X+9710000Y+5536000D01*
G37*
G36*
X+9710000Y+5028000D02*
X+9714416Y+5091346D01*
X+9590284Y+5100000D01*
X+9656115Y+4994406D01*
X+9710000Y+5028000D01*
G37*
G36*
X+9710000Y+3758000D02*
X+9738863Y+3701440D01*
X+9849700Y+3758000D01*
X+9738863Y+3814560D01*
X+9710000Y+3758000D01*
G37*
G36*
X+9710000Y+3758000D02*
X+9743352Y+3719682D01*
X+9831149Y+3796101D01*
X+9715415Y+3808510D01*
X+9710000Y+3758000D01*
G37*
G36*
X+9710000Y+3416000D02*
X+9691674Y+3463379D01*
X+9583115Y+3421389D01*
X+9687723Y+3370346D01*
X+9710000Y+3416000D01*
G37*
G36*
X+9710000Y+2654000D02*
X+9738863Y+2597440D01*
X+9849700Y+2654000D01*
X+9738863Y+2710560D01*
X+9710000Y+2654000D01*
G37*
G36*
X+9190000Y+7430000D02*
X+9171447Y+7382710D01*
X+9279802Y+7340198D01*
X+9237290Y+7448553D01*
X+9190000Y+7430000D01*
G37*
G36*
X+9710000Y+956000D02*
X+9681136Y+1012560D01*
X+9570300Y+955998D01*
X+9681138Y+899439D01*
X+9710000Y+956000D01*
G37*
G36*
X+9710000Y+702000D02*
X+9740361Y+646230D01*
X+9849650Y+705726D01*
X+9737344Y+759310D01*
X+9710000Y+702000D01*
G37*
G36*
X+9710000Y+2088000D02*
X+9738863Y+2031440D01*
X+9849700Y+2088000D01*
X+9738863Y+2144560D01*
X+9710000Y+2088000D01*
G37*
G36*
X+9710000Y+1580000D02*
X+9677162Y+1634349D01*
X+9570659Y+1570000D01*
X+9685260Y+1521519D01*
X+9710000Y+1580000D01*
G37*
G36*
X+9160000Y+1570000D02*
X+9161814Y+1557431D01*
X+9248900Y+1570000D01*
X+9161814Y+1582569D01*
X+9160000Y+1570000D01*
G37*
G36*
X+9024591Y+955990D02*
X+9026405Y+943421D01*
X+9113490Y+955991D01*
X+9026405Y+968559D01*
X+9024591Y+955990D01*
G37*
G36*
X+9400000Y+4580000D02*
X+9412569Y+4581814D01*
X+9400000Y+4668900D01*
X+9387431Y+4581814D01*
X+9400000Y+4580000D01*
G37*
G36*
X+9401576Y+4924318D02*
X+9388977Y+4922727D01*
X+9400000Y+4835432D01*
X+9414111Y+4922282D01*
X+9401576Y+4924318D01*
G37*
G36*
X+9188866Y+6125501D02*
X+9201435Y+6127315D01*
X+9188866Y+6214401D01*
X+9176297Y+6127315D01*
X+9188866Y+6125501D01*
G37*
G36*
X+9176354Y+6694811D02*
X+9164165Y+6691246D01*
X+9188866Y+6606796D01*
X+9189053Y+6694784D01*
X+9176354Y+6694811D01*
G37*
G36*
X+726000Y+7320000D02*
X+679442Y+7299680D01*
X+726000Y+7193000D01*
X+772558Y+7299680D01*
X+726000Y+7320000D01*
G37*
G36*
X+420000Y+5078000D02*
X+466558Y+5098320D01*
X+420000Y+5205000D01*
X+373442Y+5098320D01*
X+420000Y+5078000D01*
G37*
G36*
X+420000Y+4824000D02*
X+448863Y+4767440D01*
X+559700Y+4824000D01*
X+448863Y+4880560D01*
X+420000Y+4824000D01*
G37*
G36*
X+420000Y+4570000D02*
X+428746Y+4519959D01*
X+543405Y+4540000D01*
X+450743Y+4610441D01*
X+420000Y+4570000D01*
G37*
G36*
X+420000Y+1214000D02*
X+399680Y+1260558D01*
X+293000Y+1213999D01*
X+399681Y+1167441D01*
X+420000Y+1214000D01*
G37*
G36*
X+420000Y+2588000D02*
X+467290Y+2569447D01*
X+509802Y+2677802D01*
X+401447Y+2635290D01*
X+420000Y+2588000D01*
G37*
G36*
X+420000Y+2334000D02*
X+399680Y+2380558D01*
X+293000Y+2334000D01*
X+399680Y+2287442D01*
X+420000Y+2334000D01*
G37*
G36*
X+420000Y+2080000D02*
X+440320Y+2033442D01*
X+547000Y+2080000D01*
X+440320Y+2126558D01*
X+420000Y+2080000D01*
G37*
G36*
X+420000Y+1826000D02*
X+448863Y+1769440D01*
X+559700Y+1826000D01*
X+448863Y+1882560D01*
X+420000Y+1826000D01*
G37*
G36*
X+420000Y+3704000D02*
X+439954Y+3657284D01*
X+546996Y+3703004D01*
X+440684Y+3750398D01*
X+420000Y+3704000D01*
G37*
G36*
X+420000Y+3450000D02*
X+399680Y+3496558D01*
X+293000Y+3450000D01*
X+399680Y+3403442D01*
X+420000Y+3450000D01*
G37*
G36*
X+230000Y+5920000D02*
X+248101Y+5872535D01*
X+356858Y+5914009D01*
X+252493Y+5965548D01*
X+230000Y+5920000D01*
G37*
G36*
X+710000Y+3830000D02*
X+722346Y+3832974D01*
X+701741Y+3918515D01*
X+697317Y+3830638D01*
X+710000Y+3830000D01*
G37*
G36*
X+980000Y+7320000D02*
X+932657Y+7301582D01*
X+974858Y+7193105D01*
X+1025698Y+7297812D01*
X+980000Y+7320000D01*
G37*
G36*
X+2360000Y+3030000D02*
X+2425991Y+3068100D01*
X+2360000Y+3182400D01*
X+2294009Y+3068100D01*
X+2360000Y+3030000D01*
G37*
G36*
X+1160000Y+3030000D02*
X+1225991Y+3068100D01*
X+1160000Y+3182400D01*
X+1094009Y+3068100D01*
X+1160000Y+3030000D01*
G37*
G36*
X+1760000Y+3230000D02*
X+1735407Y+3223650D01*
X+1760000Y+3128401D01*
X+1784593Y+3223651D01*
X+1760000Y+3230000D01*
G37*
G36*
X+2360000Y+1810000D02*
X+2335407Y+1803650D01*
X+2360000Y+1708400D01*
X+2384593Y+1803651D01*
X+2360000Y+1810000D01*
G37*
G36*
X+1160000Y+1810000D02*
X+1135407Y+1803650D01*
X+1160000Y+1708400D01*
X+1184593Y+1803651D01*
X+1160000Y+1810000D01*
G37*
G36*
X+4580000Y+3030000D02*
X+4645991Y+3068100D01*
X+4580000Y+3182400D01*
X+4514009Y+3068100D01*
X+4580000Y+3030000D01*
G37*
G36*
X+3380000Y+3030000D02*
X+3444966Y+3090684D01*
X+3350000Y+3192351D01*
X+3297638Y+3063460D01*
X+3380000Y+3030000D01*
G37*
G36*
X+3980000Y+3230000D02*
X+3955407Y+3223650D01*
X+3980000Y+3128400D01*
X+4004593Y+3223651D01*
X+3980000Y+3230000D01*
G37*
G36*
X+4580000Y+1810000D02*
X+4555407Y+1803650D01*
X+4580000Y+1708400D01*
X+4604593Y+1803651D01*
X+4580000Y+1810000D01*
G37*
G36*
X+3380000Y+1810000D02*
X+3355407Y+1803650D01*
X+3380000Y+1708400D01*
X+3404593Y+1803651D01*
X+3380000Y+1810000D01*
G37*
G36*
X+6770000Y+3030000D02*
X+6752324Y+3104121D01*
X+6623941Y+3073505D01*
X+6714648Y+2977632D01*
X+6770000Y+3030000D01*
G37*
G36*
X+5570000Y+3030000D02*
X+5644911Y+3077869D01*
X+5570000Y+3195100D01*
X+5495089Y+3077869D01*
X+5570000Y+3030000D01*
G37*
G36*
X+6170000Y+3230000D02*
X+6145407Y+3223650D01*
X+6170000Y+3128400D01*
X+6194593Y+3223651D01*
X+6170000Y+3230000D01*
G37*
G36*
X+6770000Y+1810000D02*
X+6745407Y+1803650D01*
X+6770000Y+1708400D01*
X+6794593Y+1803651D01*
X+6770000Y+1810000D01*
G37*
G36*
X+5570000Y+1810000D02*
X+5545407Y+1803650D01*
X+5570000Y+1708400D01*
X+5594593Y+1803651D01*
X+5570000Y+1810000D01*
G37*
G36*
X+8800000Y+3030000D02*
X+8865991Y+3068100D01*
X+8800000Y+3182400D01*
X+8734009Y+3068100D01*
X+8800000Y+3030000D01*
G37*
G36*
X+7600000Y+3030000D02*
X+7674911Y+3077869D01*
X+7600000Y+3195100D01*
X+7525089Y+3077869D01*
X+7600000Y+3030000D01*
G37*
G36*
X+8200000Y+3230000D02*
X+8175407Y+3223650D01*
X+8200000Y+3128400D01*
X+8224593Y+3223651D01*
X+8200000Y+3230000D01*
G37*
G36*
X+8800000Y+1810000D02*
X+8775407Y+1803650D01*
X+8800000Y+1708400D01*
X+8824593Y+1803651D01*
X+8800000Y+1810000D01*
G37*
G36*
X+7600000Y+1810000D02*
X+7575407Y+1803650D01*
X+7600000Y+1708401D01*
X+7624593Y+1803651D01*
X+7600000Y+1810000D01*
G37*
G36*
X+2940000Y+5530000D02*
X+2996560Y+5558863D01*
X+2940000Y+5669700D01*
X+2883440Y+5558863D01*
X+2940000Y+5530000D01*
G37*
G36*
X+3194000Y+5530000D02*
X+3139045Y+5498187D01*
X+3201386Y+5390496D01*
X+3252007Y+5504168D01*
X+3194000Y+5530000D01*
G37*
G36*
X+3194000Y+5530000D02*
X+3250560Y+5558863D01*
X+3194000Y+5669700D01*
X+3137440Y+5558863D01*
X+3194000Y+5530000D01*
G37*
G36*
X+3448000Y+5530000D02*
X+3494558Y+5550320D01*
X+3448000Y+5657000D01*
X+3401442Y+5550320D01*
X+3448000Y+5530000D01*
G37*
G36*
X+3702000Y+5530000D02*
X+3758560Y+5558863D01*
X+3702000Y+5669700D01*
X+3645440Y+5558863D01*
X+3702000Y+5530000D01*
G37*
G36*
X+8356000Y+7430000D02*
X+8305742Y+7391189D01*
X+8381796Y+7292703D01*
X+8416918Y+7412077D01*
X+8356000Y+7430000D01*
G37*
G36*
X+8936000Y+7430000D02*
X+8879440Y+7401137D01*
X+8936000Y+7290300D01*
X+8992560Y+7401137D01*
X+8936000Y+7430000D01*
G37*
G36*
X+2940000Y+7390000D02*
X+2883440Y+7361137D01*
X+2940000Y+7250300D01*
X+2996560Y+7361137D01*
X+2940000Y+7390000D01*
G37*
G36*
X+3194000Y+7390000D02*
X+3137440Y+7361137D01*
X+3194000Y+7250300D01*
X+3250560Y+7361137D01*
X+3194000Y+7390000D01*
G37*
G36*
X+3448000Y+7390000D02*
X+3391440Y+7361137D01*
X+3448000Y+7250300D01*
X+3504560Y+7361137D01*
X+3448000Y+7390000D01*
G37*
G36*
X+3702000Y+7390000D02*
X+3645440Y+7361137D01*
X+3702000Y+7250300D01*
X+3758560Y+7361137D01*
X+3702000Y+7390000D01*
G37*
G36*
X+8000000Y+7430000D02*
X+7956227Y+7404222D01*
X+8015292Y+7303925D01*
X+8048666Y+7415435D01*
X+8000000Y+7430000D01*
G37*
G36*
X+3410000Y+3600000D02*
X+3399501Y+3607144D01*
X+3350000Y+3534402D01*
X+3418050Y+3590178D01*
X+3410000Y+3600000D01*
G37*
G36*
X+5630000Y+3590000D02*
X+5619501Y+3597144D01*
X+5570000Y+3524402D01*
X+5638050Y+3580178D01*
X+5630000Y+3590000D01*
G37*
G36*
X+7679296Y+3645021D02*
X+7669125Y+3652626D01*
X+7616434Y+3582159D01*
X+7686901Y+3634850D01*
X+7679296Y+3645021D01*
G37*
G36*
X+3990000Y+6820000D02*
X+3977361Y+6818766D01*
X+3985911Y+6731195D01*
X+4002472Y+6817610D01*
X+3990000Y+6820000D01*
G37*
G36*
X+3985911Y+6327617D02*
X+3998480Y+6329431D01*
X+3985911Y+6416517D01*
X+3973342Y+6329431D01*
X+3985911Y+6327617D01*
G37*
G36*
X+8381796Y+5867433D02*
X+8394365Y+5869247D01*
X+8381796Y+5956333D01*
X+8369227Y+5869247D01*
X+8381796Y+5867433D01*
G37*
G36*
X+8431756Y+4811915D02*
X+8444325Y+4813729D01*
X+8431756Y+4900815D01*
X+8419187Y+4813729D01*
X+8431756Y+4811915D01*
G37*
G36*
X+7053197Y+287109D02*
X+7063368Y+279504D01*
X+7116059Y+349971D01*
X+7045592Y+297280D01*
X+7053197Y+287109D01*
G37*
G36*
X+6989593Y+3613334D02*
X+6981988Y+3603163D01*
X+7052454Y+3550473D01*
X+6999764Y+3620939D01*
X+6989593Y+3613334D01*
G37*
G36*
X+6080000Y+4370000D02*
X+6082601Y+4382430D01*
X+5996480Y+4400454D01*
X+6073990Y+4358813D01*
X+6080000Y+4370000D01*
G37*
G36*
X+7388135Y+5782228D02*
X+7375622Y+5780058D01*
X+7390660Y+5693364D01*
X+7400751Y+5780772D01*
X+7388135Y+5782228D01*
G37*
G36*
X+7390660Y+4673503D02*
X+7403229Y+4675317D01*
X+7390660Y+4762403D01*
X+7378091Y+4675317D01*
X+7390660Y+4673503D01*
G37*
G36*
X+4626667Y+5110741D02*
X+4614098Y+5108927D01*
X+4626667Y+5021841D01*
X+4639236Y+5108927D01*
X+4626667Y+5110741D01*
G37*
G36*
X+4640000Y+4520000D02*
X+4652155Y+4523678D01*
X+4626667Y+4607894D01*
X+4627301Y+4519909D01*
X+4640000Y+4520000D01*
G37*
G36*
X+4000500Y+4000500D02*
X+3998686Y+4013069D01*
X+3911601Y+4000500D01*
X+3998686Y+3987931D01*
X+4000500Y+4000500D01*
G37*
G36*
X+2603500Y+4000500D02*
X+2605314Y+3987931D01*
X+2692399Y+4000500D01*
X+2605314Y+4013069D01*
X+2603500Y+4000500D01*
G37*
G36*
X+1460500Y+3556000D02*
X+1447931Y+3554186D01*
X+1460500Y+3467100D01*
X+1473069Y+3554186D01*
X+1460500Y+3556000D01*
G37*
G36*
X+8885925Y+5090000D02*
X+8889141Y+5077715D01*
X+8974260Y+5100000D01*
X+8886313Y+5102694D01*
X+8885925Y+5090000D01*
G37*
G36*
X+4224748Y+6602565D02*
X+4209982Y+6614600D01*
X+4151020Y+6542260D01*
X+4233616Y+6585706D01*
X+4224748Y+6602565D01*
G37*
G36*
X+4160000Y+6060000D02*
X+4178222Y+6065552D01*
X+4151020Y+6154825D01*
X+4141059Y+6062033D01*
X+4160000Y+6060000D01*
G37*
G36*
X+5135961Y+6329372D02*
X+5134147Y+6341941D01*
X+5047061Y+6329372D01*
X+5134147Y+6316803D01*
X+5135961Y+6329372D01*
G37*
G36*
X+3764049Y+4992411D02*
X+3766415Y+4979934D01*
X+3852862Y+4996331D01*
X+3765307Y+5005048D01*
X+3764049Y+4992411D01*
G37*
G36*
X+1290000Y+4290000D02*
X+1288186Y+4302569D01*
X+1201100Y+4290000D01*
X+1288186Y+4277431D01*
X+1290000Y+4290000D01*
G37*
G36*
X+2954568Y+4122530D02*
X+2952754Y+4135099D01*
X+2865668Y+4122530D01*
X+2952754Y+4109961D01*
X+2954568Y+4122530D01*
G37*
G36*
X+2633149Y+4142129D02*
X+2632148Y+4129469D01*
X+2719861Y+4122530D01*
X+2637689Y+4153989D01*
X+2633149Y+4142129D01*
G37*
G36*
X+2637068Y+4679461D02*
X+2649637Y+4681275D01*
X+2637068Y+4768361D01*
X+2624499Y+4681275D01*
X+2637068Y+4679461D01*
G37*
G36*
X+5121363Y+5775053D02*
X+5123177Y+5762484D01*
X+5210263Y+5775053D01*
X+5123177Y+5787622D01*
X+5121363Y+5775053D01*
G37*
G36*
X+6636046Y+4217769D02*
X+6634548Y+4230380D01*
X+6547174Y+4220000D01*
X+6633917Y+4205249D01*
X+6636046Y+4217769D01*
G37*
G36*
X+6767350Y+3626333D02*
X+6754973Y+3623491D01*
X+6774668Y+3537735D01*
X+6780026Y+3625560D01*
X+6767350Y+3626333D01*
G37*
G36*
X+7003953Y+1120543D02*
X+7016586Y+1121839D01*
X+7007603Y+1209368D01*
X+6991469Y+1122871D01*
X+7003953Y+1120543D01*
G37*
G36*
X+7443994Y+6542489D02*
X+7442180Y+6555058D01*
X+7355094Y+6542489D01*
X+7442180Y+6529920D01*
X+7443994Y+6542489D01*
G37*
G36*
X+5151157Y+3597261D02*
X+5138588Y+3595447D01*
X+5151157Y+3508361D01*
X+5163726Y+3595447D01*
X+5151157Y+3597261D01*
G37*
G36*
X+7194733Y+3654649D02*
X+7187128Y+3644478D01*
X+7257595Y+3591787D01*
X+7204904Y+3662254D01*
X+7194733Y+3654649D01*
G37*
G36*
X+7170000Y+4020000D02*
X+7182285Y+4023216D01*
X+7160000Y+4108335D01*
X+7157306Y+4020388D01*
X+7170000Y+4020000D01*
G37*
G36*
X+7490000Y+5910000D02*
X+7488186Y+5922569D01*
X+7401100Y+5910000D01*
X+7488186Y+5897431D01*
X+7490000Y+5910000D01*
G37*
G36*
X+5200000Y+6912121D02*
X+4350844Y+6912121D01*
X+4143266Y+7119699D01*
X+3828999Y+7119699D01*
X+3828998Y+7199501D01*
X+3892499Y+7199501D01*
X+3892499Y+7512740D01*
X+4509501Y+7512740D01*
X+4509501Y+7229501D01*
X+5144499Y+7229501D01*
X+5144499Y+7512740D01*
X+5200000Y+7512740D01*
X+5200000Y+6912121D01*
G37*
G36*
X+7555501Y+7239501D02*
X+7875593Y+7239501D01*
X+7875593Y+7214804D01*
X+7781034Y+7120245D01*
X+7781034Y+6830467D01*
X+7699380Y+6912121D01*
X+7400000Y+6912121D01*
X+7400000Y+7512740D01*
X+7555501Y+7512740D01*
X+7555501Y+7239501D01*
G37*
G36*
X+535501Y+7129501D02*
X+586301Y+7129501D01*
X+586301Y+6102924D01*
X+537085Y+6053708D01*
X+420499Y+6053708D01*
X+420499Y+6110499D01*
X+306107Y+6110499D01*
X+408399Y+6212791D01*
X+408399Y+6367209D01*
X+299209Y+6476399D01*
X+144791Y+6476399D01*
X+134480Y+6466088D01*
X+134480Y+6773912D01*
X+144791Y+6763601D01*
X+299209Y+6763601D01*
X+408399Y+6872791D01*
X+408399Y+7023269D01*
X+535501Y+7150371D01*
X+535501Y+7129501D01*
G37*
G36*
X+2749501Y+7199501D02*
X+2813001Y+7199501D01*
X+2813001Y+5720499D01*
X+2749501Y+5720499D01*
X+2749501Y+5529297D01*
X+2736215Y+5497221D01*
X+2749501Y+5483935D01*
X+2749501Y+5339501D01*
X+3308301Y+5339501D01*
X+3308301Y+4855865D01*
X+3132135Y+4679699D01*
X+2706918Y+4679699D01*
X+2706918Y+4708394D01*
X+2666001Y+4749311D01*
X+2608135Y+4749311D01*
X+2567218Y+4708394D01*
X+2567218Y+4679699D01*
X+610499Y+4679699D01*
X+610499Y+5268499D01*
X+559699Y+5268499D01*
X+559699Y+5546560D01*
X+602215Y+5589076D01*
X+850952Y+5589076D01*
X+1114557Y+5852681D01*
X+1114557Y+7129501D01*
X+1170499Y+7129501D01*
X+1170499Y+7510499D01*
X+535501Y+7510499D01*
X+535501Y+7449629D01*
X+472390Y+7512740D01*
X+2749501Y+7512740D01*
X+2749501Y+7199501D01*
G37*
%LPC*%
G36*
X+1565107Y+7298899D02*
X+1578107Y+7298899D01*
X+1641899Y+7235107D01*
X+1641899Y+7144893D01*
X+1578107Y+7081101D01*
X+1565107Y+7081101D01*
X+1515107Y+7031101D01*
X+1424893Y+7031101D01*
X+1374893Y+7081101D01*
X+1361893Y+7081101D01*
X+1298101Y+7144893D01*
X+1298101Y+7235107D01*
X+1361893Y+7298899D01*
X+1374893Y+7298899D01*
X+1424893Y+7348899D01*
X+1515107Y+7348899D01*
X+1565107Y+7298899D01*
G37*
G36*
X+1361961Y+5133396D02*
X+1394373Y+5127248D01*
X+2148111Y+5127248D01*
X+2180189Y+5131878D01*
X+2188259Y+5139948D01*
X+2303989Y+5139948D01*
X+2385823Y+5058114D01*
X+2385823Y+4942384D01*
X+2303989Y+4860550D01*
X+2188259Y+4860550D01*
X+2180189Y+4868620D01*
X+2148111Y+4873250D01*
X+1388740Y+4873250D01*
X+1357121Y+4870102D01*
X+1351489Y+4864470D01*
X+1235759Y+4864470D01*
X+1153925Y+4946304D01*
X+1153925Y+5062034D01*
X+1235759Y+5143868D01*
X+1351489Y+5143868D01*
X+1361961Y+5133396D01*
G37*
%LPD*%
G36*
X+2246124Y+5000249D02*
X+2244310Y+5012818D01*
X+2157224Y+5000249D01*
X+2244310Y+4987680D01*
X+2246124Y+5000249D01*
G37*
G36*
X+1293624Y+5004169D02*
X+1294882Y+4991532D01*
X+1382437Y+5000249D01*
X+1295990Y+5016646D01*
X+1293624Y+5004169D01*
G37*
G36*
X+9490601Y+7415731D02*
X+9490601Y+7184269D01*
X+9654269Y+7020601D01*
X+9885731Y+7020601D01*
X+9936360Y+7071230D01*
X+9936360Y+3360000D01*
X+9900499Y+3360000D01*
X+9900499Y+6836499D01*
X+9519501Y+6836499D01*
X+9519501Y+5675699D01*
X+8780135Y+5675699D01*
X+8559801Y+5455365D01*
X+8559801Y+4902681D01*
X+8558755Y+4909928D01*
X+8558755Y+5476434D01*
X+9062998Y+5980677D01*
X+9062998Y+6053805D01*
X+9131001Y+5985802D01*
X+9246731Y+5985802D01*
X+9328565Y+6067636D01*
X+9328565Y+6183366D01*
X+9320495Y+6191436D01*
X+9315865Y+6223514D01*
X+9315865Y+6606998D01*
X+9315928Y+6636821D01*
X+9316053Y+6636946D01*
X+9316053Y+6752676D01*
X+9234219Y+6834510D01*
X+9118489Y+6834510D01*
X+9062999Y+6779020D01*
X+9062999Y+7239501D01*
X+9380499Y+7239501D01*
X+9380499Y+7512740D01*
X+9587610Y+7512740D01*
X+9490601Y+7415731D01*
G37*
G36*
X+9261877Y+4866453D02*
X+9268972Y+4859358D01*
X+9273001Y+4827449D01*
X+9273001Y+4678013D01*
X+9268371Y+4645935D01*
X+9260301Y+4637865D01*
X+9260301Y+4522135D01*
X+9342135Y+4440301D01*
X+9457865Y+4440301D01*
X+9519501Y+4501937D01*
X+9519501Y+3561088D01*
X+9464235Y+3561088D01*
X+9263147Y+3360000D01*
X+8939699Y+3360000D01*
X+8939699Y+3897865D01*
X+8839699Y+3997865D01*
X+8839699Y+4539365D01*
X+8839199Y+4539865D01*
X+8839199Y+4950301D01*
X+8943790Y+4950301D01*
X+8957936Y+4964447D01*
X+8990608Y+4973001D01*
X+9261877Y+4973001D01*
X+9261877Y+4866453D01*
G37*
G36*
X+280301Y+5268499D02*
X+229501Y+5268499D01*
X+229501Y+3360000D01*
X+134480Y+3360000D01*
X+134480Y+5475501D01*
X+280301Y+5475501D01*
X+280301Y+5268499D01*
G37*
G36*
X+7598054Y+6618319D02*
X+7598054Y+6228799D01*
X+7512127Y+6142872D01*
X+7512127Y+6049699D01*
X+7432135Y+6049699D01*
X+7424065Y+6041629D01*
X+7391987Y+6036999D01*
X+7274659Y+6036999D01*
X+7033001Y+5795341D01*
X+7033001Y+4110264D01*
X+7032063Y+4079627D01*
X+7030301Y+4077865D01*
X+7030301Y+3979699D01*
X+6787865Y+3979699D01*
X+6783958Y+3983606D01*
X+6577990Y+3983606D01*
X+6574083Y+3979699D01*
X+4140199Y+3979699D01*
X+4140199Y+4058365D01*
X+4058365Y+4140199D01*
X+3942635Y+4140199D01*
X+3934565Y+4132129D01*
X+3902488Y+4127499D01*
X+3024418Y+4127499D01*
X+3024418Y+4151463D01*
X+2983501Y+4192380D01*
X+2925635Y+4192380D01*
X+2884718Y+4151463D01*
X+2884718Y+4127499D01*
X+2702999Y+4127499D01*
X+2702999Y+4171062D01*
X+2662082Y+4211979D01*
X+2604216Y+4211979D01*
X+2579749Y+4187512D01*
X+2579749Y+4229901D01*
X+4883865Y+4229901D01*
X+5084950Y+4430986D01*
X+5085635Y+4430301D01*
X+5201365Y+4430301D01*
X+5283199Y+4512135D01*
X+5283199Y+5645865D01*
X+5281010Y+5648054D01*
X+5470133Y+5648054D01*
X+5519927Y+5598260D01*
X+5519927Y+4251176D01*
X+5678102Y+4093001D01*
X+6536456Y+4093001D01*
X+6568740Y+4087511D01*
X+6578181Y+4078070D01*
X+6693911Y+4078070D01*
X+6775745Y+4159904D01*
X+6775745Y+4275634D01*
X+6693911Y+4357468D01*
X+6578181Y+4357468D01*
X+6571494Y+4350781D01*
X+6539658Y+4346999D01*
X+6219699Y+4346999D01*
X+6219699Y+4427865D01*
X+6137865Y+4509699D01*
X+6094454Y+4509699D01*
X+6088617Y+4510920D01*
X+5987604Y+4542890D01*
X+5987604Y+5844378D01*
X+6000304Y+5857078D01*
X+6000304Y+5923852D01*
X+6070535Y+5853621D01*
X+6186265Y+5853621D01*
X+6188805Y+5856161D01*
X+6389465Y+5856161D01*
X+6471299Y+5937995D01*
X+6471299Y+6039595D01*
X+6473839Y+6042135D01*
X+6473839Y+6157865D01*
X+6471299Y+6160405D01*
X+6471299Y+6259465D01*
X+6389465Y+6341299D01*
X+6067995Y+6341299D01*
X+5986161Y+6259465D01*
X+5986161Y+6037055D01*
X+5988701Y+6034515D01*
X+5988701Y+5984411D01*
X+5798651Y+6174461D01*
X+4690608Y+6174461D01*
X+4718520Y+6202373D01*
X+5037948Y+6202373D01*
X+5070026Y+6197743D01*
X+5078096Y+6189673D01*
X+5193826Y+6189673D01*
X+5275660Y+6271507D01*
X+5275660Y+6387237D01*
X+5247407Y+6415490D01*
X+7345981Y+6415490D01*
X+7378059Y+6410860D01*
X+7386129Y+6402790D01*
X+7501859Y+6402790D01*
X+7583693Y+6484624D01*
X+7583693Y+6600354D01*
X+7551324Y+6632723D01*
X+7583650Y+6632723D01*
X+7598054Y+6618319D01*
G37*
G36*
X+8809002Y+6085885D02*
X+8304757Y+5581640D01*
X+8304757Y+4909928D01*
X+8300127Y+4877850D01*
X+8292057Y+4869780D01*
X+8292057Y+4754050D01*
X+8373891Y+4672216D01*
X+8489621Y+4672216D01*
X+8559801Y+4742396D01*
X+8559801Y+4424135D01*
X+8560301Y+4423635D01*
X+8560301Y+3979699D01*
X+7309699Y+3979699D01*
X+7309699Y+4077865D01*
X+7295553Y+4092011D01*
X+7286999Y+4124683D01*
X+7286999Y+4579600D01*
X+7332795Y+4533804D01*
X+7448525Y+4533804D01*
X+7530359Y+4615638D01*
X+7530359Y+4731368D01*
X+7522289Y+4739438D01*
X+7517659Y+4771517D01*
X+7517658Y+5686051D01*
X+7521330Y+5717859D01*
X+7527834Y+5724363D01*
X+7527834Y+5770301D01*
X+7547865Y+5770301D01*
X+7629699Y+5852135D01*
X+7629699Y+5945308D01*
X+7709691Y+5945308D01*
X+7781034Y+6016651D01*
X+7781034Y+5087795D01*
X+7862868Y+5005961D01*
X+7978598Y+5005961D01*
X+8060432Y+5087795D01*
X+8060432Y+7004515D01*
X+8154991Y+7099074D01*
X+8154991Y+7239501D01*
X+8254797Y+7239501D01*
X+8254797Y+5965446D01*
X+8250167Y+5933368D01*
X+8242097Y+5925298D01*
X+8242097Y+5809568D01*
X+8323931Y+5727734D01*
X+8439661Y+5727734D01*
X+8521495Y+5809568D01*
X+8521495Y+5925298D01*
X+8513425Y+5933368D01*
X+8508795Y+5965446D01*
X+8508795Y+7239501D01*
X+8809001Y+7239501D01*
X+8809002Y+6085885D01*
G37*
G36*
X+3321002Y+6780000D02*
X+3321001Y+6240565D01*
X+3308301Y+6227865D01*
X+3308301Y+5720499D01*
X+3066999Y+5720499D01*
X+3066999Y+7199501D01*
X+3321001Y+7199501D01*
X+3321002Y+6780000D01*
G37*
G36*
X+3850301Y+6762135D02*
X+3855828Y+6756608D01*
X+3858912Y+6725021D01*
X+3858912Y+6425630D01*
X+3854282Y+6393552D01*
X+3846212Y+6385482D01*
X+3846212Y+6269752D01*
X+3928046Y+6187918D01*
X+4043776Y+6187918D01*
X+4125610Y+6269752D01*
X+4125610Y+6385482D01*
X+4117540Y+6393552D01*
X+4112910Y+6425630D01*
X+4112910Y+6719137D01*
X+4118666Y+6749171D01*
X+4195618Y+6672218D01*
X+4154898Y+6631498D01*
X+4154898Y+6573632D01*
X+4195815Y+6532715D01*
X+4253681Y+6532715D01*
X+4294598Y+6573632D01*
X+4294598Y+6631498D01*
X+4293373Y+6632723D01*
X+4383121Y+6632723D01*
X+4153001Y+6402603D01*
X+4153001Y+6129850D01*
X+4131067Y+6129850D01*
X+4090150Y+6088933D01*
X+4090150Y+6031067D01*
X+4131067Y+5990150D01*
X+4153001Y+5990150D01*
X+4153001Y+5420045D01*
X+4092337Y+5359381D01*
X+3892499Y+5359381D01*
X+3892499Y+5720499D01*
X+3828999Y+5720499D01*
X+3828999Y+6840301D01*
X+3850301Y+6840301D01*
X+3850301Y+6762135D01*
G37*
D13*
X+1265783Y+3569295D02*
X+1160000Y+3463512D01*
X+1160000Y+3030000D01*
D12*
X+1760000Y+3230000D02*
X+1760000Y+2450000D01*
X+1760000Y+840000D02*
X+1760000Y+2450000D01*
X+1758000Y+530000D02*
X+1760000Y+532000D01*
X+1760000Y+840000D01*
X+1160000Y+1810000D02*
X+1160000Y+1390000D01*
X+1160000Y+850000D02*
X+1160000Y+1390000D01*
X+1250000Y+530000D02*
X+1160000Y+620000D01*
X+1160000Y+850000D01*
X+2266000Y+530000D02*
X+2360000Y+624000D01*
X+2360000Y+820000D01*
X+2360000Y+1810000D02*
X+2360000Y+1390000D01*
X+2360000Y+820000D01*
D11*
X+3410000Y+3600000D02*
X+3350000Y+3540000D01*
X+3350000Y+3030000D01*
X+3380000Y+3030000D01*
D12*
X+3980000Y+3230000D02*
X+3980000Y+2420000D01*
X+3980000Y+820000D02*
X+3980000Y+2420000D01*
X+3968000Y+530000D02*
X+3980000Y+542000D01*
X+3980000Y+820000D01*
X+3460000Y+530000D02*
X+3380000Y+610000D01*
X+3380000Y+820000D01*
X+3380000Y+1810000D02*
X+3380000Y+1410000D01*
X+3380000Y+820000D01*
X+4476000Y+530000D02*
X+4580000Y+634000D01*
X+4580000Y+810000D01*
X+4580000Y+1810000D02*
X+4580000Y+1390000D01*
X+4580000Y+810000D01*
D11*
X+5630000Y+3590000D02*
X+5570000Y+3530000D01*
X+5570000Y+3030000D01*
D12*
X+6168000Y+530000D02*
X+6170000Y+532000D01*
X+6170000Y+820000D01*
X+6170000Y+3230000D02*
X+6170000Y+2390000D01*
X+6170000Y+820000D01*
X+5570000Y+1810000D02*
X+5570000Y+1410000D01*
X+5570000Y+800000D02*
X+5570000Y+1410000D01*
X+5660000Y+530000D02*
X+5570000Y+620000D01*
X+5570000Y+800000D01*
X+6676000Y+530000D02*
X+6770000Y+624000D01*
X+6770000Y+810000D01*
X+6770000Y+1810000D02*
X+6770000Y+1410000D01*
X+6770000Y+810000D01*
D11*
X+7679296Y+3645021D02*
X+7600000Y+3565725D01*
X+7600000Y+3030000D01*
D12*
X+8232000Y+540000D02*
X+8200000Y+572000D01*
X+8200000Y+830000D01*
X+8200000Y+3230000D02*
X+8200000Y+2410000D01*
X+8200000Y+830000D01*
X+7600000Y+1810000D02*
X+7600000Y+1420000D01*
X+7600000Y+820000D02*
X+7600000Y+1420000D01*
X+7724000Y+540000D02*
X+7600000Y+664000D01*
X+7600000Y+820000D01*
X+8800000Y+1810000D02*
X+8800000Y+820000D01*
X+8740000Y+540000D02*
X+8800000Y+600000D01*
X+8800000Y+820000D01*
D13*
X+7920733Y+5145660D02*
X+7920733Y+7062380D01*
X+8015292Y+7156939D01*
X+8015292Y+7414708D01*
X+8000000Y+7430000D01*
D11*
X+3985911Y+6327617D02*
X+3985911Y+6815911D01*
X+3990000Y+6820000D01*
D13*
X+9710000Y+3416000D02*
X+9704611Y+3421389D01*
X+9522100Y+3421389D01*
X+9350440Y+3249729D01*
X+9350440Y+2865674D01*
X+420000Y+2588000D02*
X+635000Y+2803000D01*
X+635000Y+3615000D01*
X+546000Y+3704000D01*
X+420000Y+3704000D01*
X+980000Y+7320000D02*
X+974858Y+7314858D01*
X+974858Y+5910546D01*
X+793087Y+5728775D01*
X+544350Y+5728775D01*
X+420000Y+5604425D01*
X+420000Y+5078000D01*
X+6441627Y+3840000D02*
X+6730000Y+3840000D01*
X+8800000Y+3840000D02*
X+6730000Y+3840000D01*
X+6635855Y+3843907D02*
X+6726093Y+3843907D01*
X+6730000Y+3840000D01*
X+4596908Y+3840000D02*
X+4594114Y+3837206D01*
X+4581073Y+3837206D01*
X+4476559Y+3837206D02*
X+4581073Y+3837206D01*
X+4581073Y+3754862D01*
X+4580000Y+3753789D01*
X+4580000Y+3030000D01*
X+4596908Y+3840000D02*
X+2348256Y+3840000D01*
X+6441627Y+3840000D02*
X+4596908Y+3840000D01*
X+2340939Y+3832683D02*
X+2348256Y+3840000D01*
X+2360000Y+3828256D01*
X+2360000Y+3030000D01*
X+6441627Y+3840000D02*
X+6441627Y+3255819D01*
X+6667446Y+3030000D01*
X+6770000Y+3030000D01*
D11*
X+2940000Y+5530000D02*
X+2925500Y+5505500D01*
X+2940000Y+7390000D02*
X+2940000Y+5530000D01*
X+2940000Y+5520000D01*
X+2925500Y+5505500D01*
D13*
X+8789671Y+3850329D02*
X+8700000Y+3940000D01*
X+8700000Y+4481500D01*
X+8699500Y+4482000D01*
X+8699500Y+5397500D01*
X+8838000Y+5536000D01*
X+9710000Y+5536000D01*
X+8789671Y+3850329D02*
X+8794898Y+3845102D01*
X+8800000Y+3840000D02*
X+8794898Y+3845102D01*
X+2925500Y+5505500D02*
X+2906465Y+5524535D01*
X+2940000Y+5530000D02*
X+2901000Y+5530000D01*
X+2906465Y+5524535D01*
X+8800000Y+3840000D02*
X+8800000Y+3030000D01*
D11*
X+8381796Y+5867433D02*
X+8381796Y+7404204D01*
X+8356000Y+7430000D01*
X+8431756Y+4811915D02*
X+8431756Y+5529037D01*
X+8584434Y+5681715D01*
X+8936000Y+6033281D01*
X+8936000Y+7430000D01*
D13*
X+5143500Y+4570000D02*
X+5143500Y+5588000D01*
X+3619500Y+3556000D02*
X+3619500Y+2476500D01*
X+3492500Y+2349500D01*
X+2095500Y+2349500D01*
X+1968500Y+2476500D01*
X+1968500Y+3619500D01*
X+1841500Y+3746500D01*
X+889000Y+3746500D01*
X+762000Y+3619500D01*
X+762000Y+2222500D01*
X+619500Y+2080000D01*
X+420000Y+2080000D01*
X+9710000Y+5884000D02*
X+9525000Y+5884000D01*
X+9398000Y+6011000D01*
X+9398000Y+7222000D01*
X+9190000Y+7430000D01*
X+390000Y+4824000D02*
X+290000Y+4824000D01*
X+145124Y+4679124D01*
X+145124Y+3446234D01*
D11*
X+420000Y+4824000D02*
X+390000Y+4824000D01*
X+3194000Y+5530000D02*
X+3194000Y+7390000D01*
D13*
X+420000Y+3450000D02*
X+148890Y+3450000D01*
X+145124Y+3446234D01*
X+145124Y+2330000D01*
D11*
X+9939598Y+2090000D02*
X+9937598Y+2088000D01*
X+9710000Y+2088000D01*
X+9939598Y+2090000D02*
X+9939598Y+795674D01*
X+9849548Y+705624D01*
X+9713624Y+705624D01*
X+9710000Y+702000D01*
X+9939598Y+2650000D02*
X+9935598Y+2654000D01*
X+9710000Y+2654000D01*
X+9939598Y+2090000D02*
X+9939598Y+2650000D01*
X+9710000Y+3758000D02*
X+9937598Y+3758000D01*
X+9939598Y+3760000D01*
X+9939598Y+2650000D02*
X+9939598Y+3760000D01*
D13*
X+145124Y+2330000D02*
X+149124Y+2334000D01*
X+420000Y+2334000D01*
X+9710000Y+5884000D02*
X+9806000Y+5884000D01*
X+9930000Y+5760000D01*
X+9930000Y+3880453D01*
X+9845648Y+3796101D01*
X+9748101Y+3796101D01*
X+9710000Y+3758000D01*
D11*
X+9160000Y+1570000D02*
X+9700000Y+1570000D01*
X+9710000Y+1580000D01*
X+6989593Y+3613334D02*
X+7130000Y+3472927D01*
X+7130000Y+363912D01*
X+7053197Y+287109D01*
X+6080000Y+4370000D02*
X+5860605Y+4450000D01*
X+5860605Y+5914943D01*
D13*
X+4727503Y+6034762D02*
X+5740786Y+6034762D01*
X+5860605Y+5914943D01*
X+825500Y+4000500D02*
X+2352716Y+4000500D01*
X+2440050Y+4087834D01*
X+2440050Y+4290050D01*
X+2519600Y+4369600D01*
X+4826000Y+4369600D01*
X+4953000Y+4496600D01*
X+4953000Y+4889500D01*
D11*
X+7390660Y+4673503D02*
X+7390660Y+5779703D01*
X+7388135Y+5782228D01*
X+4640000Y+4520000D02*
X+4626667Y+4533333D01*
X+4626667Y+5110741D01*
X+2603500Y+4000500D02*
X+4000500Y+4000500D01*
X+1460500Y+3556000D02*
X+1460500Y+2603500D01*
X+683000Y+1826000D01*
X+420000Y+1826000D01*
D13*
X+7651826Y+6085007D02*
X+7737753Y+6170934D01*
X+7737753Y+6274046D01*
X+7737753Y+6676184D01*
X+7641515Y+6772422D01*
X+4292979Y+6772422D01*
X+4119476Y+6945925D01*
X+4085401Y+6980000D01*
X+3702000Y+6980000D01*
D11*
X+3702000Y+5530000D02*
X+3703093Y+5506244D01*
X+3702000Y+5507337D01*
X+3702000Y+6980000D01*
X+3702000Y+7390000D01*
X+8885925Y+5090000D02*
X+8946259Y+5100000D01*
X+9681667Y+5100000D01*
X+9732592Y+5049075D01*
X+9710000Y+5028000D01*
X+5135961Y+6329372D02*
X+4665917Y+6329372D01*
X+4493123Y+6156578D01*
X+4493123Y+6144817D01*
X+4493123Y+5235436D01*
X+4254018Y+4996331D01*
X+3767969Y+4996331D01*
X+3764049Y+4992411D01*
X+2246124Y+5000249D02*
X+1297544Y+5000249D01*
X+1293624Y+5004169D01*
X+1290000Y+4290000D02*
X+857756Y+4290000D01*
X+717420Y+4149664D01*
X+701741Y+4133985D01*
X+701741Y+3838259D01*
X+710000Y+3830000D01*
X+2954568Y+4122530D02*
X+2652748Y+4122530D01*
X+2633149Y+4142129D01*
X+2637068Y+4679461D02*
X+2637068Y+4821068D01*
X+2640000Y+4824000D01*
X+3194000Y+5530000D02*
X+3201386Y+5522614D01*
X+3201386Y+4936245D01*
X+3089141Y+4824000D01*
X+2640000Y+4824000D01*
X+420000Y+4824000D01*
D13*
X+2794000Y+3683000D02*
X+2794000Y+2540000D01*
X+145124Y+2330000D02*
X+145124Y+1253518D01*
X+184645Y+1213997D01*
X+420000Y+1214000D01*
D11*
X+5121363Y+5775053D02*
X+5522736Y+5775053D01*
X+5646925Y+5650864D01*
X+5646925Y+4303780D01*
X+5730705Y+4220000D01*
X+6633815Y+4220000D01*
X+6636046Y+4217769D01*
X+6767350Y+3626333D02*
X+6767350Y+3545053D01*
X+7007603Y+3304800D01*
X+7007603Y+1124193D01*
X+7003953Y+1120543D01*
X+9024591Y+955990D02*
X+9710000Y+956000D01*
X+9400000Y+4580000D02*
X+9400000Y+4922742D01*
X+9401576Y+4924318D01*
X+9188866Y+6125501D02*
X+9188866Y+6682299D01*
X+9176354Y+6694811D01*
D13*
X+3448000Y+5487406D02*
X+3448000Y+5530000D01*
X+3448000Y+6170000D01*
D11*
X+3448000Y+7390000D02*
X+3448000Y+6170000D01*
D10*
X+4224748Y+6602565D02*
X+4151020Y+6602565D01*
X+4151020Y+6068980D01*
X+4160000Y+6060000D01*
D11*
X+7443994Y+6542489D02*
X+4472489Y+6542489D01*
X+4410000Y+6480000D01*
X+4280000Y+6350000D01*
X+4280000Y+5367442D01*
X+4144940Y+5232382D01*
X+3448000Y+5232382D01*
D13*
X+3448000Y+5260000D02*
X+3448000Y+5232382D01*
X+3448000Y+4798000D01*
X+3190000Y+4540000D01*
X+450000Y+4540000D01*
X+420000Y+4570000D01*
X+3448000Y+5487406D02*
X+3448000Y+5260000D01*
D11*
X+5151157Y+3597261D02*
X+5151157Y+374055D01*
X+5400070Y+125142D01*
X+7081701Y+125142D01*
X+7260000Y+303441D01*
X+7260000Y+3589382D01*
X+7194733Y+3654649D01*
X+7170000Y+4020000D02*
X+7160000Y+4020000D01*
X+7160000Y+5742738D01*
X+7327263Y+5910001D01*
X+7490000Y+5910000D01*
D13*
X+726000Y+7320000D02*
X+726000Y+6045059D01*
X+594950Y+5914009D01*
X+235991Y+5914009D01*
X+230000Y+5920000D01*
X+9710000Y+5884000D02*
X+9719596Y+5834115D01*
X+9833898Y+5856102D01*
X+9740051Y+5924958D01*
X+9710000Y+5884000D01*
X+9689680Y+5930558D01*
X+9583000Y+5884000D01*
X+9689680Y+5837442D01*
X+9710000Y+5884000D01*
X+9710000Y+5536000D02*
X+9689680Y+5582558D01*
X+9583001Y+5536000D01*
X+9689680Y+5489442D01*
X+9710000Y+5536000D01*
D11*
X+9710000Y+5028000D02*
X+9714416Y+5091346D01*
X+9590284Y+5100000D01*
X+9656115Y+4994406D01*
X+9710000Y+5028000D01*
X+9710000Y+3758000D02*
X+9738863Y+3701440D01*
X+9849700Y+3758000D01*
X+9738863Y+3814560D01*
X+9710000Y+3758000D01*
D13*
X+9743352Y+3719682D01*
X+9831149Y+3796101D01*
X+9715415Y+3808510D01*
X+9710000Y+3758000D01*
X+9710000Y+3416000D02*
X+9691674Y+3463379D01*
X+9583115Y+3421389D01*
X+9687723Y+3370346D01*
X+9710000Y+3416000D01*
D11*
X+9710000Y+2654000D02*
X+9738863Y+2597440D01*
X+9849700Y+2654000D01*
X+9738863Y+2710560D01*
X+9710000Y+2654000D01*
D13*
X+9190000Y+7430000D02*
X+9171447Y+7382710D01*
X+9279802Y+7340198D01*
X+9237290Y+7448553D01*
X+9190000Y+7430000D01*
D11*
X+9710000Y+956000D02*
X+9681136Y+1012560D01*
X+9570300Y+955998D01*
X+9681138Y+899439D01*
X+9710000Y+956000D01*
X+9710000Y+702000D02*
X+9740361Y+646230D01*
X+9849650Y+705726D01*
X+9737344Y+759310D01*
X+9710000Y+702000D01*
X+9710000Y+2088000D02*
X+9738863Y+2031440D01*
X+9849700Y+2088000D01*
X+9738863Y+2144560D01*
X+9710000Y+2088000D01*
X+9710000Y+1580000D02*
X+9677162Y+1634349D01*
X+9570659Y+1570000D01*
X+9685260Y+1521519D01*
X+9710000Y+1580000D01*
D13*
X+9350440Y+2865674D02*
X+9350440Y+2865674D01*
X+9350440Y+2865674D01*
D11*
X+9160000Y+1570000D02*
X+9161814Y+1557431D01*
X+9248900Y+1570000D01*
X+9161814Y+1582569D01*
X+9160000Y+1570000D01*
X+9024591Y+955990D02*
X+9026405Y+943421D01*
X+9113490Y+955991D01*
X+9026405Y+968559D01*
X+9024591Y+955990D01*
X+9400000Y+4580000D02*
X+9412569Y+4581814D01*
X+9400000Y+4668900D01*
X+9387431Y+4581814D01*
X+9400000Y+4580000D01*
X+9401576Y+4924318D02*
X+9388977Y+4922727D01*
X+9400000Y+4835432D01*
X+9414111Y+4922282D01*
X+9401576Y+4924318D01*
X+9188866Y+6125501D02*
X+9201435Y+6127315D01*
X+9188866Y+6214401D01*
X+9176297Y+6127315D01*
X+9188866Y+6125501D01*
X+9176354Y+6694811D02*
X+9164165Y+6691246D01*
X+9188866Y+6606796D01*
X+9189053Y+6694784D01*
X+9176354Y+6694811D01*
D13*
X+726000Y+7320000D02*
X+679442Y+7299680D01*
X+726000Y+7193000D01*
X+772558Y+7299680D01*
X+726000Y+7320000D01*
X+420000Y+5078000D02*
X+466558Y+5098320D01*
X+420000Y+5205000D01*
X+373442Y+5098320D01*
X+420000Y+5078000D01*
D11*
X+420000Y+4824000D02*
X+448863Y+4767440D01*
X+559700Y+4824000D01*
X+448863Y+4880560D01*
X+420000Y+4824000D01*
D13*
X+420000Y+4570000D02*
X+428746Y+4519959D01*
X+543405Y+4540000D01*
X+450743Y+4610441D01*
X+420000Y+4570000D01*
X+420000Y+1214000D02*
X+399680Y+1260558D01*
X+293000Y+1213999D01*
X+399681Y+1167441D01*
X+420000Y+1214000D01*
X+420000Y+2588000D02*
X+467290Y+2569447D01*
X+509802Y+2677802D01*
X+401447Y+2635290D01*
X+420000Y+2588000D01*
X+420000Y+2334000D02*
X+399680Y+2380558D01*
X+293000Y+2334000D01*
X+399680Y+2287442D01*
X+420000Y+2334000D01*
X+420000Y+2080000D02*
X+440320Y+2033442D01*
X+547000Y+2080000D01*
X+440320Y+2126558D01*
X+420000Y+2080000D01*
D11*
X+420000Y+1826000D02*
X+448863Y+1769440D01*
X+559700Y+1826000D01*
X+448863Y+1882560D01*
X+420000Y+1826000D01*
D13*
X+420000Y+3704000D02*
X+439954Y+3657284D01*
X+546996Y+3703004D01*
X+440684Y+3750398D01*
X+420000Y+3704000D01*
X+420000Y+3450000D02*
X+399680Y+3496558D01*
X+293000Y+3450000D01*
X+399680Y+3403442D01*
X+420000Y+3450000D01*
X+230000Y+5920000D02*
X+248101Y+5872535D01*
X+356858Y+5914009D01*
X+252493Y+5965548D01*
X+230000Y+5920000D01*
X+825500Y+4000500D02*
X+825500Y+4000500D01*
X+825500Y+4000500D01*
D11*
X+710000Y+3830000D02*
X+722346Y+3832974D01*
X+701741Y+3918515D01*
X+697317Y+3830638D01*
X+710000Y+3830000D01*
D13*
X+980000Y+7320000D02*
X+932657Y+7301582D01*
X+974858Y+7193105D01*
X+1025698Y+7297812D01*
X+980000Y+7320000D01*
X+2360000Y+3030000D02*
X+2425991Y+3068100D01*
X+2360000Y+3182400D01*
X+2294009Y+3068100D01*
X+2360000Y+3030000D01*
X+1160000Y+3030000D02*
X+1225991Y+3068100D01*
X+1160000Y+3182400D01*
X+1094009Y+3068100D01*
X+1160000Y+3030000D01*
D12*
X+1760000Y+3230000D02*
X+1735407Y+3223650D01*
X+1760000Y+3128401D01*
X+1784593Y+3223651D01*
X+1760000Y+3230000D01*
X+2360000Y+1810000D02*
X+2335407Y+1803650D01*
X+2360000Y+1708400D01*
X+2384593Y+1803651D01*
X+2360000Y+1810000D01*
X+1160000Y+1810000D02*
X+1135407Y+1803650D01*
X+1160000Y+1708400D01*
X+1184593Y+1803651D01*
X+1160000Y+1810000D01*
D13*
X+4580000Y+3030000D02*
X+4645991Y+3068100D01*
X+4580000Y+3182400D01*
X+4514009Y+3068100D01*
X+4580000Y+3030000D01*
D11*
X+3380000Y+3030000D02*
X+3444966Y+3090684D01*
X+3350000Y+3192351D01*
X+3297638Y+3063460D01*
X+3380000Y+3030000D01*
D12*
X+3980000Y+3230000D02*
X+3955407Y+3223650D01*
X+3980000Y+3128400D01*
X+4004593Y+3223651D01*
X+3980000Y+3230000D01*
X+4580000Y+1810000D02*
X+4555407Y+1803650D01*
X+4580000Y+1708400D01*
X+4604593Y+1803651D01*
X+4580000Y+1810000D01*
X+3380000Y+1810000D02*
X+3355407Y+1803650D01*
X+3380000Y+1708400D01*
X+3404593Y+1803651D01*
X+3380000Y+1810000D01*
D13*
X+6770000Y+3030000D02*
X+6752324Y+3104121D01*
X+6623941Y+3073505D01*
X+6714648Y+2977632D01*
X+6770000Y+3030000D01*
D11*
X+5570000Y+3030000D02*
X+5644911Y+3077869D01*
X+5570000Y+3195100D01*
X+5495089Y+3077869D01*
X+5570000Y+3030000D01*
D12*
X+6170000Y+3230000D02*
X+6145407Y+3223650D01*
X+6170000Y+3128400D01*
X+6194593Y+3223651D01*
X+6170000Y+3230000D01*
X+6770000Y+1810000D02*
X+6745407Y+1803650D01*
X+6770000Y+1708400D01*
X+6794593Y+1803651D01*
X+6770000Y+1810000D01*
X+5570000Y+1810000D02*
X+5545407Y+1803650D01*
X+5570000Y+1708400D01*
X+5594593Y+1803651D01*
X+5570000Y+1810000D01*
D13*
X+8800000Y+3030000D02*
X+8865991Y+3068100D01*
X+8800000Y+3182400D01*
X+8734009Y+3068100D01*
X+8800000Y+3030000D01*
D11*
X+7600000Y+3030000D02*
X+7674911Y+3077869D01*
X+7600000Y+3195100D01*
X+7525089Y+3077869D01*
X+7600000Y+3030000D01*
D12*
X+8200000Y+3230000D02*
X+8175407Y+3223650D01*
X+8200000Y+3128400D01*
X+8224593Y+3223651D01*
X+8200000Y+3230000D01*
X+8800000Y+1810000D02*
X+8775407Y+1803650D01*
X+8800000Y+1708400D01*
X+8824593Y+1803651D01*
X+8800000Y+1810000D01*
X+7600000Y+1810000D02*
X+7575407Y+1803650D01*
X+7600000Y+1708401D01*
X+7624593Y+1803651D01*
X+7600000Y+1810000D01*
D11*
X+2940000Y+5530000D02*
X+2996560Y+5558863D01*
X+2940000Y+5669700D01*
X+2883440Y+5558863D01*
X+2940000Y+5530000D01*
X+3194000Y+5530000D02*
X+3139045Y+5498187D01*
X+3201386Y+5390496D01*
X+3252007Y+5504168D01*
X+3194000Y+5530000D01*
X+3250560Y+5558863D01*
X+3194000Y+5669700D01*
X+3137440Y+5558863D01*
X+3194000Y+5530000D01*
D13*
X+3448000Y+5530000D02*
X+3494558Y+5550320D01*
X+3448000Y+5657000D01*
X+3401442Y+5550320D01*
X+3448000Y+5530000D01*
D11*
X+3702000Y+5530000D02*
X+3758560Y+5558863D01*
X+3702000Y+5669700D01*
X+3645440Y+5558863D01*
X+3702000Y+5530000D01*
X+8356000Y+7430000D02*
X+8305742Y+7391189D01*
X+8381796Y+7292703D01*
X+8416918Y+7412077D01*
X+8356000Y+7430000D01*
X+8936000Y+7430000D02*
X+8879440Y+7401137D01*
X+8936000Y+7290300D01*
X+8992560Y+7401137D01*
X+8936000Y+7430000D01*
X+2940000Y+7390000D02*
X+2883440Y+7361137D01*
X+2940000Y+7250300D01*
X+2996560Y+7361137D01*
X+2940000Y+7390000D01*
X+3194000Y+7390000D02*
X+3137440Y+7361137D01*
X+3194000Y+7250300D01*
X+3250560Y+7361137D01*
X+3194000Y+7390000D01*
X+3448000Y+7390000D02*
X+3391440Y+7361137D01*
X+3448000Y+7250300D01*
X+3504560Y+7361137D01*
X+3448000Y+7390000D01*
X+3702000Y+7390000D02*
X+3645440Y+7361137D01*
X+3702000Y+7250300D01*
X+3758560Y+7361137D01*
X+3702000Y+7390000D01*
D13*
X+8000000Y+7430000D02*
X+7956227Y+7404222D01*
X+8015292Y+7303925D01*
X+8048666Y+7415435D01*
X+8000000Y+7430000D01*
X+1265783Y+3569295D02*
X+1265783Y+3569295D01*
X+1265783Y+3569295D01*
D11*
X+3410000Y+3600000D02*
X+3399501Y+3607144D01*
X+3350000Y+3534402D01*
X+3418050Y+3590178D01*
X+3410000Y+3600000D01*
X+5630000Y+3590000D02*
X+5619501Y+3597144D01*
X+5570000Y+3524402D01*
X+5638050Y+3580178D01*
X+5630000Y+3590000D01*
X+7679296Y+3645021D02*
X+7669125Y+3652626D01*
X+7616434Y+3582159D01*
X+7686901Y+3634850D01*
X+7679296Y+3645021D01*
D13*
X+7920733Y+5145660D02*
X+7920733Y+5145660D01*
X+7920733Y+5145660D01*
D11*
X+3990000Y+6820000D02*
X+3977361Y+6818766D01*
X+3985911Y+6731195D01*
X+4002472Y+6817610D01*
X+3990000Y+6820000D01*
X+3985911Y+6327617D02*
X+3998480Y+6329431D01*
X+3985911Y+6416517D01*
X+3973342Y+6329431D01*
X+3985911Y+6327617D01*
D13*
X+6635855Y+3843907D02*
X+6635855Y+3843907D01*
X+6635855Y+3843907D01*
X+4476559Y+3837206D02*
X+4476559Y+3837206D01*
X+4476559Y+3837206D01*
X+8800000Y+3840000D02*
X+8800000Y+3840000D01*
X+8800000Y+3840000D01*
X+8800000Y+3840000D01*
X+8800000Y+3840000D01*
D11*
X+8381796Y+5867433D02*
X+8394365Y+5869247D01*
X+8381796Y+5956333D01*
X+8369227Y+5869247D01*
X+8381796Y+5867433D01*
X+8431756Y+4811915D02*
X+8444325Y+4813729D01*
X+8431756Y+4900815D01*
X+8419187Y+4813729D01*
X+8431756Y+4811915D01*
D13*
X+5143500Y+5588000D02*
X+5143500Y+5588000D01*
X+5143500Y+5588000D01*
X+5143500Y+4570000D02*
X+5143500Y+4570000D01*
X+5143500Y+4570000D01*
X+3619500Y+3556000D02*
X+3619500Y+3556000D01*
X+3619500Y+3556000D01*
D11*
X+7053197Y+287109D02*
X+7063368Y+279504D01*
X+7116059Y+349971D01*
X+7045592Y+297280D01*
X+7053197Y+287109D01*
X+6989593Y+3613334D02*
X+6981988Y+3603163D01*
X+7052454Y+3550473D01*
X+6999764Y+3620939D01*
X+6989593Y+3613334D01*
X+6080000Y+4370000D02*
X+6082601Y+4382430D01*
X+5996480Y+4400454D01*
X+6073990Y+4358813D01*
X+6080000Y+4370000D01*
D13*
X+4727503Y+6034762D02*
X+4727503Y+6034762D01*
X+4727503Y+6034762D01*
X+4953000Y+4889500D02*
X+4953000Y+4889500D01*
X+4953000Y+4889500D01*
D11*
X+7388135Y+5782228D02*
X+7375622Y+5780058D01*
X+7390660Y+5693364D01*
X+7400751Y+5780772D01*
X+7388135Y+5782228D01*
X+7390660Y+4673503D02*
X+7403229Y+4675317D01*
X+7390660Y+4762403D01*
X+7378091Y+4675317D01*
X+7390660Y+4673503D01*
X+4626667Y+5110741D02*
X+4614098Y+5108927D01*
X+4626667Y+5021841D01*
X+4639236Y+5108927D01*
X+4626667Y+5110741D01*
X+4640000Y+4520000D02*
X+4652155Y+4523678D01*
X+4626667Y+4607894D01*
X+4627301Y+4519909D01*
X+4640000Y+4520000D01*
X+4000500Y+4000500D02*
X+3998686Y+4013069D01*
X+3911601Y+4000500D01*
X+3998686Y+3987931D01*
X+4000500Y+4000500D01*
X+2603500Y+4000500D02*
X+2605314Y+3987931D01*
X+2692399Y+4000500D01*
X+2605314Y+4013069D01*
X+2603500Y+4000500D01*
X+1460500Y+3556000D02*
X+1447931Y+3554186D01*
X+1460500Y+3467100D01*
X+1473069Y+3554186D01*
X+1460500Y+3556000D01*
D13*
X+7651826Y+6085007D02*
X+7651826Y+6085007D01*
X+7651826Y+6085007D01*
D11*
X+8885925Y+5090000D02*
X+8889141Y+5077715D01*
X+8974260Y+5100000D01*
X+8886313Y+5102694D01*
X+8885925Y+5090000D01*
D10*
X+4224748Y+6602565D02*
X+4209982Y+6614600D01*
X+4151020Y+6542260D01*
X+4233616Y+6585706D01*
X+4224748Y+6602565D01*
X+4160000Y+6060000D02*
X+4178222Y+6065552D01*
X+4151020Y+6154825D01*
X+4141059Y+6062033D01*
X+4160000Y+6060000D01*
D11*
X+5135961Y+6329372D02*
X+5134147Y+6341941D01*
X+5047061Y+6329372D01*
X+5134147Y+6316803D01*
X+5135961Y+6329372D01*
X+3764049Y+4992411D02*
X+3766415Y+4979934D01*
X+3852862Y+4996331D01*
X+3765307Y+5005048D01*
X+3764049Y+4992411D01*
X+2246124Y+5000249D02*
X+2244310Y+5012818D01*
X+2157224Y+5000249D01*
X+2244310Y+4987680D01*
X+2246124Y+5000249D01*
X+1293624Y+5004169D02*
X+1294882Y+4991532D01*
X+1382437Y+5000249D01*
X+1295990Y+5016646D01*
X+1293624Y+5004169D01*
X+1290000Y+4290000D02*
X+1288186Y+4302569D01*
X+1201100Y+4290000D01*
X+1288186Y+4277431D01*
X+1290000Y+4290000D01*
X+2954568Y+4122530D02*
X+2952754Y+4135099D01*
X+2865668Y+4122530D01*
X+2952754Y+4109961D01*
X+2954568Y+4122530D01*
X+2633149Y+4142129D02*
X+2632148Y+4129469D01*
X+2719861Y+4122530D01*
X+2637689Y+4153989D01*
X+2633149Y+4142129D01*
X+2637068Y+4679461D02*
X+2649637Y+4681275D01*
X+2637068Y+4768361D01*
X+2624499Y+4681275D01*
X+2637068Y+4679461D01*
D13*
X+2794000Y+3683000D02*
X+2794000Y+3683000D01*
X+2794000Y+3683000D01*
X+2794000Y+2540000D02*
X+2794000Y+2540000D01*
X+2794000Y+2540000D01*
D11*
X+5121363Y+5775053D02*
X+5123177Y+5762484D01*
X+5210263Y+5775053D01*
X+5123177Y+5787622D01*
X+5121363Y+5775053D01*
X+6636046Y+4217769D02*
X+6634548Y+4230380D01*
X+6547174Y+4220000D01*
X+6633917Y+4205249D01*
X+6636046Y+4217769D01*
X+6767350Y+3626333D02*
X+6754973Y+3623491D01*
X+6774668Y+3537735D01*
X+6780026Y+3625560D01*
X+6767350Y+3626333D01*
X+7003953Y+1120543D02*
X+7016586Y+1121839D01*
X+7007603Y+1209368D01*
X+6991469Y+1122871D01*
X+7003953Y+1120543D01*
X+7443994Y+6542489D02*
X+7442180Y+6555058D01*
X+7355094Y+6542489D01*
X+7442180Y+6529920D01*
X+7443994Y+6542489D01*
X+5151157Y+3597261D02*
X+5138588Y+3595447D01*
X+5151157Y+3508361D01*
X+5163726Y+3595447D01*
X+5151157Y+3597261D01*
X+7194733Y+3654649D02*
X+7187128Y+3644478D01*
X+7257595Y+3591787D01*
X+7204904Y+3662254D01*
X+7194733Y+3654649D01*
X+7170000Y+4020000D02*
X+7182285Y+4023216D01*
X+7160000Y+4108335D01*
X+7157306Y+4020388D01*
X+7170000Y+4020000D01*
X+7490000Y+5910000D02*
X+7488186Y+5922569D01*
X+7401100Y+5910000D01*
X+7488186Y+5897431D01*
X+7490000Y+5910000D01*
D17*
X+1265783Y+3569295D03*
X+1760000Y+2450000D03*
X+1760000Y+840000D03*
X+1160000Y+1390000D03*
X+1160000Y+850000D03*
X+2360000Y+820000D03*
X+2360000Y+1390000D03*
X+3410000Y+3600000D03*
X+3980000Y+2420000D03*
X+3980000Y+820000D03*
X+3380000Y+820000D03*
X+3380000Y+1410000D03*
X+4580000Y+810000D03*
X+4580000Y+1390000D03*
X+5630000Y+3590000D03*
X+6170000Y+820000D03*
X+6170000Y+2390000D03*
X+5570000Y+1410000D03*
X+5570000Y+800000D03*
X+6770000Y+810000D03*
X+6770000Y+1410000D03*
X+7679296Y+3645021D03*
X+8200000Y+830000D03*
X+8200000Y+2410000D03*
X+7600000Y+1420000D03*
X+7600000Y+820000D03*
X+8800000Y+820000D03*
X+7920733Y+5145660D03*
X+3990000Y+6820000D03*
X+3985911Y+6327617D03*
X+9350440Y+2865674D03*
X+6635855Y+3843907D03*
X+4476559Y+3837206D03*
X+2340939Y+3832683D03*
X+8800000Y+3840000D03*
X+8381796Y+5867433D03*
X+8431756Y+4811915D03*
X+5143500Y+5588000D03*
X+5143500Y+4570000D03*
X+3619500Y+3556000D03*
X+9160000Y+1570000D03*
X+7053197Y+287109D03*
X+6989593Y+3613334D03*
X+6080000Y+4370000D03*
X+4727503Y+6034762D03*
X+4953000Y+4889500D03*
X+825500Y+4000500D03*
X+7388135Y+5782228D03*
X+7390660Y+4673503D03*
X+4626667Y+5110741D03*
X+4640000Y+4520000D03*
X+4000500Y+4000500D03*
X+2603500Y+4000500D03*
X+1460500Y+3556000D03*
X+7651826Y+6085007D03*
X+8885925Y+5090000D03*
X+4224748Y+6602565D03*
X+4160000Y+6060000D03*
X+5135961Y+6329372D03*
X+3764049Y+4992411D03*
X+2246124Y+5000249D03*
X+1293624Y+5004169D03*
X+1290000Y+4290000D03*
X+710000Y+3830000D03*
X+2954568Y+4122530D03*
X+2633149Y+4142129D03*
X+2637068Y+4679461D03*
X+2794000Y+3683000D03*
X+2794000Y+2540000D03*
X+5121363Y+5775053D03*
X+6636046Y+4217769D03*
X+6767350Y+3626333D03*
X+7003953Y+1120543D03*
X+9024591Y+955990D03*
X+9400000Y+4580000D03*
X+9401576Y+4924318D03*
X+9188866Y+6125501D03*
X+9176354Y+6694811D03*
X+7443994Y+6542489D03*
X+5151157Y+3597261D03*
X+7194733Y+3654649D03*
X+7170000Y+4020000D03*
X+7490000Y+5910000D03*
D11*
X+5200000Y+6912121D02*
X+4350844Y+6912121D01*
X+4143266Y+7119699D01*
X+3828999Y+7119699D01*
X+3828998Y+7199501D01*
X+3892499Y+7199501D01*
X+3892499Y+7512740D01*
X+4509501Y+7512740D01*
X+4509501Y+7229501D01*
X+5144499Y+7229501D01*
X+5144499Y+7512740D01*
X+5200000Y+7512740D01*
X+5200000Y+6912121D01*
X+7555501Y+7239501D02*
X+7875593Y+7239501D01*
X+7875593Y+7214804D01*
X+7781034Y+7120245D01*
X+7781034Y+6830467D01*
X+7699380Y+6912121D01*
X+7400000Y+6912121D01*
X+7400000Y+7512740D01*
X+7555501Y+7512740D01*
X+7555501Y+7239501D01*
X+535501Y+7129501D02*
X+586301Y+7129501D01*
X+586301Y+6102924D01*
X+537085Y+6053708D01*
X+420499Y+6053708D01*
X+420499Y+6110499D01*
X+306107Y+6110499D01*
X+408399Y+6212791D01*
X+408399Y+6367209D01*
X+299209Y+6476399D01*
X+144791Y+6476399D01*
X+134480Y+6466088D01*
X+134480Y+6773912D01*
X+144791Y+6763601D01*
X+299209Y+6763601D01*
X+408399Y+6872791D01*
X+408399Y+7023269D01*
X+535501Y+7150371D01*
X+535501Y+7129501D01*
X+2749501Y+7199501D02*
X+2813001Y+7199501D01*
X+2813001Y+5720499D01*
X+2749501Y+5720499D01*
X+2749501Y+5529297D01*
X+2736215Y+5497221D01*
X+2749501Y+5483935D01*
X+2749501Y+5339501D01*
X+3308301Y+5339501D01*
X+3308301Y+4855865D01*
X+3132135Y+4679699D01*
X+2706918Y+4679699D01*
X+2706918Y+4708394D01*
X+2666001Y+4749311D01*
X+2608135Y+4749311D01*
X+2567218Y+4708394D01*
X+2567218Y+4679699D01*
X+610499Y+4679699D01*
X+610499Y+5268499D01*
X+559699Y+5268499D01*
X+559699Y+5546560D01*
X+602215Y+5589076D01*
X+850952Y+5589076D01*
X+1114557Y+5852681D01*
X+1114557Y+7129501D01*
X+1170499Y+7129501D01*
X+1170499Y+7510499D01*
X+535501Y+7510499D01*
X+535501Y+7449629D01*
X+472390Y+7512740D01*
X+2749501Y+7512740D01*
X+2749501Y+7199501D01*
X+1565107Y+7298899D02*
X+1578107Y+7298899D01*
X+1641899Y+7235107D01*
X+1641899Y+7144893D01*
X+1578107Y+7081101D01*
X+1565107Y+7081101D01*
X+1515107Y+7031101D01*
X+1424893Y+7031101D01*
X+1374893Y+7081101D01*
X+1361893Y+7081101D01*
X+1298101Y+7144893D01*
X+1298101Y+7235107D01*
X+1361893Y+7298899D01*
X+1374893Y+7298899D01*
X+1424893Y+7348899D01*
X+1515107Y+7348899D01*
X+1565107Y+7298899D01*
X+1361961Y+5133396D02*
X+1394373Y+5127248D01*
X+2148111Y+5127248D01*
X+2180189Y+5131878D01*
X+2188259Y+5139948D01*
X+2303989Y+5139948D01*
X+2385823Y+5058114D01*
X+2385823Y+4942384D01*
X+2303989Y+4860550D01*
X+2188259Y+4860550D01*
X+2180189Y+4868620D01*
X+2148111Y+4873250D01*
X+1388740Y+4873250D01*
X+1357121Y+4870102D01*
X+1351489Y+4864470D01*
X+1235759Y+4864470D01*
X+1153925Y+4946304D01*
X+1153925Y+5062034D01*
X+1235759Y+5143868D01*
X+1351489Y+5143868D01*
X+1361961Y+5133396D01*
X+9490601Y+7415731D02*
X+9490601Y+7184269D01*
X+9654269Y+7020601D01*
X+9885731Y+7020601D01*
X+9936360Y+7071230D01*
X+9936360Y+3360000D01*
X+9900499Y+3360000D01*
X+9900499Y+6836499D01*
X+9519501Y+6836499D01*
X+9519501Y+5675699D01*
X+8780135Y+5675699D01*
X+8559801Y+5455365D01*
X+8559801Y+4902681D01*
X+8558755Y+4909928D01*
X+8558755Y+5476434D01*
X+9062998Y+5980677D01*
X+9062998Y+6053805D01*
X+9131001Y+5985802D01*
X+9246731Y+5985802D01*
X+9328565Y+6067636D01*
X+9328565Y+6183366D01*
X+9320495Y+6191436D01*
X+9315865Y+6223514D01*
X+9315865Y+6606998D01*
X+9315928Y+6636821D01*
X+9316053Y+6636946D01*
X+9316053Y+6752676D01*
X+9234219Y+6834510D01*
X+9118489Y+6834510D01*
X+9062999Y+6779020D01*
X+9062999Y+7239501D01*
X+9380499Y+7239501D01*
X+9380499Y+7512740D01*
X+9587610Y+7512740D01*
X+9490601Y+7415731D01*
X+9261877Y+4866453D02*
X+9268972Y+4859358D01*
X+9273001Y+4827449D01*
X+9273001Y+4678013D01*
X+9268371Y+4645935D01*
X+9260301Y+4637865D01*
X+9260301Y+4522135D01*
X+9342135Y+4440301D01*
X+9457865Y+4440301D01*
X+9519501Y+4501937D01*
X+9519501Y+3561088D01*
X+9464235Y+3561088D01*
X+9263147Y+3360000D01*
X+8939699Y+3360000D01*
X+8939699Y+3897865D01*
X+8839699Y+3997865D01*
X+8839699Y+4539365D01*
X+8839199Y+4539865D01*
X+8839199Y+4950301D01*
X+8943790Y+4950301D01*
X+8957936Y+4964447D01*
X+8990608Y+4973001D01*
X+9261877Y+4973001D01*
X+9261877Y+4866453D01*
X+280301Y+5268499D02*
X+229501Y+5268499D01*
X+229501Y+3360000D01*
X+134480Y+3360000D01*
X+134480Y+5475501D01*
X+280301Y+5475501D01*
X+280301Y+5268499D01*
X+7598054Y+6618319D02*
X+7598054Y+6228799D01*
X+7512127Y+6142872D01*
X+7512127Y+6049699D01*
X+7432135Y+6049699D01*
X+7424065Y+6041629D01*
X+7391987Y+6036999D01*
X+7274659Y+6036999D01*
X+7033001Y+5795341D01*
X+7033001Y+4110264D01*
X+7032063Y+4079627D01*
X+7030301Y+4077865D01*
X+7030301Y+3979699D01*
X+6787865Y+3979699D01*
X+6783958Y+3983606D01*
X+6577990Y+3983606D01*
X+6574083Y+3979699D01*
X+4140199Y+3979699D01*
X+4140199Y+4058365D01*
X+4058365Y+4140199D01*
X+3942635Y+4140199D01*
X+3934565Y+4132129D01*
X+3902488Y+4127499D01*
X+3024418Y+4127499D01*
X+3024418Y+4151463D01*
X+2983501Y+4192380D01*
X+2925635Y+4192380D01*
X+2884718Y+4151463D01*
X+2884718Y+4127499D01*
X+2702999Y+4127499D01*
X+2702999Y+4171062D01*
X+2662082Y+4211979D01*
X+2604216Y+4211979D01*
X+2579749Y+4187512D01*
X+2579749Y+4229901D01*
X+4883865Y+4229901D01*
X+5084950Y+4430986D01*
X+5085635Y+4430301D01*
X+5201365Y+4430301D01*
X+5283199Y+4512135D01*
X+5283199Y+5645865D01*
X+5281010Y+5648054D01*
X+5470133Y+5648054D01*
X+5519927Y+5598260D01*
X+5519927Y+4251176D01*
X+5678102Y+4093001D01*
X+6536456Y+4093001D01*
X+6568740Y+4087511D01*
X+6578181Y+4078070D01*
X+6693911Y+4078070D01*
X+6775745Y+4159904D01*
X+6775745Y+4275634D01*
X+6693911Y+4357468D01*
X+6578181Y+4357468D01*
X+6571494Y+4350781D01*
X+6539658Y+4346999D01*
X+6219699Y+4346999D01*
X+6219699Y+4427865D01*
X+6137865Y+4509699D01*
X+6094454Y+4509699D01*
X+6088617Y+4510920D01*
X+5987604Y+4542890D01*
X+5987604Y+5844378D01*
X+6000304Y+5857078D01*
X+6000304Y+5923852D01*
X+6070535Y+5853621D01*
X+6186265Y+5853621D01*
X+6188805Y+5856161D01*
X+6389465Y+5856161D01*
X+6471299Y+5937995D01*
X+6471299Y+6039595D01*
X+6473839Y+6042135D01*
X+6473839Y+6157865D01*
X+6471299Y+6160405D01*
X+6471299Y+6259465D01*
X+6389465Y+6341299D01*
X+6067995Y+6341299D01*
X+5986161Y+6259465D01*
X+5986161Y+6037055D01*
X+5988701Y+6034515D01*
X+5988701Y+5984411D01*
X+5798651Y+6174461D01*
X+4690608Y+6174461D01*
X+4718520Y+6202373D01*
X+5037948Y+6202373D01*
X+5070026Y+6197743D01*
X+5078096Y+6189673D01*
X+5193826Y+6189673D01*
X+5275660Y+6271507D01*
X+5275660Y+6387237D01*
X+5247407Y+6415490D01*
X+7345981Y+6415490D01*
X+7378059Y+6410860D01*
X+7386129Y+6402790D01*
X+7501859Y+6402790D01*
X+7583693Y+6484624D01*
X+7583693Y+6600354D01*
X+7551324Y+6632723D01*
X+7583650Y+6632723D01*
X+7598054Y+6618319D01*
X+8809002Y+6085885D02*
X+8304757Y+5581640D01*
X+8304757Y+4909928D01*
X+8300127Y+4877850D01*
X+8292057Y+4869780D01*
X+8292057Y+4754050D01*
X+8373891Y+4672216D01*
X+8489621Y+4672216D01*
X+8559801Y+4742396D01*
X+8559801Y+4424135D01*
X+8560301Y+4423635D01*
X+8560301Y+3979699D01*
X+7309699Y+3979699D01*
X+7309699Y+4077865D01*
X+7295553Y+4092011D01*
X+7286999Y+4124683D01*
X+7286999Y+4579600D01*
X+7332795Y+4533804D01*
X+7448525Y+4533804D01*
X+7530359Y+4615638D01*
X+7530359Y+4731368D01*
X+7522289Y+4739438D01*
X+7517659Y+4771517D01*
X+7517658Y+5686051D01*
X+7521330Y+5717859D01*
X+7527834Y+5724363D01*
X+7527834Y+5770301D01*
X+7547865Y+5770301D01*
X+7629699Y+5852135D01*
X+7629699Y+5945308D01*
X+7709691Y+5945308D01*
X+7781034Y+6016651D01*
X+7781034Y+5087795D01*
X+7862868Y+5005961D01*
X+7978598Y+5005961D01*
X+8060432Y+5087795D01*
X+8060432Y+7004515D01*
X+8154991Y+7099074D01*
X+8154991Y+7239501D01*
X+8254797Y+7239501D01*
X+8254797Y+5965446D01*
X+8250167Y+5933368D01*
X+8242097Y+5925298D01*
X+8242097Y+5809568D01*
X+8323931Y+5727734D01*
X+8439661Y+5727734D01*
X+8521495Y+5809568D01*
X+8521495Y+5925298D01*
X+8513425Y+5933368D01*
X+8508795Y+5965446D01*
X+8508795Y+7239501D01*
X+8809001Y+7239501D01*
X+8809002Y+6085885D01*
X+3321002Y+6780000D02*
X+3321001Y+6240565D01*
X+3308301Y+6227865D01*
X+3308301Y+5720499D01*
X+3066999Y+5720499D01*
X+3066999Y+7199501D01*
X+3321001Y+7199501D01*
X+3321002Y+6780000D01*
X+3850301Y+6762135D02*
X+3855828Y+6756608D01*
X+3858912Y+6725021D01*
X+3858912Y+6425630D01*
X+3854282Y+6393552D01*
X+3846212Y+6385482D01*
X+3846212Y+6269752D01*
X+3928046Y+6187918D01*
X+4043776Y+6187918D01*
X+4125610Y+6269752D01*
X+4125610Y+6385482D01*
X+4117540Y+6393552D01*
X+4112910Y+6425630D01*
X+4112910Y+6719137D01*
X+4118666Y+6749171D01*
X+4195618Y+6672218D01*
X+4154898Y+6631498D01*
X+4154898Y+6573632D01*
X+4195815Y+6532715D01*
X+4253681Y+6532715D01*
X+4294598Y+6573632D01*
X+4294598Y+6631498D01*
X+4293373Y+6632723D01*
X+4383121Y+6632723D01*
X+4153001Y+6402603D01*
X+4153001Y+6129850D01*
X+4131067Y+6129850D01*
X+4090150Y+6088933D01*
X+4090150Y+6031067D01*
X+4131067Y+5990150D01*
X+4153001Y+5990150D01*
X+4153001Y+5420045D01*
X+4092337Y+5359381D01*
X+3892499Y+5359381D01*
X+3892499Y+5720499D01*
X+3828999Y+5720499D01*
X+3828999Y+6840301D01*
X+3850301Y+6840301D01*
X+3850301Y+6762135D01*
D16*
X+9519501Y+5884000D02*
X+9710000Y+5884000D01*
X+9900499Y+5884000D02*
X+9710000Y+5884000D01*
X+9519501Y+3758000D02*
X+9710000Y+3758000D01*
X+9900499Y+3758000D02*
X+9710000Y+3758000D01*
X+3194000Y+5339501D02*
X+3194000Y+5530000D01*
X+3194000Y+5720499D02*
X+3194000Y+5530000D01*
X+8610000Y+7239501D02*
X+8610000Y+7430000D01*
X+229501Y+4824000D02*
X+420000Y+4824000D01*
X+610499Y+4824000D02*
X+420000Y+4824000D01*
X+9380499Y+7430000D02*
X+9190000Y+7430000D01*
X+9190000Y+7239501D02*
X+9190000Y+7430000D01*
X+229501Y+3450000D02*
X+420000Y+3450000D01*
X+3194000Y+7199501D02*
X+3194000Y+7390000D01*
X+7555501Y+7430000D02*
X+7746000Y+7430000D01*
X+7746000Y+7239501D02*
X+7746000Y+7430000D01*
X+1298101Y+7190000D02*
X+1407000Y+7190000D01*
X+1470000Y+7348899D02*
X+1470000Y+7240000D01*
X+1470000Y+7031101D02*
X+1470000Y+7140000D01*
X+1641899Y+7190000D02*
X+1533000Y+7190000D01*
X+5144499Y+7420000D02*
X+4954000Y+7420000D01*
X+4954000Y+7229501D02*
X+4954000Y+7420000D01*
X+230000Y+5475501D02*
X+230000Y+5666000D01*
X+222000Y+6763601D02*
X+222000Y+6950000D01*
X+408399Y+6950000D02*
X+222000Y+6950000D01*
X+222000Y+6476399D02*
X+222000Y+6290000D01*
X+408399Y+6290000D02*
X+222000Y+6290000D01*
D18*
X+290000Y+7300000D03*
D19*
X+7724000Y+540000D03*
X+8232000Y+540000D03*
X+8740000Y+540000D03*
D70*
X+980000Y+7320000D03*
X+726000Y+7320000D03*
D17*
X+6125860Y+6201600D03*
X+6232540Y+6201600D03*
X+6331600Y+6201600D03*
X+6334140Y+6100000D03*
X+6230000Y+6100000D03*
X+6125860Y+6094920D03*
X+6128400Y+5993320D03*
X+6230000Y+5995860D03*
X+6331600Y+5995860D03*
D19*
X+1250000Y+530000D03*
X+1758000Y+530000D03*
X+2266000Y+530000D03*
X+3460000Y+530000D03*
X+3968000Y+530000D03*
X+4476000Y+530000D03*
X+5660000Y+530000D03*
X+6168000Y+530000D03*
X+6676000Y+530000D03*
D18*
X+9770000Y+7300000D03*
D70*
X+9710000Y+6646000D03*
X+9710000Y+6392000D03*
X+9710000Y+6138000D03*
X+9710000Y+5884000D03*
D18*
X+290000Y+220000D03*
X+9770000Y+220000D03*
D24*
X+2360000Y+3030000D03*
X+1160000Y+3030000D03*
X+1760000Y+3230000D03*
X+2360000Y+1810000D03*
X+1160000Y+1810000D03*
X+4580000Y+3030000D03*
X+3380000Y+3030000D03*
X+3980000Y+3230000D03*
X+4580000Y+1810000D03*
X+3380000Y+1810000D03*
X+6770000Y+3030000D03*
X+5570000Y+3030000D03*
X+6170000Y+3230000D03*
X+6770000Y+1810000D03*
X+5570000Y+1810000D03*
X+8800000Y+3030000D03*
X+7600000Y+3030000D03*
X+8200000Y+3230000D03*
X+8800000Y+1810000D03*
X+7600000Y+1810000D03*
D70*
X+9710000Y+5536000D03*
X+9710000Y+5282000D03*
X+9710000Y+5028000D03*
X+9710000Y+4774000D03*
X+9710000Y+4520000D03*
X+9710000Y+4266000D03*
X+9710000Y+4012000D03*
X+9710000Y+3758000D03*
X+2940000Y+5530000D03*
X+3194000Y+5530000D03*
X+3448000Y+5530000D03*
X+3702000Y+5530000D03*
X+8610000Y+7430000D03*
X+8356000Y+7430000D03*
X+420000Y+5078000D03*
X+420000Y+4824000D03*
X+420000Y+4570000D03*
X+420000Y+4316000D03*
X+420000Y+4062000D03*
X+9710000Y+3416000D03*
X+9710000Y+3162000D03*
X+9710000Y+2908000D03*
X+9710000Y+2654000D03*
X+9190000Y+7430000D03*
X+8936000Y+7430000D03*
X+420000Y+1468000D03*
X+420000Y+1214000D03*
X+420000Y+960000D03*
X+420000Y+706000D03*
X+420000Y+2588000D03*
X+420000Y+2334000D03*
X+420000Y+2080000D03*
X+420000Y+1826000D03*
X+420000Y+3704000D03*
X+420000Y+3450000D03*
X+420000Y+3196000D03*
X+420000Y+2942000D03*
X+2940000Y+7390000D03*
X+3194000Y+7390000D03*
X+3448000Y+7390000D03*
X+3702000Y+7390000D03*
X+9710000Y+1210000D03*
X+9710000Y+956000D03*
X+9710000Y+702000D03*
X+9710000Y+2342000D03*
X+9710000Y+2088000D03*
X+9710000Y+1834000D03*
X+9710000Y+1580000D03*
X+8000000Y+7430000D03*
X+7746000Y+7430000D03*
D73*
X+1407000Y+7190000D03*
X+1470000Y+7240000D03*
X+1470000Y+7140000D03*
X+1533000Y+7190000D03*
D70*
X+4700000Y+7420000D03*
X+4954000Y+7420000D03*
X+230000Y+5920000D03*
X+230000Y+5666000D03*
D33*
X+222000Y+6950000D03*
X+222000Y+6290000D03*
D36*
X+35420Y-8200D02*
X+10035420Y-8200D01*
X+10035420Y+7611800D01*
X+35420Y+7611800D01*
X+35420Y-8200D01*
M02*
